Varta-SemiBold.ufo
<glyph name="quotesingle" format="1">
  <advance width="529"/>
  <unicode hex="0027"/>
  <outline>
    <contour>
      <point x="207" y="829" type="line" name="hr00"/>
      <point x="320" y="829" type="line"/>
      <point x="358" y="1208" type="line"/>
      <point x="365" y="1412" type="line"/>
      <point x="163" y="1412" type="line"/>
      <point x="169" y="1208" type="line"/>
    </contour>
  </outline>
</glyph>
<glyph name="parenleft" format="1">
  <advance width="636"/>
  <unicode hex="0028"/>
  <outline>
    <contour>
      <point x="434" y="-361" type="curve" name="hr00"/>
      <point x="555" y="-307" type="line"/>
      <point x="398" y="-46"/>
      <point x="326" y="234"/>
      <point x="326" y="567" type="curve" smooth="yes"/>
      <point x="326" y="903"/>
      <point x="398" y="1185"/>
      <point x="555" y="1446" type="curve"/>
      <point x="434" y="1500" type="line"/>
      <point x="264" y="1225"/>
      <point x="164" y="960"/>
      <point x="164" y="567" type="curve" smooth="yes"/>
      <point x="164" y="175"/>
      <point x="264" y="-86"/>
    </contour>
  </outline>
</glyph>
<glyph name="asterisk" format="1">
  <advance width="871"/>
  <unicode hex="002A"/>
  <outline>
    <contour>
      <point x="283" y="827" type="line" name="hr00"/>
      <point x="436" y="1011" type="line"/>
      <point x="589" y="826" type="line"/>
      <point x="677" y="892" type="line"/>
      <point x="557" y="1095" type="line"/>
      <point x="765" y="1182" type="line"/>
      <point x="732" y="1285" type="line"/>
      <point x="510" y="1234" type="line"/>
      <point x="490" y="1466" type="line"/>
      <point x="379" y="1466" type="line"/>
      <point x="359" y="1233" type="line"/>
      <point x="139" y="1286" type="line"/>
      <point x="105" y="1182" type="line"/>
      <point x="314" y="1095" type="line"/>
      <point x="193" y="893" type="line"/>
    </contour>
  </outline>
</glyph>
<glyph name="period" format="1">
  <advance width="529"/>
  <unicode hex="002E"/>
  <outline>
    <contour>
      <point x="132" y="113" type="curve" smooth="yes" name="hr00"/>
      <point x="132" y="34"/>
      <point x="191" y="-25"/>
      <point x="265" y="-25" type="curve" smooth="yes"/>
      <point x="338" y="-25"/>
      <point x="398" y="34"/>
      <point x="398" y="113" type="curve" smooth="yes"/>
      <point x="398" y="197"/>
      <point x="338" y="255"/>
      <point x="265" y="255" type="curve" smooth="yes"/>
      <point x="191" y="255"/>
      <point x="132" y="197"/>
    </contour>
  </outline>
</glyph>
<glyph name="six" format="1">
  <advance width="1030"/>
  <unicode hex="0036"/>
  <outline>
    <contour>
      <point x="553" y="126" type="curve" smooth="yes" name="hr00"/>
      <point x="401" y="126"/>
      <point x="298" y="275"/>
      <point x="281" y="537" type="curve"/>
      <point x="364" y="655"/>
      <point x="461" y="698"/>
      <point x="540" y="698" type="curve" smooth="yes"/>
      <point x="690" y="698"/>
      <point x="768" y="595"/>
      <point x="768" y="402" type="curve" smooth="yes"/>
      <point x="768" y="233"/>
      <point x="675" y="126"/>
    </contour>
    <contour>
      <point x="923" y="1236" type="line"/>
      <point x="849" y="1317"/>
      <point x="745" y="1367"/>
      <point x="599" y="1367" type="curve" smooth="yes"/>
      <point x="336" y="1367"/>
      <point x="95" y="1163"/>
      <point x="95" y="638" type="curve" smooth="yes"/>
      <point x="95" y="201"/>
      <point x="299" y="-25"/>
      <point x="554" y="-25" type="curve" smooth="yes"/>
      <point x="769" y="-25"/>
      <point x="949" y="147"/>
      <point x="949" y="402" type="curve" smooth="yes"/>
      <point x="949" y="700"/>
      <point x="798" y="840"/>
      <point x="574" y="840" type="curve" smooth="yes"/>
      <point x="472" y="840"/>
      <point x="356" y="783"/>
      <point x="277" y="685" type="curve"/>
      <point x="285" y="1087"/>
      <point x="432" y="1207"/>
      <point x="607" y="1207" type="curve" smooth="yes"/>
      <point x="688" y="1207"/>
      <point x="768" y="1177"/>
      <point x="820" y="1115" type="curve"/>
    </contour>
  </outline>
</glyph>
<glyph name="nine" format="1">
  <advance width="1030"/>
  <unicode hex="0039"/>
  <outline>
    <contour>
      <point x="487" y="645" type="curve" smooth="yes" name="hr00"/>
      <point x="337" y="645"/>
      <point x="259" y="765"/>
      <point x="259" y="929" type="curve" smooth="yes"/>
      <point x="259" y="1096"/>
      <point x="359" y="1218"/>
      <point x="483" y="1218" type="curve" smooth="yes"/>
      <point x="644" y="1218"/>
      <point x="748" y="1084"/>
      <point x="748" y="800" type="curve"/>
      <point x="665" y="681"/>
      <point x="568" y="645"/>
    </contour>
    <contour>
      <point x="148" y="110" type="line"/>
      <point x="239" y="23"/>
      <point x="336" y="-25"/>
      <point x="481" y="-25" type="curve" smooth="yes"/>
      <point x="746" y="-25"/>
      <point x="932" y="197"/>
      <point x="932" y="698" type="curve" smooth="yes"/>
      <point x="932" y="1185"/>
      <point x="745" y="1367"/>
      <point x="480" y="1367" type="curve" smooth="yes"/>
      <point x="266" y="1367"/>
      <point x="80" y="1182"/>
      <point x="80" y="929" type="curve" smooth="yes"/>
      <point x="80" y="660"/>
      <point x="229" y="502"/>
      <point x="454" y="502" type="curve" smooth="yes"/>
      <point x="557" y="502"/>
      <point x="681" y="553"/>
      <point x="752" y="654" type="curve"/>
      <point x="747" y="273"/>
      <point x="649" y="134"/>
      <point x="472" y="134" type="curve" smooth="yes"/>
      <point x="391" y="134"/>
      <point x="287" y="177"/>
      <point x="245" y="229" type="curve"/>
    </contour>
  </outline>
</glyph>
<glyph name="less" format="1">
  <advance width="1030"/>
  <unicode hex="003C"/>
  <outline>
    <contour>
      <point x="70" y="605" type="line" name="hr01"/>
      <point x="960" y="258" type="line"/>
      <point x="960" y="423" type="line"/>
      <point x="541" y="574" type="line"/>
      <point x="266" y="676" type="line"/>
      <point x="266" y="684" type="line"/>
      <point x="541" y="785" type="line"/>
      <point x="960" y="937" type="line"/>
      <point x="960" y="1102" type="line"/>
      <point x="70" y="755" type="line"/>
    </contour>
  </outline>
</glyph>
<glyph name="equal" format="1">
  <advance width="1030"/>
  <unicode hex="003D"/>
  <outline>
    <contour>
      <point x="70" y="827" type="line" name="hr00"/>
      <point x="960" y="827" type="line"/>
      <point x="960" y="969" type="line"/>
      <point x="70" y="969" type="line"/>
    </contour>
    <contour>
      <point x="70" y="382" type="line"/>
      <point x="960" y="382" type="line"/>
      <point x="960" y="524" type="line"/>
      <point x="70" y="524" type="line"/>
    </contour>
  </outline>
</glyph>
<glyph name="at" format="1">
  <advance width="1756"/>
  <unicode hex="0040"/>
  <outline>
    <contour>
      <point x="103" y="452" type="curve" smooth="yes" name="hr01"/>
      <point x="103" y="-34"/>
      <point x="432" y="-288"/>
      <point x="835" y="-288" type="curve" smooth="yes"/>
      <point x="977" y="-288"/>
      <point x="1106" y="-257"/>
      <point x="1226" y="-186" type="curve"/>
      <point x="1177" y="-77" type="line"/>
      <point x="1086" y="-129"/>
      <point x="971" y="-167"/>
      <point x="849" y="-167" type="curve" smooth="yes"/>
      <point x="501" y="-167"/>
      <point x="237" y="58"/>
      <point x="237" y="458" type="curve" smooth="yes"/>
      <point x="237" y="934"/>
      <point x="590" y="1245"/>
      <point x="955" y="1245" type="curve" smooth="yes"/>
      <point x="1333" y="1245"/>
      <point x="1522" y="996"/>
      <point x="1522" y="673" type="curve" smooth="yes"/>
      <point x="1522" y="414"/>
      <point x="1387" y="259"/>
      <point x="1259" y="259" type="curve" smooth="yes"/>
      <point x="1149" y="259"/>
      <point x="1112" y="333"/>
      <point x="1151" y="487" type="curve"/>
      <point x="1233" y="904" type="line"/>
      <point x="1108" y="904" type="line"/>
      <point x="1084" y="821" type="line"/>
      <point x="1080" y="821" type="line"/>
      <point x="1043" y="890"/>
      <point x="987" y="921"/>
      <point x="917" y="921" type="curve" smooth="yes"/>
      <point x="679" y="921"/>
      <point x="520" y="670"/>
      <point x="520" y="441" type="curve" smooth="yes"/>
      <point x="520" y="254"/>
      <point x="627" y="148"/>
      <point x="771" y="148" type="curve" smooth="yes" name="hr02"/>
      <point x="868" y="148"/>
      <point x="954" y="207"/>
      <point x="1020" y="287" type="curve"/>
      <point x="1024" y="287" type="line"/>
      <point x="1040" y="185"/>
      <point x="1127" y="131"/>
      <point x="1240" y="131" type="curve" smooth="yes" name="hr03"/>
      <point x="1431" y="131"/>
      <point x="1652" y="318"/>
      <point x="1652" y="679" type="curve" smooth="yes"/>
      <point x="1652" y="1088"/>
      <point x="1389" y="1367"/>
      <point x="970" y="1367" type="curve" smooth="yes"/>
      <point x="504" y="1367"/>
      <point x="103" y="1005"/>
    </contour>
    <contour>
      <point x="672" y="452" type="curve" smooth="yes" name="hr04"/>
      <point x="672" y="603"/>
      <point x="766" y="790"/>
      <point x="921" y="790" type="curve" smooth="yes"/>
      <point x="974" y="790"/>
      <point x="1009" y="767"/>
      <point x="1045" y="709" type="curve"/>
      <point x="988" y="392" type="line"/>
      <point x="926" y="313"/>
      <point x="864" y="276"/>
      <point x="809" y="276" type="curve" smooth="yes"/>
      <point x="730" y="276"/>
      <point x="672" y="325"/>
    </contour>
  </outline>
</glyph>
<glyph name="A" format="1">
  <advance width="1114"/>
  <unicode hex="0041"/>
  <outline>
    <contour>
      <point x="362" y="548" type="line" name="hr00"/>
      <point x="422" y="738" type="line"/>
      <point x="468" y="884"/>
      <point x="510" y="1034"/>
      <point x="550" y="1186" type="curve"/>
      <point x="558" y="1186" type="line"/>
      <point x="600" y="1034"/>
      <point x="642" y="884"/>
      <point x="687" y="738" type="curve" smooth="yes"/>
      <point x="745" y="548" type="line"/>
    </contour>
    <contour>
      <point x="912" y="0" type="line"/>
      <point x="1117" y="0" type="line"/>
      <point x="669" y="1342" type="line"/>
      <point x="446" y="1342" type="line"/>
      <point x="-3" y="0" type="line"/>
      <point x="196" y="0" type="line"/>
      <point x="316" y="393" type="line"/>
      <point x="791" y="393" type="line"/>
    </contour>
    <contour>
      <point x="557" y="1050" type="move" name="top"/>
    </contour>
  </outline>
</glyph>
<glyph name="G" format="1">
  <advance width="1262"/>
  <unicode hex="0047"/>
  <outline>
    <contour>
      <point x="99" y="667" type="curve" smooth="yes" name="hr00"/>
      <point x="99" y="210"/>
      <point x="356" y="-25"/>
      <point x="711" y="-25" type="curve" smooth="yes"/>
      <point x="892" y="-25"/>
      <point x="1045" y="46"/>
      <point x="1134" y="132" type="curve"/>
      <point x="1134" y="706" type="line"/>
      <point x="692" y="706" type="line"/>
      <point x="692" y="546" type="line"/>
      <point x="958" y="546" type="line"/>
      <point x="958" y="218" type="line"/>
      <point x="908" y="173"/>
      <point x="821" y="145"/>
      <point x="733" y="145" type="curve" smooth="yes"/>
      <point x="451" y="145"/>
      <point x="300" y="335"/>
      <point x="300" y="672" type="curve" smooth="yes"/>
      <point x="300" y="1017"/>
      <point x="468" y="1197"/>
      <point x="728" y="1197" type="curve" smooth="yes"/>
      <point x="858" y="1197"/>
      <point x="939" y="1154"/>
      <point x="1006" y="1085" type="curve"/>
      <point x="1117" y="1207" type="line"/>
      <point x="1035" y="1291"/>
      <point x="909" y="1367"/>
      <point x="726" y="1367" type="curve" smooth="yes"/>
      <point x="364" y="1367"/>
      <point x="99" y="1133"/>
    </contour>
    <contour>
      <point x="722" y="1050" type="move" name="top"/>
    </contour>
  </outline>
</glyph>
<glyph name="N" format="1">
  <advance width="1323"/>
  <unicode hex="004E"/>
  <outline>
    <contour>
      <point x="174" y="0" type="line" name="hr00"/>
      <point x="359" y="0" type="line"/>
      <point x="359" y="660" type="line"/>
      <point x="359" y="805"/>
      <point x="345" y="954"/>
      <point x="335" y="1092" type="curve"/>
      <point x="344" y="1092" type="line"/>
      <point x="486" y="813" type="line"/>
      <point x="946" y="0" type="line"/>
      <point x="1147" y="0" type="line"/>
      <point x="1147" y="1342" type="line"/>
      <point x="962" y="1342" type="line"/>
      <point x="962" y="688" type="line"/>
      <point x="962" y="544"/>
      <point x="978" y="386"/>
      <point x="987" y="250" type="curve"/>
      <point x="979" y="250" type="line"/>
      <point x="837" y="532" type="line"/>
      <point x="374" y="1342" type="line"/>
      <point x="174" y="1342" type="line"/>
    </contour>
    <contour>
      <point x="660" y="1050" type="move" name="top"/>
    </contour>
  </outline>
</glyph>
<glyph name="Q" format="1">
  <advance width="1359"/>
  <unicode hex="0051"/>
  <outline>
    <contour>
      <point x="296" y="677" type="curve" smooth="yes" name="hr00"/>
      <point x="296" y="1007"/>
      <point x="438" y="1197"/>
      <point x="675" y="1197" type="curve" smooth="yes"/>
      <point x="911" y="1197"/>
      <point x="1054" y="1007"/>
      <point x="1054" y="677" type="curve" smooth="yes"/>
      <point x="1054" y="346"/>
      <point x="911" y="145"/>
      <point x="675" y="145" type="curve" smooth="yes"/>
      <point x="438" y="145"/>
      <point x="296" y="346"/>
    </contour>
    <contour>
      <point x="1256" y="-159" type="line"/>
      <point x="1219" y="-170"/>
      <point x="1163" y="-181"/>
      <point x="1104" y="-181" type="curve" smooth="yes"/>
      <point x="965" y="-181"/>
      <point x="832" y="-127"/>
      <point x="791" y="-13" type="curve"/>
      <point x="1071" y="41"/>
      <point x="1256" y="285"/>
      <point x="1256" y="677" type="curve" smooth="yes"/>
      <point x="1256" y="1117"/>
      <point x="1028" y="1367"/>
      <point x="675" y="1367" type="curve" smooth="yes"/>
      <point x="321" y="1367"/>
      <point x="96" y="1119"/>
      <point x="96" y="677" type="curve" smooth="yes"/>
      <point x="96" y="275"/>
      <point x="290" y="28"/>
      <point x="582" y="-17" type="curve"/>
      <point x="650" y="-208"/>
      <point x="829" y="-341"/>
      <point x="1083" y="-341" type="curve" smooth="yes"/>
      <point x="1167" y="-341"/>
      <point x="1250" y="-324"/>
      <point x="1293" y="-308" type="curve"/>
    </contour>
    <contour>
      <point x="694" y="1050" type="move" name="top"/>
    </contour>
  </outline>
</glyph>
<glyph name="R" format="1">
  <advance width="1195"/>
  <unicode hex="0052"/>
  <outline>
    <contour>
      <point x="370" y="1186" type="line" name="hr00"/>
      <point x="597" y="1186" type="line"/>
      <point x="797" y="1186"/>
      <point x="891" y="1137"/>
      <point x="891" y="962" type="curve" smooth="yes"/>
      <point x="891" y="779"/>
      <point x="795" y="710"/>
      <point x="595" y="710" type="curve" smooth="yes"/>
      <point x="370" y="710" type="line"/>
    </contour>
    <contour>
      <point x="1130" y="0" type="line"/>
      <point x="805" y="577" type="line"/>
      <point x="979" y="627"/>
      <point x="1084" y="738"/>
      <point x="1084" y="962" type="curve" smooth="yes"/>
      <point x="1084" y="1255"/>
      <point x="896" y="1342"/>
      <point x="622" y="1342" type="curve" smooth="yes"/>
      <point x="174" y="1342" type="line"/>
      <point x="174" y="0" type="line"/>
      <point x="370" y="0" type="line"/>
      <point x="370" y="551" type="line"/>
      <point x="607" y="551" type="line"/>
      <point x="908" y="0" type="line"/>
    </contour>
    <contour>
      <point x="595" y="1050" type="move" name="top"/>
    </contour>
  </outline>
</glyph>
<glyph name="S" format="1">
  <advance width="1093"/>
  <unicode hex="0053"/>
  <outline>
    <contour>
      <point x="83" y="164" type="line" name="hr00"/>
      <point x="204" y="42"/>
      <point x="366" y="-25"/>
      <point x="553" y="-25" type="curve" smooth="yes"/>
      <point x="844" y="-25"/>
      <point x="1020" y="147"/>
      <point x="1020" y="361" type="curve" smooth="yes"/>
      <point x="1020" y="558"/>
      <point x="896" y="656"/>
      <point x="739" y="723" type="curve" smooth="yes"/>
      <point x="551" y="803" type="line"/>
      <point x="444" y="848"/>
      <point x="334" y="903"/>
      <point x="334" y="1024" type="curve" smooth="yes"/>
      <point x="334" y="1137"/>
      <point x="431" y="1197"/>
      <point x="573" y="1197" type="curve" smooth="yes"/>
      <point x="694" y="1197"/>
      <point x="789" y="1158"/>
      <point x="871" y="1083" type="curve"/>
      <point x="973" y="1207" type="line"/>
      <point x="875" y="1308"/>
      <point x="734" y="1367"/>
      <point x="574" y="1367" type="curve" smooth="yes"/>
      <point x="324" y="1367"/>
      <point x="138" y="1220"/>
      <point x="138" y="1012" type="curve" smooth="yes"/>
      <point x="138" y="815"/>
      <point x="279" y="707"/>
      <point x="407" y="654" type="curve" smooth="yes"/>
      <point x="595" y="571" type="line"/>
      <point x="720" y="515"/>
      <point x="822" y="473"/>
      <point x="822" y="345" type="curve" smooth="yes"/>
      <point x="822" y="224"/>
      <point x="726" y="145"/>
      <point x="557" y="145" type="curve" smooth="yes"/>
      <point x="421" y="145"/>
      <point x="295" y="202"/>
      <point x="198" y="299" type="curve"/>
    </contour>
    <contour>
      <point x="575" y="1050" type="move" name="top"/>
    </contour>
  </outline>
</glyph>
<glyph name="T" format="1">
  <advance width="1096"/>
  <unicode hex="0054"/>
  <outline>
    <contour>
      <point x="451" y="0" type="line" name="hr00"/>
      <point x="645" y="0" type="line"/>
      <point x="645" y="1178" type="line"/>
      <point x="1045" y="1178" type="line"/>
      <point x="1045" y="1342" type="line"/>
      <point x="51" y="1342" type="line"/>
      <point x="51" y="1178" type="line"/>
      <point x="451" y="1178" type="line"/>
    </contour>
    <contour>
      <point x="548" y="1050" type="move" name="top"/>
    </contour>
  </outline>
</glyph>
<glyph name="Z" format="1">
  <advance width="1096"/>
  <unicode hex="005A"/>
  <outline>
    <contour>
      <point x="83" y="0" type="line" name="hr00"/>
      <point x="1017" y="0" type="line"/>
      <point x="1017" y="165" type="line"/>
      <point x="324" y="165" type="line"/>
      <point x="1011" y="1227" type="line"/>
      <point x="1011" y="1342" type="line"/>
      <point x="146" y="1342" type="line"/>
      <point x="146" y="1178" type="line"/>
      <point x="771" y="1178" type="line"/>
      <point x="83" y="117" type="line"/>
    </contour>
    <contour>
      <point x="531" y="1050" type="move" name="top"/>
    </contour>
  </outline>
</glyph>
<glyph name="backslash" format="1">
  <advance width="713"/>
  <unicode hex="005C"/>
  <outline>
    <contour>
      <point x="554" y="-328" type="line" name="hr00"/>
      <point x="691" y="-328" type="line"/>
      <point x="169" y="1454" type="line"/>
      <point x="34" y="1454" type="line"/>
    </contour>
  </outline>
</glyph>
<glyph name="c" format="1">
  <advance width="938"/>
  <unicode hex="0063"/>
  <outline>
    <contour>
      <point x="90" y="502" type="curve" smooth="yes" name="hr00"/>
      <point x="90" y="157"/>
      <point x="293" y="-25"/>
      <point x="560" y="-25" type="curve" smooth="yes"/>
      <point x="678" y="-25"/>
      <point x="790" y="14"/>
      <point x="881" y="94" type="curve"/>
      <point x="797" y="220" type="line"/>
      <point x="740" y="170"/>
      <point x="669" y="134"/>
      <point x="578" y="134" type="curve" smooth="yes"/>
      <point x="406" y="134"/>
      <point x="288" y="274"/>
      <point x="288" y="502" type="curve" smooth="yes"/>
      <point x="288" y="730"/>
      <point x="410" y="866"/>
      <point x="584" y="866" type="curve" smooth="yes"/>
      <point x="657" y="866"/>
      <point x="720" y="835"/>
      <point x="777" y="786" type="curve"/>
      <point x="870" y="908" type="line"/>
      <point x="803" y="973"/>
      <point x="706" y="1024"/>
      <point x="575" y="1024" type="curve" smooth="yes"/>
      <point x="315" y="1024"/>
      <point x="90" y="849"/>
    </contour>
    <contour>
      <point x="570" y="1050" type="move" name="top"/>
    </contour>
  </outline>
</glyph>
<glyph name="l" format="1">
  <advance width="534"/>
  <unicode hex="006C"/>
  <outline>
    <contour>
      <point x="162" y="222" type="line" name="hr01"/>
      <point x="162" y="65"/>
      <point x="216" y="-25"/>
      <point x="358" y="-25" type="curve" smooth="yes" name="hr02"/>
      <point x="407" y="-25"/>
      <point x="440" y="-17"/>
      <point x="464" y="-7" type="curve"/>
      <point x="439" y="138" type="line" name="hr03"/>
      <point x="421" y="134"/>
      <point x="413" y="134"/>
      <point x="402" y="134" type="curve" smooth="yes"/>
      <point x="377" y="134"/>
      <point x="354" y="154"/>
      <point x="354" y="209" type="curve" smooth="yes"/>
      <point x="354" y="1454" type="line"/>
      <point x="162" y="1454" type="line"/>
    </contour>
    <contour>
      <point x="262" y="1050" type="move" name="top"/>
    </contour>
  </outline>
</glyph>
<glyph name="w" format="1">
  <advance width="1492"/>
  <unicode hex="0077"/>
  <outline>
    <contour>
      <point x="322" y="0" type="line" name="hr01"/>
      <point x="545" y="0" type="line"/>
      <point x="676" y="509" type="line"/>
      <point x="700" y="604"/>
      <point x="720" y="698"/>
      <point x="741" y="799" type="curve" name="hr02"/>
      <point x="750" y="799" type="line"/>
      <point x="773" y="698"/>
      <point x="791" y="605"/>
      <point x="815" y="511" type="curve" smooth="yes"/>
      <point x="949" y="0" type="line"/>
      <point x="1181" y="0" type="line"/>
      <point x="1443" y="999" type="line"/>
      <point x="1262" y="999" type="line"/>
      <point x="1125" y="443" type="line"/>
      <point x="1105" y="348"/>
      <point x="1088" y="256"/>
      <point x="1067" y="162" type="curve"/>
      <point x="1059" y="162" type="line"/>
      <point x="1036" y="256"/>
      <point x="1014" y="348"/>
      <point x="990" y="443" type="curve" smooth="yes"/>
      <point x="841" y="999" type="line"/>
      <point x="660" y="999" type="line"/>
      <point x="514" y="443" type="line"/>
      <point x="489" y="350"/>
      <point x="470" y="256"/>
      <point x="448" y="162" type="curve"/>
      <point x="440" y="162" type="line"/>
      <point x="422" y="256"/>
      <point x="404" y="348"/>
      <point x="383" y="443" type="curve"/>
      <point x="244" y="999" type="line"/>
      <point x="49" y="999" type="line"/>
    </contour>
    <contour>
      <point x="746" y="1050" type="move" name="top"/>
    </contour>
  </outline>
</glyph>
<glyph name="currency" format="1">
  <advance width="1030"/>
  <unicode hex="00A4"/>
  <outline>
    <contour>
      <point x="152" y="203" type="line" name="hr00"/>
      <point x="292" y="345" type="line"/>
      <point x="355" y="298"/>
      <point x="434" y="273"/>
      <point x="516" y="273" type="curve" smooth="yes"/>
      <point x="594" y="273"/>
      <point x="674" y="298"/>
      <point x="737" y="345" type="curve"/>
      <point x="877" y="203" type="line"/>
      <point x="979" y="306" type="line"/>
      <point x="846" y="438" type="line"/>
      <point x="893" y="502"/>
      <point x="921" y="581"/>
      <point x="921" y="674" type="curve" smooth="yes"/>
      <point x="921" y="767"/>
      <point x="894" y="848"/>
      <point x="846" y="910" type="curve"/>
      <point x="979" y="1045" type="line"/>
      <point x="877" y="1148" type="line"/>
      <point x="738" y="1004" type="line"/>
      <point x="674" y="1051"/>
      <point x="594" y="1075"/>
      <point x="516" y="1075" type="curve" smooth="yes"/>
      <point x="434" y="1075"/>
      <point x="355" y="1051"/>
      <point x="292" y="1004" type="curve"/>
      <point x="152" y="1148" type="line"/>
      <point x="51" y="1045" type="line"/>
      <point x="180" y="910" type="line"/>
      <point x="134" y="848"/>
      <point x="108" y="767"/>
      <point x="108" y="674" type="curve" smooth="yes"/>
      <point x="108" y="581"/>
      <point x="134" y="502"/>
      <point x="181" y="438" type="curve"/>
      <point x="51" y="306" type="line"/>
    </contour>
    <contour>
      <point x="284" y="674" type="curve" smooth="yes"/>
      <point x="284" y="830"/>
      <point x="389" y="935"/>
      <point x="516" y="935" type="curve" smooth="yes"/>
      <point x="641" y="935"/>
      <point x="746" y="830"/>
      <point x="746" y="674" type="curve" smooth="yes"/>
      <point x="746" y="518"/>
      <point x="641" y="413"/>
      <point x="516" y="413" type="curve" smooth="yes"/>
      <point x="389" y="413"/>
      <point x="284" y="518"/>
    </contour>
  </outline>
</glyph>
<glyph name="section" format="1">
  <advance width="1030"/>
  <unicode hex="00A7"/>
  <outline>
    <contour>
      <point x="660" y="403" type="curve" name="hr01"/>
      <point x="492" y="500"/>
      <point x="256" y="537"/>
      <point x="256" y="709" type="curve" smooth="yes"/>
      <point x="256" y="786"/>
      <point x="299" y="835"/>
      <point x="372" y="876" type="curve"/>
      <point x="540" y="781"/>
      <point x="773" y="742"/>
      <point x="773" y="567" type="curve" smooth="yes"/>
      <point x="773" y="483"/>
      <point x="734" y="438"/>
    </contour>
    <contour>
      <point x="844" y="1283" type="line"/>
      <point x="766" y="1348"/>
      <point x="654" y="1403"/>
      <point x="520" y="1403" type="curve" smooth="yes"/>
      <point x="310" y="1403"/>
      <point x="199" y="1277"/>
      <point x="199" y="1129" type="curve" smooth="yes" name="hr02"/>
      <point x="199" y="1057"/>
      <point x="223" y="1003"/>
      <point x="263" y="960" type="curve"/>
      <point x="161" y="901"/>
      <point x="89" y="812"/>
      <point x="89" y="696" type="curve" smooth="yes" name="hr03"/>
      <point x="89" y="316"/>
      <point x="649" y="361"/>
      <point x="649" y="140" type="curve" smooth="yes"/>
      <point x="649" y="67"/>
      <point x="589" y="9"/>
      <point x="485" y="9" type="curve" smooth="yes"/>
      <point x="382" y="9"/>
      <point x="305" y="49"/>
      <point x="238" y="115" type="curve"/>
      <point x="123" y="11" type="line"/>
      <point x="208" y="-84"/>
      <point x="339" y="-139"/>
      <point x="485" y="-139" type="curve" smooth="yes"/>
      <point x="689" y="-139"/>
      <point x="826" y="-16"/>
      <point x="826" y="150" type="curve" smooth="yes"/>
      <point x="826" y="218"/>
      <point x="805" y="271"/>
      <point x="768" y="316" type="curve"/>
      <point x="872" y="377"/>
      <point x="941" y="455"/>
      <point x="941" y="582" type="curve" smooth="yes" name="hr04"/>
      <point x="941" y="957"/>
      <point x="375" y="928"/>
      <point x="375" y="1135" type="curve" smooth="yes"/>
      <point x="375" y="1201"/>
      <point x="421" y="1255"/>
      <point x="528" y="1255" type="curve" smooth="yes"/>
      <point x="614" y="1255"/>
      <point x="688" y="1214"/>
      <point x="753" y="1161" type="curve"/>
    </contour>
  </outline>
</glyph>
<glyph name="registered" format="1">
  <advance width="881"/>
  <unicode hex="00AE"/>
  <outline>
    <contour>
      <point x="440" y="650" type="curve" smooth="yes" name="hr00"/>
      <point x="654" y="650"/>
      <point x="830" y="816"/>
      <point x="830" y="1056" type="curve" smooth="yes"/>
      <point x="830" y="1295"/>
      <point x="654" y="1461"/>
      <point x="440" y="1461" type="curve" smooth="yes"/>
      <point x="226" y="1461"/>
      <point x="50" y="1295"/>
      <point x="50" y="1056" type="curve" smooth="yes"/>
      <point x="50" y="816"/>
      <point x="226" y="650"/>
    </contour>
    <contour>
      <point x="440" y="730" type="curve" smooth="yes"/>
      <point x="268" y="730"/>
      <point x="138" y="862"/>
      <point x="138" y="1056" type="curve" smooth="yes"/>
      <point x="138" y="1248"/>
      <point x="268" y="1382"/>
      <point x="440" y="1382" type="curve" smooth="yes"/>
      <point x="612" y="1382"/>
      <point x="742" y="1248"/>
      <point x="742" y="1056" type="curve" smooth="yes"/>
      <point x="742" y="862"/>
      <point x="612" y="730"/>
    </contour>
    <contour>
      <point x="289" y="854" type="line"/>
      <point x="379" y="854" type="line"/>
      <point x="379" y="993" type="line"/>
      <point x="458" y="993" type="line"/>
      <point x="528" y="854" type="line"/>
      <point x="627" y="854" type="line"/>
      <point x="535" y="1021" type="line"/>
      <point x="580" y="1039"/>
      <point x="610" y="1084"/>
      <point x="610" y="1134" type="curve" smooth="yes"/>
      <point x="610" y="1231"/>
      <point x="537" y="1267"/>
      <point x="449" y="1267" type="curve" smooth="yes"/>
      <point x="289" y="1267" type="line"/>
    </contour>
    <contour>
      <point x="379" y="1062" type="line"/>
      <point x="379" y="1194" type="line"/>
      <point x="434" y="1194" type="line"/>
      <point x="491" y="1194"/>
      <point x="513" y="1168"/>
      <point x="513" y="1130" type="curve" smooth="yes"/>
      <point x="513" y="1086"/>
      <point x="483" y="1062"/>
      <point x="430" y="1062" type="curve" smooth="yes"/>
    </contour>
  </outline>
</glyph>
<glyph name="paragraph" format="1">
  <advance width="1176"/>
  <unicode hex="00B6"/>
  <outline>
    <contour>
      <point x="783" y="-164" type="line" name="hr00"/>
      <point x="979" y="-164" type="line"/>
      <point x="979" y="1342" type="line"/>
      <point x="783" y="1342" type="line"/>
    </contour>
    <contour>
      <point x="601" y="452" type="curve"/>
      <point x="648" y="452" type="line"/>
      <point x="648" y="1342" type="line"/>
      <point x="582" y="1342" type="line"/>
      <point x="299" y="1342"/>
      <point x="83" y="1228"/>
      <point x="83" y="902" type="curve" smooth="yes"/>
      <point x="83" y="592"/>
      <point x="306" y="452"/>
    </contour>
  </outline>
</glyph>
<glyph name="one.sups" format="1">
  <advance width="755"/>
  <unicode hex="00B9"/>
  <outline>
    <contour>
      <point x="349" y="901" type="line" name="hr00"/>
      <point x="497" y="901" type="line"/>
      <point x="497" y="1700" type="line"/>
      <point x="378" y="1700" type="line"/>
      <point x="321" y="1658"/>
      <point x="268" y="1633"/>
      <point x="174" y="1617" type="curve"/>
      <point x="174" y="1522" type="line"/>
      <point x="349" y="1522" type="line"/>
    </contour>
  </outline>
</glyph>
<glyph name="Oslash" format="1">
  <advance width="1359"/>
  <unicode hex="00D8"/>
  <outline>
    <contour>
      <point x="1003" y="971" type="line" name="hr01"/>
      <point x="1040" y="892"/>
      <point x="1059" y="792"/>
      <point x="1059" y="677" type="curve" smooth="yes"/>
      <point x="1059" y="354"/>
      <point x="909" y="145"/>
      <point x="680" y="145" type="curve" smooth="yes"/>
      <point x="585" y="145"/>
      <point x="503" y="181"/>
      <point x="442" y="244" type="curve"/>
    </contour>
    <contour>
      <point x="363" y="362" type="line"/>
      <point x="321" y="446"/>
      <point x="299" y="554"/>
      <point x="299" y="677" type="curve" smooth="yes"/>
      <point x="299" y="999"/>
      <point x="449" y="1197"/>
      <point x="680" y="1197" type="curve" smooth="yes"/>
      <point x="778" y="1197"/>
      <point x="863" y="1161"/>
      <point x="927" y="1092" type="curve"/>
    </contour>
    <contour>
      <point x="1280" y="1327" type="line" name="hr02"/>
      <point x="1172" y="1408" type="line"/>
      <point x="1042" y="1238" type="line"/>
      <point x="945" y="1321"/>
      <point x="821" y="1367"/>
      <point x="680" y="1367" type="curve" smooth="yes" name="hr03"/>
      <point x="338" y="1367"/>
      <point x="99" y="1108"/>
      <point x="99" y="677" type="curve" smooth="yes"/>
      <point x="99" y="480"/>
      <point x="148" y="317"/>
      <point x="235" y="200" type="curve"/>
      <point x="93" y="16" type="line"/>
      <point x="201" y="-65" type="line"/>
      <point x="327" y="98" type="line"/>
      <point x="424" y="18"/>
      <point x="543" y="-25"/>
      <point x="680" y="-25" type="curve" smooth="yes"/>
      <point x="1021" y="-25"/>
      <point x="1259" y="245"/>
      <point x="1259" y="677" type="curve" smooth="yes"/>
      <point x="1259" y="866"/>
      <point x="1214" y="1022"/>
      <point x="1132" y="1137" type="curve"/>
    </contour>
  </outline>
</glyph>
<glyph name="ae" format="1">
  <advance width="1608"/>
  <unicode hex="00E6"/>
  <outline>
    <contour>
      <point x="303" y="276" type="curve" smooth="yes" name="hr01"/>
      <point x="303" y="395"/>
      <point x="416" y="475"/>
      <point x="710" y="506" type="curve"/>
      <point x="710" y="462" type="line"/>
      <point x="711" y="392"/>
      <point x="726" y="319"/>
      <point x="747" y="270" type="curve"/>
      <point x="664" y="180"/>
      <point x="554" y="129"/>
      <point x="467" y="129" type="curve" smooth="yes"/>
      <point x="372" y="129"/>
      <point x="303" y="173"/>
    </contour>
    <contour>
      <point x="231" y="776" type="line" name="hr02"/>
      <point x="312" y="830"/>
      <point x="412" y="866"/>
      <point x="515" y="866" type="curve" smooth="yes"/>
      <point x="670" y="866"/>
      <point x="709" y="750"/>
      <point x="710" y="630" type="curve"/>
      <point x="299" y="600"/>
      <point x="115" y="479"/>
      <point x="115" y="262" type="curve" smooth="yes"/>
      <point x="115" y="86"/>
      <point x="238" y="-25"/>
      <point x="409" y="-25" type="curve" smooth="yes"/>
      <point x="538" y="-25"/>
      <point x="675" y="37"/>
      <point x="812" y="157" type="curve"/>
      <point x="890" y="59"/>
      <point x="998" y="-25"/>
      <point x="1162" y="-25" type="curve" smooth="yes"/>
      <point x="1295" y="-25"/>
      <point x="1403" y="22"/>
      <point x="1492" y="80" type="curve"/>
      <point x="1424" y="211" type="line"/>
      <point x="1350" y="164"/>
      <point x="1279" y="131"/>
      <point x="1187" y="131" type="curve" smooth="yes"/>
      <point x="1025" y="131"/>
      <point x="900" y="255"/>
      <point x="889" y="450" type="curve"/>
      <point x="1524" y="450" type="line"/>
      <point x="1528" y="474"/>
      <point x="1531" y="510"/>
      <point x="1531" y="550" type="curve" smooth="yes"/>
      <point x="1531" y="834"/>
      <point x="1412" y="1024"/>
      <point x="1163" y="1024" type="curve" smooth="yes" name="hr03"/>
      <point x="1015" y="1024"/>
      <point x="904" y="947"/>
      <point x="824" y="823" type="curve"/>
      <point x="780" y="946"/>
      <point x="699" y="1024"/>
      <point x="540" y="1024" type="curve" smooth="yes"/>
      <point x="392" y="1024"/>
      <point x="255" y="970"/>
      <point x="156" y="908" type="curve"/>
    </contour>
    <contour>
      <point x="889" y="575" type="line"/>
      <point x="907" y="761"/>
      <point x="1013" y="873"/>
      <point x="1158" y="873" type="curve" smooth="yes"/>
      <point x="1302" y="873"/>
      <point x="1363" y="765"/>
      <point x="1363" y="575" type="curve"/>
    </contour>
    <contour>
      <point x="823" y="1050" type="move" name="top"/>
    </contour>
  </outline>
</glyph>
<glyph name="Aogonek" format="1">
  <advance width="1114"/>
  <unicode hex="0104"/>
  <outline>
    <contour>
      <point x="362" y="548" type="line" name="hr00"/>
      <point x="422" y="738" type="line"/>
      <point x="468" y="884"/>
      <point x="510" y="1034"/>
      <point x="550" y="1186" type="curve"/>
      <point x="558" y="1186" type="line"/>
      <point x="600" y="1034"/>
      <point x="642" y="884"/>
      <point x="687" y="738" type="curve" smooth="yes"/>
      <point x="745" y="548" type="line"/>
    </contour>
    <contour>
      <point x="1126" y="-275" type="line"/>
      <point x="1102" y="-293"/>
      <point x="1075" y="-304"/>
      <point x="1041" y="-304" type="curve" smooth="yes"/>
      <point x="994" y="-304"/>
      <point x="949" y="-274"/>
      <point x="949" y="-213" type="curve" smooth="yes"/>
      <point x="949" y="-127"/>
      <point x="1020" y="-34"/>
      <point x="1117" y="0" type="curve"/>
      <point x="669" y="1342" type="line"/>
      <point x="446" y="1342" type="line"/>
      <point x="-3" y="0" type="line"/>
      <point x="196" y="0" type="line"/>
      <point x="316" y="393" type="line"/>
      <point x="791" y="393" type="line"/>
      <point x="912" y="0" type="line"/>
      <point x="958" y="0" type="line"/>
      <point x="888" y="-46"/>
      <point x="802" y="-144"/>
      <point x="802" y="-257" type="curve" smooth="yes"/>
      <point x="802" y="-376"/>
      <point x="892" y="-438"/>
      <point x="1004" y="-438" type="curve" smooth="yes"/>
      <point x="1062" y="-438"/>
      <point x="1135" y="-411"/>
      <point x="1177" y="-378" type="curve"/>
    </contour>
  </outline>
</glyph>
<glyph name="dcroat" format="1">
  <advance width="1144"/>
  <unicode hex="0111"/>
  <outline>
    <contour>
      <point x="788" y="265" type="line" name="hr01"/>
      <point x="712" y="177"/>
      <point x="637" y="136"/>
      <point x="550" y="136" type="curve" smooth="yes"/>
      <point x="387" y="136"/>
      <point x="292" y="259"/>
      <point x="292" y="480" type="curve" smooth="yes"/>
      <point x="292" y="688"/>
      <point x="411" y="823"/>
      <point x="560" y="823" type="curve" smooth="yes"/>
      <point x="637" y="823"/>
      <point x="710" y="796"/>
      <point x="788" y="725" type="curve"/>
    </contour>
    <contour>
      <point x="1128" y="1271" type="line"/>
      <point x="982" y="1271" type="line"/>
      <point x="982" y="1454" type="line"/>
      <point x="788" y="1454" type="line"/>
      <point x="788" y="1271" type="line"/>
      <point x="463" y="1271" type="line"/>
      <point x="463" y="1164" type="line"/>
      <point x="788" y="1164" type="line"/>
      <point x="788" y="1037" type="line"/>
      <point x="797" y="869" type="line"/>
      <point x="712" y="940"/>
      <point x="638" y="983"/>
      <point x="523" y="983" type="curve" smooth="yes"/>
      <point x="298" y="983"/>
      <point x="93" y="787"/>
      <point x="93" y="477" type="curve" smooth="yes"/>
      <point x="93" y="157"/>
      <point x="255" y="-25"/>
      <point x="506" y="-25" type="curve" smooth="yes"/>
      <point x="622" y="-25"/>
      <point x="724" y="34"/>
      <point x="799" y="109" type="curve"/>
      <point x="805" y="109" type="line"/>
      <point x="818" y="0" type="line" name="hr02"/>
      <point x="982" y="0" type="line"/>
      <point x="982" y="1164" type="line"/>
      <point x="1128" y="1175" type="line"/>
    </contour>
  </outline>
</glyph>
<glyph name="uni015E" format="1">
  <advance width="1093"/>
  <unicode hex="015E"/>
  <outline>
    <contour>
      <point x="558" y="803" type="line" name="hr01"/>
      <point x="451" y="848"/>
      <point x="337" y="894"/>
      <point x="337" y="1014" type="curve" smooth="yes"/>
      <point x="337" y="1127"/>
      <point x="432" y="1197"/>
      <point x="574" y="1197" type="curve" smooth="yes"/>
      <point x="694" y="1197"/>
      <point x="792" y="1149"/>
      <point x="875" y="1074" type="curve"/>
      <point x="977" y="1199" type="line" name="hr02"/>
      <point x="878" y="1300"/>
      <point x="733" y="1367"/>
      <point x="574" y="1367" type="curve" smooth="yes" name="hr03"/>
      <point x="325" y="1367"/>
      <point x="141" y="1211"/>
      <point x="141" y="1003" type="curve" smooth="yes"/>
      <point x="141" y="806"/>
      <point x="286" y="707"/>
      <point x="413" y="654" type="curve" smooth="yes"/>
      <point x="602" y="571" type="line"/>
      <point x="727" y="515"/>
      <point x="822" y="475"/>
      <point x="822" y="348" type="curve" smooth="yes"/>
      <point x="822" y="226"/>
      <point x="725" y="145"/>
      <point x="558" y="145" type="curve" smooth="yes"/>
      <point x="423" y="145"/>
      <point x="291" y="211"/>
      <point x="195" y="308" type="curve"/>
      <point x="80" y="173" type="line"/>
      <point x="187" y="63"/>
      <point x="332" y="-9"/>
      <point x="496" y="-22" type="curve"/>
      <point x="428" y="-154" type="line"/>
      <point x="512" y="-175"/>
      <point x="555" y="-202"/>
      <point x="555" y="-252" type="curve" smooth="yes"/>
      <point x="555" y="-306"/>
      <point x="482" y="-335"/>
      <point x="376" y="-348" type="curve"/>
      <point x="393" y="-439" type="line"/>
      <point x="555" y="-426"/>
      <point x="702" y="-370"/>
      <point x="702" y="-247" type="curve" smooth="yes"/>
      <point x="702" y="-163"/>
      <point x="647" y="-122"/>
      <point x="581" y="-99" type="curve"/>
      <point x="618" y="-22" type="line"/>
      <point x="869" y="3"/>
      <point x="1020" y="165"/>
      <point x="1020" y="364" type="curve" smooth="yes"/>
      <point x="1020" y="561"/>
      <point x="903" y="656"/>
      <point x="746" y="723" type="curve" smooth="yes"/>
    </contour>
  </outline>
</glyph>
<glyph name="uni015F" format="1">
  <advance width="867"/>
  <unicode hex="015F"/>
  <outline>
    <contour>
      <point x="773" y="908" type="line" name="hr01"/>
      <point x="695" y="970"/>
      <point x="585" y="1024"/>
      <point x="455" y="1024" type="curve" smooth="yes"/>
      <point x="236" y="1024"/>
      <point x="104" y="900"/>
      <point x="104" y="734" type="curve" smooth="yes"/>
      <point x="104" y="566"/>
      <point x="258" y="496"/>
      <point x="395" y="446" type="curve" smooth="yes"/>
      <point x="504" y="405"/>
      <point x="620" y="363"/>
      <point x="620" y="266" type="curve" smooth="yes"/>
      <point x="620" y="186"/>
      <point x="559" y="123"/>
      <point x="435" y="123" type="curve" smooth="yes" name="hr02"/>
      <point x="322" y="123"/>
      <point x="235" y="171"/>
      <point x="148" y="240" type="curve"/>
      <point x="54" y="114" type="line"/>
      <point x="143" y="39"/>
      <point x="268" y="-15"/>
      <point x="397" y="-25" type="curve"/>
      <point x="332" y="-154" type="line"/>
      <point x="418" y="-175"/>
      <point x="461" y="-202"/>
      <point x="461" y="-252" type="curve" smooth="yes" name="hr03"/>
      <point x="461" y="-306"/>
      <point x="386" y="-335"/>
      <point x="281" y="-348" type="curve"/>
      <point x="299" y="-439" type="line"/>
      <point x="460" y="-426"/>
      <point x="606" y="-370"/>
      <point x="606" y="-247" type="curve" smooth="yes"/>
      <point x="606" y="-163"/>
      <point x="553" y="-122"/>
      <point x="485" y="-99" type="curve"/>
      <point x="525" y="-17" type="line"/>
      <point x="705" y="14"/>
      <point x="803" y="135"/>
      <point x="803" y="278" type="curve" smooth="yes" name="hr04"/>
      <point x="803" y="466"/>
      <point x="646" y="528"/>
      <point x="505" y="579" type="curve" smooth="yes"/>
      <point x="394" y="622"/>
      <point x="288" y="656"/>
      <point x="288" y="744" type="curve" smooth="yes"/>
      <point x="288" y="815"/>
      <point x="342" y="876"/>
      <point x="459" y="876" type="curve" smooth="yes"/>
      <point x="543" y="876"/>
      <point x="614" y="840"/>
      <point x="683" y="788" type="curve"/>
    </contour>
  </outline>
</glyph>
<glyph name="uni0163" format="1">
  <advance width="709"/>
  <unicode hex="0163"/>
  <outline>
    <contour>
      <point x="514" y="-25" type="line" name="hr01"/>
      <point x="528" y="-23"/>
      <point x="541" y="-22"/>
      <point x="554" y="-19" type="curve" smooth="yes"/>
      <point x="599" y="-12"/>
      <point x="644" y="0"/>
      <point x="681" y="12" type="curve"/>
      <point x="646" y="156" type="line" name="hr02"/>
      <point x="614" y="144"/>
      <point x="570" y="131"/>
      <point x="536" y="131" type="curve" smooth="yes"/>
      <point x="428" y="131"/>
      <point x="387" y="196"/>
      <point x="387" y="317" type="curve" smooth="yes"/>
      <point x="387" y="844" type="line"/>
      <point x="650" y="844" type="line"/>
      <point x="650" y="999" type="line"/>
      <point x="387" y="999" type="line"/>
      <point x="387" y="1276" type="line"/>
      <point x="225" y="1276" type="line"/>
      <point x="202" y="999" type="line"/>
      <point x="46" y="988" type="line"/>
      <point x="46" y="844" type="line"/>
      <point x="193" y="844" type="line"/>
      <point x="193" y="318" type="line"/>
      <point x="193" y="147"/>
      <point x="247" y="21"/>
      <point x="395" y="-13" type="curve" name="hr03"/>
      <point x="324" y="-154" type="line"/>
      <point x="409" y="-175"/>
      <point x="453" y="-202"/>
      <point x="453" y="-252" type="curve" smooth="yes"/>
      <point x="453" y="-306"/>
      <point x="377" y="-335"/>
      <point x="272" y="-348" type="curve"/>
      <point x="290" y="-439" type="line"/>
      <point x="451" y="-426"/>
      <point x="598" y="-370"/>
      <point x="598" y="-247" type="curve" smooth="yes"/>
      <point x="598" y="-163"/>
      <point x="544" y="-122"/>
      <point x="477" y="-99" type="curve" name="hr04"/>
    </contour>
  </outline>
</glyph>
<glyph name="uni0180" format="1">
  <advance width="1124"/>
  <unicode hex="0180"/>
  <outline>
    <contour>
      <point x="354" y="695" type="line" name="hr01"/>
      <point x="441" y="779"/>
      <point x="523" y="823"/>
      <point x="603" y="823" type="curve" smooth="yes"/>
      <point x="780" y="823"/>
      <point x="849" y="693"/>
      <point x="849" y="493" type="curve" smooth="yes"/>
      <point x="849" y="266"/>
      <point x="735" y="136"/>
      <point x="583" y="136" type="curve" smooth="yes"/>
      <point x="520" y="136"/>
      <point x="436" y="162"/>
      <point x="354" y="233" type="curve"/>
    </contour>
    <contour>
      <point x="354" y="1024" type="line"/>
      <point x="354" y="1164" type="line"/>
      <point x="722" y="1164" type="line"/>
      <point x="722" y="1271" type="line"/>
      <point x="354" y="1271" type="line"/>
      <point x="354" y="1454" type="line"/>
      <point x="162" y="1454" type="line"/>
      <point x="162" y="1271" type="line"/>
      <point x="12" y="1260" type="line"/>
      <point x="12" y="1164" type="line"/>
      <point x="162" y="1164" type="line"/>
      <point x="162" y="0" type="line" name="hr02"/>
      <point x="315" y="0" type="line"/>
      <point x="331" y="99" type="line"/>
      <point x="338" y="99" type="line"/>
      <point x="425" y="20"/>
      <point x="527" y="-25"/>
      <point x="619" y="-25" type="curve" smooth="yes" name="hr03"/>
      <point x="845" y="-25"/>
      <point x="1048" y="166"/>
      <point x="1048" y="496" type="curve" smooth="yes"/>
      <point x="1048" y="791"/>
      <point x="908" y="983"/>
      <point x="652" y="983" type="curve" smooth="yes"/>
      <point x="544" y="983"/>
      <point x="437" y="927"/>
      <point x="349" y="849" type="curve"/>
    </contour>
  </outline>
</glyph>
<glyph name="y.sups" format="1">
  <advance width="666"/>
  <unicode hex="02B8"/>
  <outline>
    <contour>
      <point x="81" y="387" type="curve" name="hr00"/>
      <point x="53" y="274" type="line"/>
      <point x="79" y="266"/>
      <point x="105" y="262"/>
      <point x="140" y="262" type="curve" smooth="yes"/>
      <point x="284" y="262"/>
      <point x="356" y="357"/>
      <point x="408" y="502" type="curve" smooth="yes"/>
      <point x="650" y="1195" type="line"/>
      <point x="511" y="1195" type="line"/>
      <point x="410" y="859" type="line"/>
      <point x="390" y="797"/>
      <point x="370" y="736"/>
      <point x="352" y="670" type="curve"/>
      <point x="344" y="670" type="line"/>
      <point x="324" y="736"/>
      <point x="304" y="798"/>
      <point x="283" y="859" type="curve" smooth="yes"/>
      <point x="160" y="1195" type="line"/>
      <point x="16" y="1195" type="line"/>
      <point x="284" y="540" type="line"/>
      <point x="270" y="501" type="line"/>
      <point x="247" y="429"/>
      <point x="201" y="376"/>
      <point x="130" y="376" type="curve" smooth="yes"/>
      <point x="114" y="376"/>
      <point x="100" y="379"/>
    </contour>
  </outline>
</glyph>
<glyph name="uni02BB" format="1">
  <advance width="529"/>
  <unicode hex="02BB"/>
  <outline>
    <contour>
      <point x="347" y="1420" type="line" name="hr01"/>
      <point x="196" y="1336"/>
      <point x="116" y="1212"/>
      <point x="116" y="1043" type="curve" smooth="yes"/>
      <point x="116" y="915"/>
      <point x="167" y="843"/>
      <point x="257" y="843" type="curve" smooth="yes" name="hr02"/>
      <point x="325" y="843"/>
      <point x="374" y="890"/>
      <point x="374" y="965" type="curve" smooth="yes"/>
      <point x="374" y="1038"/>
      <point x="317" y="1079"/>
      <point x="257" y="1079" type="curve" smooth="yes"/>
      <point x="251" y="1079"/>
      <point x="244" y="1079"/>
      <point x="238" y="1077" type="curve"/>
      <point x="238" y="1194"/>
      <point x="291" y="1265"/>
      <point x="399" y="1332" type="curve"/>
    </contour>
  </outline>
</glyph>
<glyph name="uni02BC" format="1">
  <advance width="529"/>
  <unicode hex="02BC"/>
  <outline>
    <contour>
      <point x="182" y="853" type="line" name="hr01"/>
      <point x="334" y="938"/>
      <point x="415" y="1060"/>
      <point x="415" y="1229" type="curve" smooth="yes"/>
      <point x="415" y="1358"/>
      <point x="362" y="1431"/>
      <point x="274" y="1431" type="curve" smooth="yes" name="hr02"/>
      <point x="206" y="1431"/>
      <point x="157" y="1384"/>
      <point x="157" y="1307" type="curve" smooth="yes"/>
      <point x="157" y="1236"/>
      <point x="212" y="1195"/>
      <point x="274" y="1195" type="curve" smooth="yes"/>
      <point x="280" y="1195"/>
      <point x="285" y="1195"/>
      <point x="292" y="1198" type="curve"/>
      <point x="292" y="1078"/>
      <point x="238" y="1007"/>
      <point x="132" y="941" type="curve"/>
    </contour>
  </outline>
</glyph>
<glyph name="uni02BF" format="1">
  <advance width="334"/>
  <unicode hex="02BF"/>
  <outline>
    <contour>
      <point x="272" y="1498" type="line" name="hr00"/>
      <point x="121" y="1503"/>
      <point x="38" y="1425"/>
      <point x="38" y="1306" type="curve" smooth="yes"/>
      <point x="38" y="1186"/>
      <point x="121" y="1107"/>
      <point x="272" y="1112" type="curve"/>
      <point x="272" y="1193" type="line"/>
      <point x="179" y="1193"/>
      <point x="144" y="1239"/>
      <point x="144" y="1306" type="curve" smooth="yes"/>
      <point x="144" y="1372"/>
      <point x="179" y="1418"/>
      <point x="272" y="1418" type="curve"/>
    </contour>
  </outline>
</glyph>
<glyph name="circumflex" format="1">
  <advance width="1115"/>
  <unicode hex="02C6"/>
  <outline>
    <contour>
      <point x="285" y="1174" type="line" name="hr00"/>
      <point x="422" y="1174" type="line"/>
      <point x="554" y="1356" type="line"/>
      <point x="562" y="1356" type="line"/>
      <point x="693" y="1174" type="line"/>
      <point x="831" y="1174" type="line"/>
      <point x="637" y="1466" type="line"/>
      <point x="478" y="1466" type="line"/>
    </contour>
    <contour>
      <point x="558" y="1050" type="move" name="_top"/>
    </contour>
  </outline>
</glyph>
<glyph name="uni02CA" format="1">
  <advance width="465"/>
  <unicode hex="02CA"/>
  <outline>
    <contour>
      <point x="472" y="1466" type="line" name="hr00"/>
      <point x="275" y="1466" type="line"/>
      <point x="90" y="1174" type="line"/>
      <point x="236" y="1174" type="line"/>
    </contour>
  </outline>
</glyph>
<glyph name="uni02CB" format="1">
  <advance width="465"/>
  <unicode hex="02CB"/>
  <outline>
    <contour>
      <point x="223" y="1174" type="line" name="hr00"/>
      <point x="369" y="1174" type="line"/>
      <point x="185" y="1466" type="line"/>
      <point x="-12" y="1466" type="line"/>
    </contour>
  </outline>
</glyph>
<glyph name="dotaccent" format="1">
  <advance width="1115"/>
  <unicode hex="02D9"/>
  <outline>
    <contour>
      <point x="558" y="1194" type="curve" smooth="yes" name="hr00"/>
      <point x="627" y="1194"/>
      <point x="679" y="1242"/>
      <point x="679" y="1313" type="curve" smooth="yes"/>
      <point x="679" y="1382"/>
      <point x="627" y="1432"/>
      <point x="558" y="1432" type="curve" smooth="yes"/>
      <point x="488" y="1432"/>
      <point x="436" y="1382"/>
      <point x="436" y="1313" type="curve" smooth="yes"/>
      <point x="436" y="1242"/>
      <point x="488" y="1194"/>
    </contour>
    <contour>
      <point x="557" y="1050" type="move" name="_top"/>
    </contour>
  </outline>
</glyph>
<glyph name="ring" format="1">
  <advance width="1115"/>
  <unicode hex="02DA"/>
  <outline>
    <contour>
      <point x="558" y="1112" type="curve" smooth="yes" name="hr00"/>
      <point x="674" y="1112"/>
      <point x="757" y="1189"/>
      <point x="757" y="1306" type="curve" smooth="yes"/>
      <point x="757" y="1421"/>
      <point x="674" y="1498"/>
      <point x="558" y="1498" type="curve" smooth="yes"/>
      <point x="441" y="1498"/>
      <point x="360" y="1421"/>
      <point x="360" y="1306" type="curve" smooth="yes"/>
      <point x="360" y="1189"/>
      <point x="441" y="1112"/>
    </contour>
    <contour>
      <point x="558" y="1195" type="curve" smooth="yes"/>
      <point x="504" y="1195"/>
      <point x="462" y="1239"/>
      <point x="462" y="1306" type="curve" smooth="yes"/>
      <point x="462" y="1372"/>
      <point x="504" y="1416"/>
      <point x="558" y="1416" type="curve" smooth="yes"/>
      <point x="611" y="1416"/>
      <point x="653" y="1372"/>
      <point x="653" y="1306" type="curve" smooth="yes"/>
      <point x="653" y="1239"/>
      <point x="611" y="1195"/>
    </contour>
    <contour>
      <point x="558" y="1050" type="move" name="_top"/>
    </contour>
  </outline>
</glyph>
<glyph name="uni0300" format="1">
  <advance width="0"/>
  <unicode hex="0300"/>
  <outline>
    <contour>
      <point x="-6" y="1174" type="line" name="hr00"/>
      <point x="139" y="1174" type="line"/>
      <point x="-44" y="1466" type="line"/>
      <point x="-241" y="1466" type="line"/>
    </contour>
  </outline>
</glyph>
<glyph name="uni0306" format="1">
  <advance width="600"/>
  <unicode hex="0306"/>
  <outline>
    <contour>
      <point x="0" y="1178" type="curve" smooth="yes"/>
      <point x="179" y="1178"/>
      <point x="255" y="1316"/>
      <point x="263" y="1442" type="curve"/>
      <point x="147" y="1442" type="line"/>
      <point x="137" y="1365"/>
      <point x="92" y="1293"/>
      <point x="0" y="1293" type="curve" smooth="yes"/>
      <point x="-92" y="1293"/>
      <point x="-137" y="1365"/>
      <point x="-147" y="1442" type="curve"/>
      <point x="-263" y="1442" type="line"/>
      <point x="-255" y="1316"/>
      <point x="-179" y="1178"/>
    </contour>
    <contour>
      <point x="0" y="1044" type="move" name="_mark0"/>
    </contour>
  </outline>
</glyph>
<glyph name="uni030B" format="1">
  <advance width="600"/>
  <unicode hex="030B"/>
  <outline>
    <contour>
      <point x="-211" y="1170" type="line"/>
      <point x="-85" y="1170" type="line"/>
      <point x="98" y="1466" type="line"/>
      <point x="-68" y="1466" type="line"/>
    </contour>
    <contour>
      <point x="99" y="1170" type="line"/>
      <point x="225" y="1170" type="line"/>
      <point x="408" y="1466" type="line"/>
      <point x="244" y="1466" type="line"/>
    </contour>
    <contour>
      <point x="0" y="1044" type="move" name="_mark0"/>
    </contour>
  </outline>
</glyph>
<glyph name="uni030C" format="1">
  <advance width="600"/>
  <unicode hex="030C"/>
  <outline>
    <contour>
      <point x="-79" y="1174" type="line"/>
      <point x="79" y="1174" type="line"/>
      <point x="273" y="1466" type="line"/>
      <point x="136" y="1466" type="line"/>
      <point x="4" y="1283" type="line"/>
      <point x="-4" y="1283" type="line"/>
      <point x="-136" y="1466" type="line"/>
      <point x="-273" y="1466" type="line"/>
    </contour>
    <contour>
      <point x="0" y="1044" type="move" name="_mark0"/>
    </contour>
  </outline>
</glyph>
<glyph name="uni030F" format="1">
  <advance width="0"/>
  <unicode hex="030F"/>
  <outline>
    <contour>
      <point x="68" y="1466" type="line" name="hr00"/>
      <point x="-98" y="1466" type="line"/>
      <point x="85" y="1170" type="line"/>
      <point x="211" y="1170" type="line"/>
    </contour>
    <contour>
      <point x="-244" y="1466" type="line"/>
      <point x="-408" y="1466" type="line"/>
      <point x="-225" y="1170" type="line"/>
      <point x="-99" y="1170" type="line"/>
    </contour>
  </outline>
</glyph>
<glyph name="uni031B" format="1">
  <advance width="0"/>
  <unicode hex="031B"/>
  <outline>
    <contour>
      <point x="-1" y="888" type="line" name="hr00"/>
      <point x="171" y="903"/>
      <point x="303" y="973"/>
      <point x="303" y="1126" type="curve" smooth="yes"/>
      <point x="303" y="1181"/>
      <point x="281" y="1228"/>
      <point x="254" y="1265" type="curve"/>
      <point x="117" y="1200" type="line"/>
      <point x="133" y="1174"/>
      <point x="147" y="1144"/>
      <point x="147" y="1112" type="curve" smooth="yes"/>
      <point x="147" y="1029"/>
      <point x="90" y="994"/>
      <point x="-18" y="979" type="curve"/>
    </contour>
  </outline>
</glyph>
<glyph name="uni0323" format="1">
  <advance width="0"/>
  <unicode hex="0323"/>
  <outline>
    <contour>
      <point x="0" y="-430" type="curve" smooth="yes" name="hr01"/>
      <point x="69" y="-430"/>
      <point x="121" y="-381"/>
      <point x="121" y="-310" type="curve" smooth="yes"/>
      <point x="121" y="-242"/>
      <point x="69" y="-193"/>
      <point x="0" y="-193" type="curve" smooth="yes" name="hr02"/>
      <point x="-69" y="-193"/>
      <point x="-121" y="-242"/>
      <point x="-121" y="-310" type="curve" smooth="yes"/>
      <point x="-121" y="-381"/>
      <point x="-69" y="-430"/>
    </contour>
  </outline>
</glyph>
<glyph name="uni0327" format="1">
  <advance width="0"/>
  <unicode hex="0327"/>
  <outline>
    <contour>
      <point x="-129" y="-154" type="line" name="hr00"/>
      <point x="-45" y="-175"/>
      <point x="-1" y="-202"/>
      <point x="-1" y="-252" type="curve" smooth="yes"/>
      <point x="-1" y="-306"/>
      <point x="-75" y="-335"/>
      <point x="-181" y="-348" type="curve"/>
      <point x="-163" y="-439" type="line"/>
      <point x="-1" y="-426"/>
      <point x="145" y="-370"/>
      <point x="145" y="-247" type="curve" smooth="yes"/>
      <point x="145" y="-163"/>
      <point x="92" y="-122"/>
      <point x="25" y="-99" type="curve"/>
      <point x="75" y="6" type="line"/>
      <point x="-47" y="6" type="line"/>
    </contour>
  </outline>
</glyph>
<glyph name="uni0328" format="1">
  <advance width="0"/>
  <unicode hex="0328"/>
  <outline>
    <contour>
      <point x="-143" y="-247" type="curve" smooth="yes" name="hr00"/>
      <point x="-143" y="-363"/>
      <point x="-58" y="-423"/>
      <point x="48" y="-423" type="curve" smooth="yes"/>
      <point x="101" y="-423"/>
      <point x="176" y="-398"/>
      <point x="218" y="-366" type="curve"/>
      <point x="169" y="-273" type="line"/>
      <point x="147" y="-288"/>
      <point x="121" y="-299"/>
      <point x="89" y="-299" type="curve" smooth="yes"/>
      <point x="41" y="-299"/>
      <point x="-3" y="-270"/>
      <point x="-3" y="-207" type="curve" smooth="yes"/>
      <point x="-3" y="-131"/>
      <point x="45" y="-58"/>
      <point x="130" y="6" type="curve"/>
      <point x="2" y="6" type="line"/>
      <point x="-62" y="-43"/>
      <point x="-143" y="-134"/>
    </contour>
  </outline>
</glyph>
<glyph name="pi" format="1">
  <advance width="1166"/>
  <unicode hex="03C0"/>
  <outline>
    <contour>
      <point x="223" y="0" type="line" name="hr01"/>
      <point x="413" y="0" type="line"/>
      <point x="413" y="842" type="line"/>
      <point x="761" y="842" type="line"/>
      <point x="761" y="248" type="line"/>
      <point x="761" y="82"/>
      <point x="817" y="-25"/>
      <point x="975" y="-25" type="curve" smooth="yes" name="hr02"/>
      <point x="1025" y="-25"/>
      <point x="1062" y="-17"/>
      <point x="1095" y="-3" type="curve"/>
      <point x="1071" y="143" type="line"/>
      <point x="1051" y="137"/>
      <point x="1037" y="134"/>
      <point x="1023" y="134" type="curve" smooth="yes"/>
      <point x="980" y="134"/>
      <point x="955" y="170"/>
      <point x="955" y="236" type="curve" smooth="yes"/>
      <point x="955" y="842" type="line"/>
      <point x="1104" y="842" type="line"/>
      <point x="1104" y="999" type="line"/>
      <point x="190" y="999" type="line"/>
      <point x="47" y="988" type="line"/>
      <point x="47" y="842" type="line"/>
      <point x="223" y="842" type="line"/>
    </contour>
  </outline>
</glyph>
<glyph name="candraBindu-deva" format="1">
  <advance width="540"/>
  <unicode hex="0901"/>
  <outline>
    <component base="eCandraMatra-deva" xOffset="1"/>
    <component base="anusvara-deva" xOffset="8" yOffset="170"/>
    <contour>
      <point x="275" y="1167" type="move" name="_topcandra"/>
    </contour>
  </outline>
</glyph>
<glyph name="anusvara-deva" format="1">
  <advance width="540"/>
  <unicode hex="0902"/>
  <outline>
    <contour>
      <point x="195" y="1640"/>
      <point x="162" y="1609"/>
      <point x="162" y="1534" type="curve" smooth="yes"/>
      <point x="162" y="1460"/>
      <point x="195" y="1429"/>
      <point x="270" y="1429" type="curve" smooth="yes"/>
      <point x="345" y="1429"/>
      <point x="377" y="1460"/>
      <point x="377" y="1534" type="curve" smooth="yes"/>
      <point x="377" y="1609"/>
      <point x="345" y="1640"/>
      <point x="270" y="1640" type="curve" smooth="yes"/>
    </contour>
    <contour>
      <point x="270" y="1167" type="move" name="_top"/>
    </contour>
  </outline>
</glyph>
<glyph name="u-deva" format="1">
  <advance width="877"/>
  <unicode hex="0909"/>
  <outline>
    <contour>
      <point x="310" y="653" type="line"/>
      <point x="518" y="593"/>
      <point x="621" y="521"/>
      <point x="621" y="371" type="curve" smooth="yes"/>
      <point x="621" y="252"/>
      <point x="539" y="175"/>
      <point x="409" y="175" type="curve" smooth="yes"/>
      <point x="293" y="175"/>
      <point x="188" y="226"/>
      <point x="104" y="295" type="curve"/>
      <point x="18" y="179" type="line"/>
      <point x="116" y="76"/>
      <point x="262" y="8"/>
      <point x="422" y="8" type="curve" smooth="yes"/>
      <point x="638" y="8"/>
      <point x="809" y="142"/>
      <point x="809" y="360" type="curve" smooth="yes"/>
      <point x="809" y="557"/>
      <point x="664" y="669"/>
      <point x="416" y="694" type="curve"/>
    </contour>
    <contour>
      <point x="394" y="1122" type="line"/>
      <point x="476" y="1122"/>
      <point x="577" y="1071"/>
      <point x="577" y="948" type="curve" smooth="yes"/>
      <point x="577" y="838"/>
      <point x="512" y="759"/>
      <point x="325" y="732" type="curve" smooth="yes"/>
      <point x="303" y="729"/>
      <point x="288" y="727"/>
      <point x="251" y="723" type="curve"/>
      <point x="272" y="570" type="line"/>
      <point x="360" y="570"/>
      <point x="473" y="584"/>
      <point x="569" y="645" type="curve" smooth="yes"/>
      <point x="691" y="717"/>
      <point x="758" y="808"/>
      <point x="758" y="951" type="curve" smooth="yes"/>
      <point x="758" y="1163"/>
      <point x="531" y="1212"/>
      <point x="392" y="1202" type="curve"/>
    </contour>
    <contour>
      <point x="894" y="1277" type="line"/>
      <point x="-18" y="1277" type="line"/>
      <point x="-18" y="1114" type="line"/>
      <point x="894" y="1114" type="line"/>
    </contour>
    <contour>
      <point x="471" y="1167" type="move" name="top"/>
    </contour>
    <contour>
      <point x="420" y="62" type="move" name="bottom"/>
    </contour>
    <contour>
      <point x="475" y="1167" type="move" name="topcandra"/>
    </contour>
  </outline>
</glyph>
<glyph name="lVocalic-deva" format="1">
  <advance width="1266"/>
  <unicode hex="090C"/>
  <outline>
    <contour>
      <point x="676" y="937"/>
      <point x="556" y="781"/>
      <point x="556" y="575" type="curve" smooth="yes"/>
      <point x="556" y="534"/>
      <point x="560" y="493"/>
      <point x="574" y="455" type="curve"/>
      <point x="739" y="473" type="line"/>
      <point x="735" y="503"/>
      <point x="732" y="530"/>
      <point x="732" y="558" type="curve" smooth="yes"/>
      <point x="732" y="679"/>
      <point x="789" y="763"/>
      <point x="892" y="763" type="curve" smooth="yes"/>
      <point x="985" y="763"/>
      <point x="1029" y="679"/>
      <point x="1029" y="563" type="curve" smooth="yes"/>
      <point x="1029" y="477"/>
      <point x="1018" y="403"/>
      <point x="959" y="275" type="curve"/>
      <point x="1001" y="330" type="line"/>
      <point x="819" y="261"/>
      <point x="746" y="157"/>
      <point x="746" y="50" type="curve"/>
      <point x="746" y="-77"/>
      <point x="845" y="-200"/>
      <point x="1022" y="-200" type="curve" smooth="yes"/>
      <point x="1130" y="-200"/>
      <point x="1235" y="-161"/>
      <point x="1313" y="-104" type="curve"/>
      <point x="1250" y="24" type="line"/>
      <point x="1184" y="-20"/>
      <point x="1106" y="-51"/>
      <point x="1034" y="-51" type="curve" smooth="yes"/>
      <point x="942" y="-51"/>
      <point x="918" y="1"/>
      <point x="918" y="49" type="curve" smooth="yes"/>
      <point x="918" y="119"/>
      <point x="988" y="178"/>
      <point x="1125" y="227" type="curve"/>
      <point x="1181" y="346"/>
      <point x="1207" y="457"/>
      <point x="1207" y="556" type="curve" smooth="yes"/>
      <point x="1207" y="791"/>
      <point x="1094" y="937"/>
      <point x="884" y="937" type="curve" smooth="yes"/>
    </contour>
    <contour>
      <point x="-18" y="1277" type="line"/>
      <point x="-18" y="1114" type="line"/>
      <point x="1283" y="1114" type="line"/>
      <point x="1283" y="1277" type="line"/>
    </contour>
    <contour>
      <point x="858" y="1170" type="line"/>
      <point x="858" y="838" type="line"/>
      <point x="1048" y="838" type="line"/>
      <point x="1048" y="1170" type="line"/>
    </contour>
    <contour>
      <point x="171" y="935"/>
      <point x="59" y="814"/>
      <point x="59" y="600" type="curve" smooth="yes"/>
      <point x="59" y="339"/>
      <point x="220" y="132"/>
      <point x="310" y="26" type="curve"/>
      <point x="445" y="140" type="line"/>
      <point x="338" y="278"/>
      <point x="245" y="419"/>
      <point x="245" y="574" type="curve" smooth="yes"/>
      <point x="245" y="716"/>
      <point x="318" y="760"/>
      <point x="389" y="760" type="curve" smooth="yes"/>
      <point x="498" y="760"/>
      <point x="569" y="675"/>
      <point x="642" y="550" type="curve"/>
      <point x="665" y="675" type="line"/>
      <point x="592" y="860"/>
      <point x="490" y="935"/>
      <point x="346" y="935" type="curve" smooth="yes"/>
    </contour>
    <contour>
      <point x="953" y="1167" type="move" name="top"/>
    </contour>
    <contour>
      <point x="730" y="-61" type="move" name="bottom"/>
    </contour>
    <contour>
      <point x="642" y="1167" type="move" name="topcandra"/>
    </contour>
  </outline>
</glyph>
<glyph name="ai-deva" format="1">
  <advance width="1049"/>
  <unicode hex="0910"/>
  <outline>
    <component base="e-deva"/>
    <component base="eMatra-deva" xOffset="555"/>
    <contour>
      <point x="1052" y="1336" type="move" name="topcandra"/>
    </contour>
  </outline>
</glyph>
<glyph name="ga-deva" format="1">
  <advance width="1144"/>
  <unicode hex="0917"/>
  <outline>
    <contour>
      <point x="769" y="1229" type="line"/>
      <point x="769" y="1" type="line"/>
      <point x="958" y="1" type="line"/>
      <point x="958" y="1229" type="line"/>
    </contour>
    <contour>
      <point x="273" y="718" type="line"/>
      <point x="88" y="696" type="line"/>
      <point x="88" y="566" type="line"/>
      <point x="269" y="365" type="line"/>
      <point x="396" y="366"/>
      <point x="423" y="427"/>
      <point x="423" y="503" type="curve" smooth="yes"/>
      <point x="423" y="718" type="line"/>
    </contour>
    <contour>
      <point x="233" y="1180" type="line"/>
      <point x="233" y="479" type="line"/>
      <point x="422" y="645" type="line"/>
      <point x="422" y="1180" type="line"/>
    </contour>
    <contour>
      <point x="-18" y="1277" type="line"/>
      <point x="-18" y="1114" type="line"/>
      <point x="1161" y="1114" type="line"/>
      <point x="1161" y="1277" type="line"/>
    </contour>
    <contour>
      <point x="328" y="101" type="move" name="nukta"/>
    </contour>
    <contour>
      <point x="864" y="1167" type="move" name="top"/>
    </contour>
    <contour>
      <point x="611" y="1167" type="move" name="topcandra"/>
    </contour>
    <contour>
      <point x="864" y="27" type="move" name="bottom"/>
    </contour>
  </outline>
</glyph>
<glyph name="gha-deva" format="1">
  <advance width="1187"/>
  <unicode hex="0918"/>
  <outline>
    <contour>
      <point x="218" y="830"/>
      <point x="120" y="679"/>
      <point x="120" y="522" type="curve" smooth="yes"/>
      <point x="120" y="336"/>
      <point x="244" y="213"/>
      <point x="473" y="213" type="curve" smooth="yes"/>
      <point x="669" y="213"/>
      <point x="827" y="289"/>
      <point x="920" y="397" type="curve"/>
      <point x="892" y="588" type="line"/>
      <point x="803" y="461"/>
      <point x="646" y="377"/>
      <point x="488" y="377" type="curve" smooth="yes"/>
      <point x="369" y="377"/>
      <point x="313" y="420"/>
      <point x="313" y="524" type="curve" smooth="yes"/>
      <point x="313" y="633"/>
      <point x="390" y="669"/>
      <point x="553" y="684" type="curve"/>
      <point x="545" y="837" type="line"/>
    </contour>
    <contour>
      <point x="291" y="1227"/>
      <point x="69" y="1183"/>
      <point x="69" y="981" type="curve" smooth="yes"/>
      <point x="69" y="868"/>
      <point x="137" y="776"/>
      <point x="357" y="682" type="curve"/>
      <point x="445" y="754" type="line"/>
      <point x="360" y="797"/>
      <point x="260" y="851"/>
      <point x="260" y="970" type="curve" smooth="yes"/>
      <point x="260" y="1078"/>
      <point x="342" y="1107"/>
      <point x="470" y="1118" type="curve"/>
      <point x="487" y="1234" type="line"/>
    </contour>
    <contour>
      <point x="813" y="1197" type="line"/>
      <point x="813" y="0" type="line"/>
      <point x="1002" y="0" type="line"/>
      <point x="1002" y="1197" type="line"/>
    </contour>
    <contour>
      <point x="-18" y="1277" type="line"/>
      <point x="-18" y="1114" type="line"/>
      <point x="1204" y="1114" type="line"/>
      <point x="1204" y="1277" type="line"/>
    </contour>
    <contour>
      <point x="225" y="72" type="move" name="nukta"/>
    </contour>
    <contour>
      <point x="911" y="1167" type="move" name="top"/>
    </contour>
    <contour>
      <point x="649" y="1167" type="move" name="topcandra"/>
    </contour>
    <contour>
      <point x="909" y="27" type="move" name="bottom"/>
    </contour>
  </outline>
</glyph>
<glyph name="nga-deva" format="1">
  <advance width="1158"/>
  <unicode hex="0919"/>
  <outline>
    <contour>
      <point x="858" y="1277" type="line"/>
      <point x="858" y="1114" type="line"/>
      <point x="1176" y="1114" type="line"/>
      <point x="1176" y="1277" type="line"/>
    </contour>
    <contour>
      <point x="951" y="753"/>
      <point x="918" y="722"/>
      <point x="918" y="647" type="curve" smooth="yes"/>
      <point x="918" y="573"/>
      <point x="951" y="542"/>
      <point x="1026" y="542" type="curve" smooth="yes"/>
      <point x="1101" y="542"/>
      <point x="1133" y="573"/>
      <point x="1133" y="647" type="curve" smooth="yes"/>
      <point x="1133" y="722"/>
      <point x="1101" y="753"/>
      <point x="1026" y="753" type="curve" smooth="yes"/>
    </contour>
    <component base="dda-deva"/>
    <contour>
      <point x="747" y="1167" type="move" name="top"/>
    </contour>
    <contour>
      <point x="557" y="-122" type="move" name="bottom"/>
    </contour>
    <contour>
      <point x="571" y="1167" type="move" name="topcandra"/>
    </contour>
  </outline>
</glyph>
<glyph name="ca-deva" format="1">
  <advance width="1251"/>
  <unicode hex="091A"/>
  <outline>
    <contour>
      <point x="37" y="905" type="line"/>
      <point x="37" y="746" type="line"/>
      <point x="701" y="746" type="line"/>
      <point x="701" y="906" type="line"/>
    </contour>
    <contour>
      <point x="475" y="802" type="line"/>
      <point x="284" y="774"/>
      <point x="193" y="661"/>
      <point x="193" y="517" type="curve" smooth="yes"/>
      <point x="193" y="336"/>
      <point x="316" y="204"/>
      <point x="562" y="202" type="curve" smooth="yes"/>
      <point x="750" y="201"/>
      <point x="897" y="283"/>
      <point x="990" y="393" type="curve"/>
      <point x="962" y="581" type="line"/>
      <point x="872" y="455"/>
      <point x="732" y="363"/>
      <point x="576" y="365" type="curve" smooth="yes"/>
      <point x="436" y="367"/>
      <point x="387" y="430"/>
      <point x="387" y="538" type="curve" smooth="yes"/>
      <point x="387" y="656"/>
      <point x="500" y="758"/>
      <point x="655" y="746" type="curve"/>
      <point x="625" y="815" type="line"/>
    </contour>
    <contour>
      <point x="877" y="1181" type="line"/>
      <point x="877" y="0" type="line"/>
      <point x="1066" y="0" type="line"/>
      <point x="1066" y="1181" type="line"/>
    </contour>
    <contour>
      <point x="-18" y="1277" type="line"/>
      <point x="-18" y="1114" type="line"/>
      <point x="1268" y="1114" type="line"/>
      <point x="1268" y="1277" type="line"/>
    </contour>
    <contour>
      <point x="240" y="72" type="move" name="nukta"/>
    </contour>
    <contour>
      <point x="971" y="1167" type="move" name="top"/>
    </contour>
    <contour>
      <point x="650" y="1167" type="move" name="topcandra"/>
    </contour>
    <contour>
      <point x="972" y="27" type="move" name="bottom"/>
    </contour>
  </outline>
</glyph>
<glyph name="tta-deva" format="1">
  <advance width="1015"/>
  <unicode hex="091F"/>
  <outline>
    <contour>
      <point x="679" y="1159" type="line"/>
      <point x="679" y="845" type="line"/>
      <point x="759" y="875" type="line"/>
      <point x="691" y="899"/>
      <point x="583" y="906"/>
      <point x="538" y="906" type="curve" smooth="yes"/>
      <point x="238" y="906"/>
      <point x="69" y="768"/>
      <point x="69" y="480" type="curve" smooth="yes"/>
      <point x="69" y="169"/>
      <point x="293" y="16"/>
      <point x="585" y="16" type="curve" smooth="yes"/>
      <point x="731" y="16"/>
      <point x="877" y="49"/>
      <point x="972" y="105" type="curve"/>
      <point x="923" y="263" type="line"/>
      <point x="817" y="219"/>
      <point x="699" y="185"/>
      <point x="571" y="185" type="curve" smooth="yes"/>
      <point x="365" y="185"/>
      <point x="266" y="267"/>
      <point x="267" y="472" type="curve" smooth="yes"/>
      <point x="268" y="662"/>
      <point x="365" y="736"/>
      <point x="602" y="738" type="curve" smooth="yes"/>
      <point x="669" y="739"/>
      <point x="799" y="734"/>
      <point x="868" y="731" type="curve"/>
      <point x="868" y="1159" type="line"/>
    </contour>
    <contour>
      <point x="-18" y="1277" type="line"/>
      <point x="-18" y="1114" type="line"/>
      <point x="1032" y="1114" type="line"/>
      <point x="1032" y="1277" type="line"/>
    </contour>
    <contour>
      <point x="21" y="72" type="move" name="nukta"/>
    </contour>
    <contour>
      <point x="774" y="1167" type="move" name="top"/>
    </contour>
    <contour>
      <point x="551" y="1167" type="move" name="topcandra"/>
    </contour>
    <contour>
      <point x="606" y="51" type="move" name="bottom"/>
    </contour>
  </outline>
</glyph>
<glyph name="dda-deva" format="1">
  <advance width="1039"/>
  <unicode hex="0921"/>
  <outline>
    <contour>
      <point x="384" y="929" type="line" smooth="yes"/>
      <point x="177" y="927"/>
      <point x="98" y="847"/>
      <point x="98" y="706" type="curve" smooth="yes"/>
      <point x="98" y="583"/>
      <point x="156" y="438"/>
      <point x="223" y="384" type="curve" smooth="yes"/>
      <point x="255" y="359"/>
      <point x="278" y="355"/>
      <point x="309" y="359" type="curve" smooth="yes"/>
      <point x="371" y="366"/>
      <point x="559" y="386"/>
      <point x="646" y="386" type="curve" smooth="yes"/>
      <point x="766" y="386"/>
      <point x="797" y="346"/>
      <point x="796" y="275" type="curve" smooth="yes"/>
      <point x="795" y="189"/>
      <point x="741" y="112"/>
      <point x="535" y="112" type="curve" smooth="yes"/>
      <point x="346" y="112"/>
      <point x="225" y="184"/>
      <point x="113" y="266" type="curve"/>
      <point x="37" y="151" type="line"/>
      <point x="153" y="33"/>
      <point x="339" y="-56"/>
      <point x="548" y="-56" type="curve" smooth="yes"/>
      <point x="800" y="-56"/>
      <point x="972" y="65"/>
      <point x="972" y="296" type="curve" smooth="yes"/>
      <point x="972" y="521"/>
      <point x="818" y="558"/>
      <point x="657" y="557" type="curve" smooth="yes"/>
      <point x="534" y="557"/>
      <point x="342" y="536"/>
      <point x="280" y="522" type="curve"/>
      <point x="305" y="513" type="line"/>
      <point x="285" y="544"/>
      <point x="267" y="601"/>
      <point x="267" y="655" type="curve" smooth="yes"/>
      <point x="267" y="729"/>
      <point x="297" y="761"/>
      <point x="420" y="761" type="curve" smooth="yes"/>
      <point x="772" y="761" type="line"/>
      <point x="751" y="929" type="line"/>
    </contour>
    <contour>
      <point x="-18" y="1277" type="line"/>
      <point x="-18" y="1114" type="line"/>
      <point x="1056" y="1114" type="line"/>
      <point x="1056" y="1277" type="line"/>
    </contour>
    <contour>
      <point x="655" y="1181" type="line"/>
      <point x="655" y="761" type="line"/>
      <point x="842" y="761" type="line"/>
      <point x="842" y="1181" type="line"/>
    </contour>
    <contour>
      <point x="536" y="-219" type="move" name="nukta"/>
    </contour>
    <contour>
      <point x="752" y="1167" type="move" name="top"/>
    </contour>
    <contour>
      <point x="538" y="1167" type="move" name="topcandra"/>
    </contour>
    <contour>
      <point x="543" y="-136" type="move" name="bottom"/>
    </contour>
  </outline>
</glyph>
<glyph name="ddha-deva" format="1">
  <advance width="1079"/>
  <unicode hex="0922"/>
  <outline>
    <contour>
      <point x="679" y="1159" type="line"/>
      <point x="679" y="847" type="line"/>
      <point x="767" y="875" type="line"/>
      <point x="695" y="900"/>
      <point x="589" y="906"/>
      <point x="538" y="906" type="curve" smooth="yes"/>
      <point x="238" y="906"/>
      <point x="69" y="772"/>
      <point x="69" y="482" type="curve" smooth="yes"/>
      <point x="69" y="175"/>
      <point x="271" y="21"/>
      <point x="560" y="21" type="curve" smooth="yes"/>
      <point x="742" y="21"/>
      <point x="1018" y="83"/>
      <point x="1018" y="347" type="curve" smooth="yes"/>
      <point x="1018" y="512"/>
      <point x="903" y="588"/>
      <point x="753" y="588" type="curve" smooth="yes"/>
      <point x="575" y="588"/>
      <point x="505" y="477"/>
      <point x="505" y="385" type="curve" smooth="yes"/>
      <point x="505" y="285"/>
      <point x="546" y="221"/>
      <point x="629" y="150" type="curve"/>
      <point x="758" y="176" type="line"/>
      <point x="693" y="241"/>
      <point x="667" y="287"/>
      <point x="667" y="348" type="curve" smooth="yes"/>
      <point x="667" y="397"/>
      <point x="694" y="445"/>
      <point x="758" y="445" type="curve" smooth="yes"/>
      <point x="812" y="445"/>
      <point x="859" y="431"/>
      <point x="859" y="357" type="curve" smooth="yes"/>
      <point x="859" y="237"/>
      <point x="764" y="179"/>
      <point x="596" y="176" type="curve" smooth="yes"/>
      <point x="357" y="171"/>
      <point x="267" y="244"/>
      <point x="267" y="472" type="curve" smooth="yes"/>
      <point x="267" y="665"/>
      <point x="366" y="737"/>
      <point x="602" y="738" type="curve" smooth="yes"/>
      <point x="662" y="739"/>
      <point x="792" y="734"/>
      <point x="868" y="731" type="curve"/>
      <point x="868" y="1159" type="line"/>
    </contour>
    <contour>
      <point x="-18" y="1277" type="line"/>
      <point x="-18" y="1114" type="line"/>
      <point x="1096" y="1114" type="line"/>
      <point x="1096" y="1277" type="line"/>
    </contour>
    <contour>
      <point x="25" y="72" type="move" name="nukta"/>
    </contour>
    <contour>
      <point x="771" y="1167" type="move" name="top"/>
    </contour>
    <contour>
      <point x="551" y="1167" type="move" name="topcandra"/>
    </contour>
    <contour>
      <point x="568" y="51" type="move" name="bottom"/>
    </contour>
  </outline>
</glyph>
<glyph name="nna-deva" format="1">
  <advance width="1536"/>
  <unicode hex="0923"/>
  <outline>
    <contour>
      <point x="699" y="1167" type="line"/>
      <point x="699" y="691" type="line" smooth="yes"/>
      <point x="699" y="553"/>
      <point x="650" y="475"/>
      <point x="501" y="475" type="curve" smooth="yes"/>
      <point x="363" y="475"/>
      <point x="317" y="550"/>
      <point x="317" y="687" type="curve" smooth="yes"/>
      <point x="317" y="1167" type="line"/>
      <point x="128" y="1167" type="line"/>
      <point x="128" y="703" type="line" smooth="yes"/>
      <point x="128" y="446"/>
      <point x="252" y="305"/>
      <point x="504" y="305" type="curve" smooth="yes"/>
      <point x="754" y="305"/>
      <point x="888" y="444"/>
      <point x="888" y="701" type="curve" smooth="yes"/>
      <point x="888" y="1167" type="line"/>
    </contour>
    <contour>
      <point x="1162" y="1211" type="line"/>
      <point x="1162" y="1" type="line"/>
      <point x="1351" y="1" type="line"/>
      <point x="1351" y="1211" type="line"/>
    </contour>
    <contour>
      <point x="-18" y="1277" type="line"/>
      <point x="-18" y="1114" type="line"/>
      <point x="1553" y="1114" type="line"/>
      <point x="1553" y="1277" type="line"/>
    </contour>
    <contour>
      <point x="268" y="72" type="move" name="nukta"/>
    </contour>
    <contour>
      <point x="1256" y="1167" type="move" name="top"/>
    </contour>
    <contour>
      <point x="765" y="1167" type="move" name="topcandra"/>
    </contour>
    <contour>
      <point x="1257" y="27" type="move" name="bottom"/>
    </contour>
  </outline>
</glyph>
<glyph name="ra-deva" format="1">
  <advance width="724"/>
  <unicode hex="0930"/>
  <outline>
    <contour>
      <point x="351" y="1180" type="line"/>
      <point x="351" y="807" type="line" smooth="yes"/>
      <point x="351" y="728"/>
      <point x="328" y="687"/>
      <point x="270" y="687" type="curve" smooth="yes"/>
      <point x="236" y="687"/>
      <point x="201" y="700"/>
      <point x="163" y="731" type="curve"/>
      <point x="42" y="631" type="line"/>
      <point x="479" y="-36" type="line"/>
      <point x="630" y="75" type="line"/>
      <point x="268" y="573" type="line"/>
      <point x="252" y="565" type="line"/>
      <point x="269" y="551"/>
      <point x="304" y="543"/>
      <point x="336" y="543" type="curve" smooth="yes"/>
      <point x="452" y="543"/>
      <point x="540" y="626"/>
      <point x="540" y="804" type="curve" smooth="yes"/>
      <point x="540" y="1180" type="line"/>
    </contour>
    <contour>
      <point x="-18" y="1277" type="line"/>
      <point x="-18" y="1114" type="line"/>
      <point x="741" y="1114" type="line"/>
      <point x="741" y="1277" type="line"/>
    </contour>
    <contour>
      <point x="133" y="113" type="move" name="nukta"/>
    </contour>
    <contour>
      <point x="445" y="1167" type="move" name="top"/>
    </contour>
    <contour>
      <point x="444" y="1167" type="move" name="topcandra"/>
    </contour>
    <contour>
      <point x="501" y="28" type="move" name="bottom"/>
    </contour>
  </outline>
</glyph>
<glyph name="va-deva" format="1">
  <advance width="1091"/>
  <unicode hex="0935"/>
  <outline>
    <contour>
      <point x="716" y="1188" type="line"/>
      <point x="716" y="0" type="line"/>
      <point x="905" y="0" type="line"/>
      <point x="905" y="1188" type="line"/>
    </contour>
    <contour>
      <point x="-18" y="1277" type="line"/>
      <point x="-18" y="1114" type="line"/>
      <point x="1108" y="1114" type="line"/>
      <point x="1108" y="1277" type="line"/>
    </contour>
    <contour>
      <point x="195" y="939"/>
      <point x="60" y="817"/>
      <point x="60" y="570" type="curve" smooth="yes"/>
      <point x="60" y="309"/>
      <point x="220" y="195"/>
      <point x="420" y="195" type="curve" smooth="yes"/>
      <point x="565" y="195"/>
      <point x="711" y="250"/>
      <point x="794" y="373" type="curve"/>
      <point x="747" y="504" type="line"/>
      <point x="655" y="404"/>
      <point x="564" y="358"/>
      <point x="430" y="358" type="curve" smooth="yes"/>
      <point x="308" y="358"/>
      <point x="251" y="412"/>
      <point x="251" y="559" type="curve" smooth="yes"/>
      <point x="251" y="714"/>
      <point x="320" y="767"/>
      <point x="469" y="770" type="curve" smooth="yes"/>
      <point x="554" y="771"/>
      <point x="669" y="754"/>
      <point x="793" y="693" type="curve"/>
      <point x="793" y="809" type="line"/>
      <point x="711" y="880"/>
      <point x="586" y="939"/>
      <point x="440" y="939" type="curve" smooth="yes"/>
    </contour>
    <contour>
      <point x="157" y="72" type="move" name="nukta"/>
    </contour>
    <contour>
      <point x="811" y="1167" type="move" name="top"/>
    </contour>
    <contour>
      <point x="524" y="1167" type="move" name="topcandra"/>
    </contour>
    <contour>
      <point x="811" y="27" type="move" name="bottom"/>
    </contour>
  </outline>
</glyph>
<glyph name="ssa-deva" format="1">
  <advance width="1173"/>
  <unicode hex="0937"/>
  <outline>
    <contour>
      <point x="155" y="1130" type="line"/>
      <point x="155" y="658" type="line" smooth="yes"/>
      <point x="155" y="405"/>
      <point x="277" y="273"/>
      <point x="506" y="273" type="curve" smooth="yes"/>
      <point x="653" y="273"/>
      <point x="796" y="347"/>
      <point x="878" y="471" type="curve"/>
      <point x="869" y="657" type="line"/>
      <point x="790" y="526"/>
      <point x="646" y="446"/>
      <point x="517" y="445" type="curve" smooth="yes"/>
      <point x="380" y="444"/>
      <point x="342" y="507"/>
      <point x="342" y="652" type="curve" smooth="yes"/>
      <point x="342" y="1130" type="line"/>
    </contour>
    <contour>
      <point x="218" y="1081" type="line"/>
      <point x="830" y="461" type="line"/>
      <point x="937" y="561" type="line"/>
      <point x="326" y="1181" type="line"/>
    </contour>
    <contour>
      <point x="798" y="1197" type="line"/>
      <point x="798" y="0" type="line"/>
      <point x="988" y="0" type="line"/>
      <point x="988" y="1197" type="line"/>
    </contour>
    <contour>
      <point x="-18" y="1277" type="line"/>
      <point x="-18" y="1114" type="line"/>
      <point x="1190" y="1114" type="line"/>
      <point x="1190" y="1277" type="line"/>
    </contour>
    <contour>
      <point x="301" y="72" type="move" name="nukta"/>
    </contour>
    <contour>
      <point x="893" y="1167" type="move" name="top"/>
    </contour>
    <contour>
      <point x="591" y="1167" type="move" name="topcandra"/>
    </contour>
    <contour>
      <point x="893" y="27" type="move" name="bottom"/>
    </contour>
  </outline>
</glyph>
<glyph name="aaMatra-deva" format="1">
  <advance width="559"/>
  <unicode hex="093E"/>
  <outline>
    <contour>
      <point x="185" y="1204" type="line"/>
      <point x="185" y="0" type="line"/>
      <point x="374" y="0" type="line"/>
      <point x="374" y="1204" type="line"/>
    </contour>
    <contour>
      <point x="-18" y="1277" type="line"/>
      <point x="-18" y="1114" type="line"/>
      <point x="576" y="1114" type="line"/>
      <point x="576" y="1277" type="line"/>
    </contour>
    <contour>
      <point x="280" y="1167" type="move" name="top"/>
    </contour>
    <contour>
      <point x="280" y="27" type="move" name="bottom"/>
    </contour>
    <contour>
      <point x="285" y="1167" type="move" name="topcandra"/>
    </contour>
  </outline>
</glyph>
<glyph name="eMatra-deva" format="1">
  <advance width="540"/>
  <unicode hex="0947"/>
  <outline>
    <contour>
      <point x="340" y="1261" type="line"/>
      <point x="157" y="1749"/>
      <point x="91" y="1803"/>
      <point x="-208" y="1803" type="curve" smooth="yes"/>
      <point x="-255" y="1803"/>
      <point x="-300" y="1799"/>
      <point x="-369" y="1783" type="curve"/>
      <point x="-343" y="1625" type="line"/>
      <point x="-300" y="1631"/>
      <point x="-256" y="1636"/>
      <point x="-202" y="1636" type="curve" smooth="yes"/>
      <point x="-2" y="1636"/>
      <point x="46" y="1559"/>
      <point x="180" y="1248" type="curve" smooth="yes"/>
      <point x="198" y="1207" type="line"/>
    </contour>
    <contour>
      <point x="483" y="1211" type="move" name="topcandra"/>
    </contour>
    <contour>
      <point x="270" y="1167" type="move" name="_top"/>
    </contour>
  </outline>
</glyph>
<glyph name="rrVocalic-deva" format="1">
  <advance width="1512"/>
  <unicode hex="0960"/>
  <outline>
    <contour>
      <point x="734" y="486" type="line"/>
      <point x="738" y="597" type="line"/>
      <point x="508" y="902"/>
      <point x="405" y="934"/>
      <point x="290" y="936" type="curve" smooth="yes"/>
      <point x="191" y="938"/>
      <point x="117" y="901"/>
      <point x="52" y="861" type="curve"/>
      <point x="126" y="700" type="line"/>
      <point x="202" y="739"/>
      <point x="261" y="760"/>
      <point x="315" y="759" type="curve" smooth="yes"/>
      <point x="403" y="757"/>
      <point x="479" y="692"/>
      <point x="627" y="533" type="curve"/>
      <point x="629" y="595" type="line"/>
      <point x="125" y="231" type="line"/>
      <point x="236" y="93" type="line"/>
    </contour>
    <contour>
      <point x="1460" y="-308"/>
      <point x="1564" y="-273"/>
      <point x="1642" y="-215" type="curve"/>
      <point x="1579" y="-87" type="line"/>
      <point x="1514" y="-131"/>
      <point x="1433" y="-161"/>
      <point x="1366" y="-163" type="curve" smooth="yes"/>
      <point x="1289" y="-164"/>
      <point x="1249" y="-132"/>
      <point x="1249" y="-71" type="curve" smooth="yes"/>
      <point x="1249" y="-5"/>
      <point x="1305" y="37"/>
      <point x="1453" y="54" type="curve"/>
      <point x="1434" y="191" type="line"/>
      <point x="1161" y="176"/>
      <point x="1076" y="43"/>
      <point x="1076" y="-72" type="curve" smooth="yes"/>
      <point x="1076" y="-211"/>
      <point x="1184" y="-314"/>
      <point x="1355" y="-310" type="curve" smooth="yes"/>
    </contour>
    <contour>
      <point x="854" y="-1" type="line"/>
      <point x="854" y="1151" type="line"/>
      <point x="665" y="1151" type="line"/>
      <point x="665" y="-1" type="line"/>
    </contour>
    <contour>
      <point x="1371" y="150" type="line"/>
      <point x="1216" y="175"/>
      <point x="1178" y="235"/>
      <point x="1178" y="294" type="curve" smooth="yes"/>
      <point x="1178" y="373"/>
      <point x="1272" y="402"/>
      <point x="1386" y="413" type="curve"/>
      <point x="1402" y="518" type="line"/>
      <point x="1203" y="840" type="line"/>
      <point x="1077" y="777" type="line"/>
      <point x="1245" y="493" type="line"/>
      <point x="1252" y="538" type="line"/>
      <point x="1134" y="515"/>
      <point x="996" y="450"/>
      <point x="997" y="320" type="curve" smooth="yes"/>
      <point x="997" y="239"/>
      <point x="1021" y="122"/>
      <point x="1284" y="79" type="curve"/>
    </contour>
    <contour>
      <point x="975" y="525"/>
      <point x="1107" y="604"/>
      <point x="1205" y="675" type="curve" smooth="yes"/>
      <point x="1289" y="745"/>
      <point x="1297" y="794"/>
      <point x="1297" y="829" type="curve" smooth="yes"/>
      <point x="1297" y="906"/>
      <point x="1215" y="955"/>
      <point x="1092" y="980" type="curve"/>
      <point x="992" y="895" type="line"/>
      <point x="1079" y="749" type="line"/>
      <point x="1090" y="809" type="line"/>
      <point x="1009" y="726"/>
      <point x="878" y="666"/>
      <point x="732" y="698" type="curve"/>
      <point x="803" y="533" type="line"/>
    </contour>
    <contour>
      <point x="1530" y="1114" type="line"/>
      <point x="1530" y="1277" type="line"/>
      <point x="-18" y="1277" type="line"/>
      <point x="-18" y="1114" type="line"/>
    </contour>
    <contour>
      <point x="758" y="1167" type="move" name="top"/>
    </contour>
    <contour>
      <point x="758" y="27" type="move" name="bottom"/>
    </contour>
    <contour>
      <point x="758" y="1167" type="move" name="topcandra"/>
    </contour>
  </outline>
</glyph>
<glyph name="danda-deva" format="1">
  <advance width="600"/>
  <unicode hex="0964"/>
  <outline>
    <contour>
      <point x="205" y="1277" type="line"/>
      <point x="205" y="0" type="line"/>
      <point x="395" y="0" type="line"/>
      <point x="395" y="1277" type="line"/>
    </contour>
  </outline>
</glyph>
<glyph name="dbldanda-deva" format="1">
  <advance width="835"/>
  <unicode hex="0965"/>
  <outline>
    <contour>
      <point x="124" y="1277" type="line"/>
      <point x="124" y="0" type="line"/>
      <point x="314" y="0" type="line"/>
      <point x="314" y="1277" type="line"/>
    </contour>
    <contour>
      <point x="504" y="1277" type="line"/>
      <point x="504" y="0" type="line"/>
      <point x="694" y="0" type="line"/>
      <point x="694" y="1277" type="line"/>
    </contour>
  </outline>
</glyph>
<glyph name="one-deva" format="1">
  <advance width="782"/>
  <unicode hex="0967"/>
  <outline>
    <contour>
      <point x="208" y="1300"/>
      <point x="76" y="1202"/>
      <point x="76" y="1029" type="curve" smooth="yes"/>
      <point x="76" y="802"/>
      <point x="305" y="679"/>
      <point x="485" y="672" type="curve"/>
      <point x="561" y="768" type="line"/>
      <point x="413" y="792"/>
      <point x="258" y="861"/>
      <point x="260" y="1003" type="curve" smooth="yes"/>
      <point x="260" y="1088"/>
      <point x="317" y="1137"/>
      <point x="411" y="1137" type="curve" smooth="yes"/>
      <point x="513" y="1137"/>
      <point x="558" y="1078"/>
      <point x="558" y="982" type="curve" smooth="yes"/>
      <point x="558" y="812"/>
      <point x="393" y="656"/>
      <point x="126" y="516" type="curve"/>
      <point x="122" y="412" type="line"/>
      <point x="588" y="-189" type="line"/>
      <point x="744" y="-72" type="line"/>
      <point x="229" y="525" type="line"/>
      <point x="273" y="408" type="line"/>
      <point x="531" y="556"/>
      <point x="736" y="715"/>
      <point x="737" y="973" type="curve" smooth="yes"/>
      <point x="739" y="1186"/>
      <point x="600" y="1300"/>
      <point x="396" y="1300" type="curve" smooth="yes"/>
    </contour>
  </outline>
</glyph>
<glyph name="oe-deva" format="1">
  <advance width="1396"/>
  <unicode hex="0973"/>
  <outline>
    <contour>
      <point x="1020" y="1097" type="line"/>
      <point x="1209" y="1097" type="line"/>
      <point x="1209" y="1548" type="line"/>
      <point x="1020" y="1548" type="line"/>
    </contour>
    <component base="a-deva"/>
  </outline>
</glyph>
<glyph name="ue-deva" format="1">
  <advance width="1396"/>
  <unicode hex="0976"/>
  <outline>
    <contour>
      <point x="227" y="-18" type="line"/>
      <point x="277" y="-134"/>
      <point x="394" y="-249"/>
      <point x="578" y="-249" type="curve" smooth="yes"/>
      <point x="741" y="-249"/>
      <point x="854" y="-165"/>
      <point x="925" y="-11" type="curve"/>
      <point x="804" y="57" type="line"/>
      <point x="762" y="-11"/>
      <point x="692" y="-84"/>
      <point x="566" y="-84" type="curve" smooth="yes"/>
      <point x="438" y="-84"/>
      <point x="372" y="-22"/>
      <point x="327" y="52" type="curve"/>
    </contour>
    <component base="a-deva"/>
  </outline>
</glyph>
<glyph name="jjya-deva" format="1">
  <advance width="1158"/>
  <unicode hex="097A"/>
  <outline>
    <contour>
      <point x="160" y="1135" type="line"/>
      <point x="263" y="1038"/>
      <point x="296" y="971"/>
      <point x="289" y="898" type="curve" smooth="yes"/>
      <point x="276" y="802"/>
      <point x="205" y="744"/>
      <point x="39" y="679" type="curve"/>
      <point x="89" y="386"/>
      <point x="275" y="246"/>
      <point x="495" y="246" type="curve" smooth="yes"/>
      <point x="616" y="246"/>
      <point x="758" y="297"/>
      <point x="837" y="416" type="curve"/>
      <point x="844" y="653" type="line"/>
      <point x="752" y="482"/>
      <point x="621" y="418"/>
      <point x="487" y="418" type="curve" smooth="yes"/>
      <point x="351" y="418"/>
      <point x="264" y="479"/>
      <point x="205" y="649" type="curve"/>
      <point x="178" y="568" type="line"/>
      <point x="390" y="631"/>
      <point x="445" y="720"/>
      <point x="445" y="816" type="curve" smooth="yes"/>
      <point x="445" y="906"/>
      <point x="394" y="1019"/>
      <point x="296" y="1137" type="curve"/>
    </contour>
    <contour>
      <point x="254" y="1070" type="line"/>
      <point x="838" y="460" type="line"/>
      <point x="946" y="559" type="line"/>
      <point x="346" y="1168" type="line"/>
    </contour>
    <contour>
      <point x="783" y="1222" type="line"/>
      <point x="783" y="0" type="line"/>
      <point x="972" y="0" type="line"/>
      <point x="972" y="1222" type="line"/>
    </contour>
    <contour>
      <point x="-18" y="1277" type="line"/>
      <point x="-18" y="1114" type="line"/>
      <point x="1175" y="1114" type="line"/>
      <point x="1175" y="1277" type="line"/>
    </contour>
    <contour>
      <point x="347" y="34" type="move" name="nukta"/>
    </contour>
    <contour>
      <point x="880" y="1167" type="move" name="top"/>
    </contour>
    <contour>
      <point x="583" y="1167" type="move" name="topcandra"/>
    </contour>
    <contour>
      <point x="881" y="27" type="move" name="bottom"/>
    </contour>
  </outline>
</glyph>
<glyph name="bba-deva" format="1">
  <advance width="1118"/>
  <unicode hex="097F"/>
  <outline>
    <contour>
      <point x="73" y="68" type="line"/>
      <point x="73" y="-85" type="line"/>
      <point x="934" y="-85" type="line"/>
      <point x="934" y="68" type="line"/>
    </contour>
    <component base="ba-deva"/>
  </outline>
</glyph>
<glyph name="b.sups" format="1">
  <advance width="770"/>
  <unicode hex="1D47"/>
  <outline>
    <contour>
      <point x="102" y="532" type="line" name="hr00"/>
      <point x="213" y="532" type="line"/>
      <point x="226" y="599" type="line"/>
      <point x="234" y="599" type="line"/>
      <point x="289" y="545"/>
      <point x="358" y="516"/>
      <point x="420" y="516" type="curve" smooth="yes"/>
      <point x="569" y="516"/>
      <point x="705" y="647"/>
      <point x="705" y="876" type="curve" smooth="yes"/>
      <point x="705" y="1078"/>
      <point x="609" y="1211"/>
      <point x="439" y="1211" type="curve" smooth="yes"/>
      <point x="365" y="1211"/>
      <point x="299" y="1172"/>
      <point x="239" y="1122" type="curve"/>
      <point x="245" y="1236" type="line"/>
      <point x="245" y="1490" type="line"/>
      <point x="102" y="1490" type="line"/>
    </contour>
    <contour>
      <point x="245" y="693" type="curve"/>
      <point x="245" y="1012" type="line"/>
      <point x="299" y="1064"/>
      <point x="352" y="1093"/>
      <point x="402" y="1093" type="curve" smooth="yes"/>
      <point x="510" y="1093"/>
      <point x="558" y="1011"/>
      <point x="558" y="873" type="curve" smooth="yes"/>
      <point x="558" y="718"/>
      <point x="487" y="633"/>
      <point x="394" y="633" type="curve" smooth="yes"/>
      <point x="350" y="633"/>
      <point x="296" y="649"/>
    </contour>
  </outline>
</glyph>
<glyph name="k.sups" format="1">
  <advance width="703"/>
  <unicode hex="1D4F"/>
  <outline>
    <contour>
      <point x="102" y="532" type="line" name="hr00"/>
      <point x="245" y="532" type="line"/>
      <point x="245" y="698" type="line"/>
      <point x="352" y="827" type="line"/>
      <point x="536" y="532" type="line"/>
      <point x="693" y="532" type="line"/>
      <point x="434" y="922" type="line"/>
      <point x="666" y="1195" type="line"/>
      <point x="509" y="1195" type="line"/>
      <point x="254" y="877" type="line"/>
      <point x="245" y="877" type="line"/>
      <point x="245" y="1490" type="line"/>
      <point x="102" y="1490" type="line"/>
    </contour>
  </outline>
</glyph>
<glyph name="m.sups" format="1">
  <advance width="1152"/>
  <unicode hex="1D50"/>
  <outline>
    <contour>
      <point x="102" y="532" type="line" name="hr01"/>
      <point x="245" y="532" type="line"/>
      <point x="245" y="1000" type="line" name="hr02"/>
      <point x="305" y="1061"/>
      <point x="349" y="1090"/>
      <point x="394" y="1090" type="curve" smooth="yes"/>
      <point x="482" y="1090"/>
      <point x="508" y="1029"/>
      <point x="508" y="929" type="curve" smooth="yes"/>
      <point x="508" y="532" type="line"/>
      <point x="650" y="532" type="line"/>
      <point x="650" y="1000" type="line"/>
      <point x="710" y="1061"/>
      <point x="755" y="1090"/>
      <point x="800" y="1090" type="curve" smooth="yes"/>
      <point x="889" y="1090"/>
      <point x="915" y="1029"/>
      <point x="915" y="929" type="curve" smooth="yes"/>
      <point x="915" y="532" type="line"/>
      <point x="1057" y="532" type="line"/>
      <point x="1057" y="948" type="line"/>
      <point x="1057" y="1104"/>
      <point x="996" y="1211"/>
      <point x="849" y="1211" type="curve" smooth="yes"/>
      <point x="760" y="1211"/>
      <point x="689" y="1152"/>
      <point x="628" y="1089" type="curve"/>
      <point x="597" y="1170"/>
      <point x="533" y="1211"/>
      <point x="443" y="1211" type="curve" smooth="yes"/>
      <point x="353" y="1211"/>
      <point x="292" y="1162"/>
      <point x="237" y="1102" type="curve"/>
      <point x="229" y="1102" type="line"/>
      <point x="218" y="1195" type="line" name="hr03"/>
      <point x="102" y="1195" type="line"/>
    </contour>
  </outline>
</glyph>
<glyph name="o.sups" format="1">
  <advance width="751"/>
  <unicode hex="1D52"/>
  <outline>
    <contour>
      <point x="374" y="516" type="curve" smooth="yes" name="hr00"/>
      <point x="544" y="516"/>
      <point x="689" y="645"/>
      <point x="689" y="863" type="curve" smooth="yes"/>
      <point x="689" y="1083"/>
      <point x="544" y="1211"/>
      <point x="374" y="1211" type="curve" smooth="yes"/>
      <point x="204" y="1211"/>
      <point x="59" y="1083"/>
      <point x="59" y="863" type="curve" smooth="yes"/>
      <point x="59" y="645"/>
      <point x="204" y="516"/>
    </contour>
    <contour>
      <point x="374" y="633" type="curve" smooth="yes"/>
      <point x="268" y="633"/>
      <point x="204" y="726"/>
      <point x="204" y="863" type="curve" smooth="yes"/>
      <point x="204" y="1003"/>
      <point x="268" y="1095"/>
      <point x="374" y="1095" type="curve" smooth="yes"/>
      <point x="481" y="1095"/>
      <point x="543" y="1003"/>
      <point x="543" y="863" type="curve" smooth="yes"/>
      <point x="543" y="726"/>
      <point x="481" y="633"/>
    </contour>
  </outline>
</glyph>
<glyph name="guilsinglleft" format="1">
  <advance width="563"/>
  <unicode hex="2039"/>
  <outline>
    <contour>
      <point x="372" y="131" type="line" name="hr00"/>
      <point x="452" y="195" type="line"/>
      <point x="213" y="516" type="line"/>
      <point x="452" y="834" type="line"/>
      <point x="372" y="901" type="line"/>
      <point x="93" y="588" type="line"/>
      <point x="93" y="445" type="line"/>
    </contour>
  </outline>
</glyph>
<glyph name="zero.sups" format="1">
  <advance width="755"/>
  <unicode hex="2070"/>
  <outline>
    <contour>
      <point x="378" y="877" type="curve" smooth="yes" name="hr00"/>
      <point x="562" y="877"/>
      <point x="689" y="1031"/>
      <point x="689" y="1303" type="curve" smooth="yes"/>
      <point x="689" y="1571"/>
      <point x="562" y="1724"/>
      <point x="378" y="1724" type="curve" smooth="yes"/>
      <point x="193" y="1724"/>
      <point x="69" y="1571"/>
      <point x="69" y="1303" type="curve" smooth="yes"/>
      <point x="69" y="1031"/>
      <point x="193" y="877"/>
    </contour>
    <contour>
      <point x="378" y="993" type="curve" smooth="yes"/>
      <point x="279" y="993"/>
      <point x="211" y="1094"/>
      <point x="211" y="1303" type="curve" smooth="yes"/>
      <point x="211" y="1512"/>
      <point x="279" y="1608"/>
      <point x="378" y="1608" type="curve" smooth="yes"/>
      <point x="476" y="1608"/>
      <point x="545" y="1512"/>
      <point x="545" y="1303" type="curve" smooth="yes"/>
      <point x="545" y="1094"/>
      <point x="476" y="993"/>
    </contour>
  </outline>
</glyph>
<glyph name="i.sups" format="1">
  <advance width="348"/>
  <unicode hex="2071"/>
  <outline>
    <contour>
      <point x="176" y="1315" type="curve" smooth="yes" name="hr01"/>
      <point x="229" y="1315"/>
      <point x="268" y="1350"/>
      <point x="268" y="1400" type="curve" smooth="yes"/>
      <point x="268" y="1450"/>
      <point x="229" y="1485"/>
      <point x="176" y="1485" type="curve" smooth="yes"/>
      <point x="123" y="1485"/>
      <point x="83" y="1450"/>
      <point x="83" y="1400" type="curve" smooth="yes"/>
      <point x="83" y="1350"/>
      <point x="123" y="1315"/>
    </contour>
    <contour>
      <point x="102" y="532" type="line" name="hr02"/>
      <point x="245" y="532" type="line"/>
      <point x="245" y="1195" type="line"/>
      <point x="102" y="1195" type="line"/>
    </contour>
  </outline>
</glyph>
<glyph name="five.sups" format="1">
  <advance width="755"/>
  <unicode hex="2075"/>
  <outline>
    <contour>
      <point x="69" y="1033" type="line" name="hr01"/>
      <point x="134" y="941"/>
      <point x="234" y="877"/>
      <point x="376" y="877" type="curve" smooth="yes"/>
      <point x="542" y="877"/>
      <point x="667" y="990"/>
      <point x="667" y="1153" type="curve" smooth="yes"/>
      <point x="667" y="1324"/>
      <point x="548" y="1420"/>
      <point x="405" y="1420" type="curve" smooth="yes" name="hr02"/>
      <point x="363" y="1420"/>
      <point x="321" y="1408"/>
      <point x="282" y="1393" type="curve"/>
      <point x="303" y="1572" type="line"/>
      <point x="628" y="1572" type="line"/>
      <point x="628" y="1700" type="line"/>
      <point x="183" y="1700" type="line"/>
      <point x="146" y="1313" type="line" name="hr03"/>
      <point x="216" y="1262" type="line" name="hr04"/>
      <point x="258" y="1299"/>
      <point x="300" y="1324"/>
      <point x="361" y="1324" type="curve" smooth="yes"/>
      <point x="453" y="1324"/>
      <point x="520" y="1262"/>
      <point x="520" y="1158" type="curve" smooth="yes"/>
      <point x="520" y="1063"/>
      <point x="455" y="993"/>
      <point x="365" y="993" type="curve" smooth="yes"/>
      <point x="277" y="993"/>
      <point x="216" y="1035"/>
      <point x="165" y="1108" type="curve"/>
    </contour>
  </outline>
</glyph>
<glyph name="nine.sups" format="1">
  <advance width="755"/>
  <unicode hex="2079"/>
  <outline>
    <contour>
      <point x="357" y="1302" type="curve" smooth="yes" name="hr00"/>
      <point x="265" y="1302"/>
      <point x="213" y="1365"/>
      <point x="213" y="1455" type="curve" smooth="yes"/>
      <point x="213" y="1547"/>
      <point x="271" y="1608"/>
      <point x="349" y="1608" type="curve" smooth="yes"/>
      <point x="442" y="1608"/>
      <point x="511" y="1535"/>
      <point x="523" y="1385" type="curve"/>
      <point x="466" y="1325"/>
      <point x="416" y="1302"/>
    </contour>
    <contour>
      <point x="107" y="942" type="line"/>
      <point x="154" y="908"/>
      <point x="214" y="877"/>
      <point x="310" y="877" type="curve" smooth="yes"/>
      <point x="514" y="877"/>
      <point x="663" y="1026"/>
      <point x="663" y="1318" type="curve" smooth="yes"/>
      <point x="663" y="1570"/>
      <point x="542" y="1724"/>
      <point x="346" y="1724" type="curve" smooth="yes"/>
      <point x="195" y="1724"/>
      <point x="79" y="1607"/>
      <point x="79" y="1452" type="curve" smooth="yes"/>
      <point x="79" y="1300"/>
      <point x="170" y="1197"/>
      <point x="329" y="1197" type="curve" smooth="yes"/>
      <point x="403" y="1197"/>
      <point x="468" y="1225"/>
      <point x="523" y="1278" type="curve"/>
      <point x="511" y="1086"/>
      <point x="423" y="993"/>
      <point x="304" y="993" type="curve" smooth="yes"/>
      <point x="249" y="993"/>
      <point x="206" y="1016"/>
      <point x="167" y="1042" type="curve"/>
    </contour>
  </outline>
</glyph>
<glyph name="zero.subs" format="1">
  <advance width="755"/>
  <unicode hex="2080"/>
  <outline>
    <contour>
      <point x="378" y="-468" type="curve" smooth="yes" name="hr00"/>
      <point x="562" y="-468"/>
      <point x="689" y="-312"/>
      <point x="689" y="-42" type="curve" smooth="yes"/>
      <point x="689" y="228"/>
      <point x="562" y="380"/>
      <point x="378" y="380" type="curve" smooth="yes"/>
      <point x="193" y="380"/>
      <point x="69" y="228"/>
      <point x="69" y="-42" type="curve" smooth="yes"/>
      <point x="69" y="-312"/>
      <point x="193" y="-468"/>
    </contour>
    <contour>
      <point x="378" y="-352" type="curve" smooth="yes"/>
      <point x="279" y="-352"/>
      <point x="211" y="-251"/>
      <point x="211" y="-42" type="curve" smooth="yes"/>
      <point x="211" y="168"/>
      <point x="279" y="264"/>
      <point x="378" y="264" type="curve" smooth="yes"/>
      <point x="476" y="264"/>
      <point x="545" y="168"/>
      <point x="545" y="-42" type="curve" smooth="yes"/>
      <point x="545" y="-251"/>
      <point x="476" y="-352"/>
    </contour>
  </outline>
</glyph>
<glyph name="four.subs" format="1">
  <advance width="755"/>
  <unicode hex="2084"/>
  <outline>
    <contour>
      <point x="232" y="-134" type="line" name="hr00"/>
      <point x="350" y="61" type="line"/>
      <point x="449" y="225" type="line"/>
      <point x="458" y="225" type="line"/>
      <point x="449" y="1" type="line"/>
      <point x="449" y="-134" type="line"/>
    </contour>
    <contour>
      <point x="700" y="-134" type="line"/>
      <point x="581" y="-134" type="line"/>
      <point x="581" y="356" type="line"/>
      <point x="411" y="356" type="line"/>
      <point x="83" y="-161" type="line"/>
      <point x="83" y="-237" type="line"/>
      <point x="449" y="-237" type="line"/>
      <point x="449" y="-443" type="line"/>
      <point x="581" y="-443" type="line"/>
      <point x="581" y="-237" type="line"/>
      <point x="700" y="-237" type="line"/>
    </contour>
  </outline>
</glyph>
<glyph name="five.subs" format="1">
  <advance width="755"/>
  <unicode hex="2085"/>
  <outline>
    <contour>
      <point x="69" y="-309" type="line" name="hr00"/>
      <point x="134" y="-402"/>
      <point x="234" y="-468"/>
      <point x="376" y="-468" type="curve" smooth="yes"/>
      <point x="542" y="-468"/>
      <point x="667" y="-354"/>
      <point x="667" y="-191" type="curve" smooth="yes"/>
      <point x="667" y="-19"/>
      <point x="548" y="76"/>
      <point x="405" y="76" type="curve" smooth="yes"/>
      <point x="363" y="76"/>
      <point x="321" y="65"/>
      <point x="282" y="48" type="curve"/>
      <point x="303" y="228" type="line"/>
      <point x="628" y="228" type="line"/>
      <point x="628" y="356" type="line"/>
      <point x="183" y="356" type="line"/>
      <point x="146" y="-32" type="line"/>
      <point x="216" y="-80" type="line"/>
      <point x="258" y="-47"/>
      <point x="300" y="-20"/>
      <point x="361" y="-20" type="curve" smooth="yes"/>
      <point x="453" y="-20"/>
      <point x="520" y="-81"/>
      <point x="520" y="-186" type="curve" smooth="yes"/>
      <point x="520" y="-280"/>
      <point x="455" y="-352"/>
      <point x="365" y="-352" type="curve" smooth="yes"/>
      <point x="277" y="-352"/>
      <point x="216" y="-308"/>
      <point x="165" y="-237" type="curve"/>
    </contour>
  </outline>
</glyph>
<glyph name="seven.subs" format="1">
  <advance width="755"/>
  <unicode hex="2087"/>
  <outline>
    <contour>
      <point x="263" y="-443" type="curve" name="hr00"/>
      <point x="418" y="-443" type="line"/>
      <point x="434" y="-164"/>
      <point x="477" y="28"/>
      <point x="670" y="275" type="curve"/>
      <point x="670" y="356" type="line"/>
      <point x="102" y="356" type="line"/>
      <point x="102" y="231" type="line"/>
      <point x="504" y="231" type="line"/>
      <point x="344" y="10"/>
      <point x="279" y="-172"/>
    </contour>
  </outline>
</glyph>
<glyph name="eight.subs" format="1">
  <advance width="755"/>
  <unicode hex="2088"/>
  <outline>
    <contour>
      <point x="227" y="-228" type="curve" smooth="yes" name="hr01"/>
      <point x="227" y="-166"/>
      <point x="263" y="-112"/>
      <point x="330" y="-73" type="curve"/>
      <point x="433" y="-115"/>
      <point x="525" y="-139"/>
      <point x="525" y="-230" type="curve" smooth="yes"/>
      <point x="525" y="-302"/>
      <point x="458" y="-362"/>
      <point x="375" y="-362" type="curve" smooth="yes"/>
      <point x="287" y="-362"/>
      <point x="227" y="-299"/>
    </contour>
    <contour>
      <point x="420" y="19" type="curve" name="hr02"/>
      <point x="329" y="50"/>
      <point x="256" y="89"/>
      <point x="256" y="165" type="curve" smooth="yes"/>
      <point x="256" y="226"/>
      <point x="309" y="272"/>
      <point x="375" y="272" type="curve" smooth="yes"/>
      <point x="443" y="272"/>
      <point x="499" y="230"/>
      <point x="499" y="161" type="curve" smooth="yes"/>
      <point x="499" y="112"/>
      <point x="474" y="64"/>
    </contour>
    <contour>
      <point x="89" y="-242" type="curve" smooth="yes" name="hr03"/>
      <point x="89" y="-365"/>
      <point x="205" y="-468"/>
      <point x="375" y="-468" type="curve" smooth="yes"/>
      <point x="540" y="-468"/>
      <point x="661" y="-367"/>
      <point x="661" y="-238" type="curve" smooth="yes"/>
      <point x="661" y="-140"/>
      <point x="603" y="-74"/>
      <point x="514" y="-30" type="curve"/>
      <point x="514" y="-22" type="line"/>
      <point x="570" y="15"/>
      <point x="636" y="78"/>
      <point x="636" y="169" type="curve" smooth="yes" name="hr04"/>
      <point x="636" y="298"/>
      <point x="521" y="380"/>
      <point x="375" y="380" type="curve" smooth="yes"/>
      <point x="235" y="380"/>
      <point x="122" y="296"/>
      <point x="122" y="169" type="curve" smooth="yes"/>
      <point x="122" y="84"/>
      <point x="171" y="32"/>
      <point x="241" y="-15" type="curve"/>
      <point x="241" y="-24" type="line"/>
      <point x="163" y="-66"/>
      <point x="89" y="-143"/>
    </contour>
  </outline>
</glyph>
<glyph name="nine.subs" format="1">
  <advance width="755"/>
  <unicode hex="2089"/>
  <outline>
    <contour>
      <point x="357" y="-42" type="curve" smooth="yes" name="hr00"/>
      <point x="265" y="-42"/>
      <point x="213" y="21"/>
      <point x="213" y="112" type="curve" smooth="yes"/>
      <point x="213" y="204"/>
      <point x="271" y="264"/>
      <point x="349" y="264" type="curve" smooth="yes"/>
      <point x="442" y="264"/>
      <point x="511" y="191"/>
      <point x="523" y="41" type="curve"/>
      <point x="466" y="-18"/>
      <point x="416" y="-42"/>
    </contour>
    <contour>
      <point x="107" y="-401" type="line"/>
      <point x="154" y="-437"/>
      <point x="214" y="-468"/>
      <point x="310" y="-468" type="curve" smooth="yes"/>
      <point x="514" y="-468"/>
      <point x="663" y="-317"/>
      <point x="663" y="-25" type="curve" smooth="yes"/>
      <point x="663" y="228"/>
      <point x="542" y="380"/>
      <point x="346" y="380" type="curve" smooth="yes"/>
      <point x="195" y="380"/>
      <point x="79" y="263"/>
      <point x="79" y="107" type="curve" smooth="yes"/>
      <point x="79" y="-43"/>
      <point x="170" y="-146"/>
      <point x="329" y="-146" type="curve" smooth="yes"/>
      <point x="403" y="-146"/>
      <point x="468" y="-118"/>
      <point x="523" y="-66" type="curve"/>
      <point x="509" y="-258"/>
      <point x="423" y="-352"/>
      <point x="304" y="-352" type="curve" smooth="yes"/>
      <point x="249" y="-352"/>
      <point x="206" y="-329"/>
      <point x="167" y="-302" type="curve"/>
    </contour>
  </outline>
</glyph>
<glyph name="uni0259.sups" format="1">
  <advance width="692"/>
  <unicode hex="2094"/>
  <outline>
    <contour>
      <point x="329" y="516" type="curve" smooth="yes" name="hr00"/>
      <point x="499" y="516"/>
      <point x="634" y="650"/>
      <point x="634" y="863" type="curve" smooth="yes"/>
      <point x="634" y="1080"/>
      <point x="512" y="1211"/>
      <point x="321" y="1211" type="curve" smooth="yes"/>
      <point x="234" y="1211"/>
      <point x="160" y="1180"/>
      <point x="96" y="1137" type="curve"/>
      <point x="148" y="1049" type="line"/>
      <point x="198" y="1079"/>
      <point x="247" y="1098"/>
      <point x="310" y="1098" type="curve" smooth="yes"/>
      <point x="426" y="1098"/>
      <point x="487" y="1023"/>
      <point x="495" y="904" type="curve"/>
      <point x="58" y="904" type="line"/>
      <point x="52" y="873"/>
      <point x="50" y="860"/>
      <point x="50" y="830" type="curve" smooth="yes"/>
      <point x="50" y="687"/>
      <point x="122" y="516"/>
    </contour>
    <contour>
      <point x="327" y="629" type="curve" smooth="yes"/>
      <point x="217" y="629"/>
      <point x="175" y="712"/>
      <point x="175" y="814" type="curve"/>
      <point x="496" y="814" type="line"/>
      <point x="487" y="688"/>
      <point x="421" y="629"/>
    </contour>
  </outline>
</glyph>
<glyph name="colonmonetary" format="1">
  <advance width="1030"/>
  <unicode hex="20A1"/>
  <outline>
    <contour>
      <point x="605" y="1173" type="line" name="hr01"/>
      <point x="622" y="1175"/>
      <point x="640" y="1177"/>
      <point x="659" y="1177" type="curve" smooth="yes"/>
      <point x="681" y="1177"/>
      <point x="698" y="1173"/>
      <point x="717" y="1169" type="curve"/>
      <point x="595" y="133" type="line"/>
      <point x="554" y="139"/>
      <point x="519" y="153"/>
      <point x="486" y="176" type="curve"/>
    </contour>
    <contour>
      <point x="414" y="255" type="line"/>
      <point x="354" y="347"/>
      <point x="320" y="484"/>
      <point x="320" y="656" type="curve" smooth="yes"/>
      <point x="320" y="900"/>
      <point x="390" y="1074"/>
      <point x="520" y="1143" type="curve"/>
    </contour>
    <contour>
      <point x="882" y="268" type="line"/>
      <point x="822" y="188"/>
      <point x="758" y="142"/>
      <point x="677" y="131" type="curve"/>
      <point x="795" y="1129" type="line"/>
      <point x="822" y="1109"/>
      <point x="849" y="1083"/>
      <point x="872" y="1054" type="curve"/>
      <point x="985" y="1160" type="line"/>
      <point x="940" y="1218"/>
      <point x="880" y="1267"/>
      <point x="814" y="1297" type="curve"/>
      <point x="842" y="1531" type="line"/>
      <point x="760" y="1531" type="line"/>
      <point x="735" y="1323" type="line" name="hr02"/>
      <point x="712" y="1328"/>
      <point x="688" y="1330"/>
      <point x="664" y="1330" type="curve" smooth="yes" name="hr03"/>
      <point x="651" y="1330"/>
      <point x="637" y="1330"/>
      <point x="623" y="1328" type="curve"/>
      <point x="648" y="1531" type="line"/>
      <point x="566" y="1531" type="line"/>
      <point x="541" y="1316" type="line"/>
      <point x="286" y="1258"/>
      <point x="122" y="1017"/>
      <point x="122" y="650" type="curve" smooth="yes"/>
      <point x="122" y="352"/>
      <point x="225" y="140"/>
      <point x="389" y="40" type="curve"/>
      <point x="357" y="-225" type="line"/>
      <point x="439" y="-225" type="line"/>
      <point x="466" y="3" type="line"/>
      <point x="500" y="-9"/>
      <point x="537" y="-18"/>
      <point x="575" y="-23" type="curve"/>
      <point x="551" y="-225" type="line"/>
      <point x="634" y="-225" type="line"/>
      <point x="658" y="-25" type="line" name="hr04"/>
      <point x="797" y="-15"/>
      <point x="905" y="55"/>
      <point x="993" y="166" type="curve"/>
    </contour>
  </outline>
</glyph>
<glyph name="uni20A6" format="1">
  <advance width="1030"/>
  <unicode hex="20A6"/>
  <outline>
    <contour>
      <point x="716" y="584" type="line" name="hr00"/>
      <point x="612" y="584" type="line"/>
      <point x="573" y="702" type="line"/>
      <point x="712" y="702" type="line"/>
    </contour>
    <contour>
      <point x="746" y="165" type="line"/>
      <point x="738" y="165" type="line"/>
      <point x="640" y="490" type="line"/>
      <point x="723" y="490" type="line"/>
    </contour>
    <contour>
      <point x="318" y="584" type="line"/>
      <point x="315" y="702" type="line"/>
      <point x="424" y="702" type="line"/>
      <point x="465" y="584" type="line"/>
    </contour>
    <contour>
      <point x="308" y="794" type="line"/>
      <point x="282" y="1139" type="line"/>
      <point x="291" y="1139" type="line"/>
      <point x="396" y="794" type="line"/>
    </contour>
    <contour>
      <point x="1004" y="702" type="line"/>
      <point x="1004" y="794" type="line"/>
      <point x="858" y="794" type="line"/>
      <point x="858" y="1306" type="line"/>
      <point x="710" y="1306" type="line"/>
      <point x="710" y="794" type="line"/>
      <point x="541" y="794" type="line"/>
      <point x="363" y="1306" type="line"/>
      <point x="171" y="1306" type="line"/>
      <point x="171" y="794" type="line"/>
      <point x="20" y="783" type="line"/>
      <point x="20" y="702" type="line"/>
      <point x="171" y="702" type="line"/>
      <point x="171" y="584" type="line"/>
      <point x="20" y="573" type="line"/>
      <point x="20" y="490" type="line"/>
      <point x="171" y="490" type="line"/>
      <point x="171" y="0" type="line"/>
      <point x="320" y="0" type="line"/>
      <point x="320" y="490" type="line"/>
      <point x="496" y="490" type="line"/>
      <point x="667" y="0" type="line"/>
      <point x="858" y="0" type="line"/>
      <point x="858" y="490" type="line"/>
      <point x="1004" y="490" type="line"/>
      <point x="1004" y="584" type="line"/>
      <point x="858" y="584" type="line"/>
      <point x="858" y="702" type="line"/>
    </contour>
  </outline>
</glyph>
<glyph name="peseta" format="1">
  <advance width="1030"/>
  <unicode hex="20A7"/>
  <outline>
    <contour>
      <point x="348" y="618" type="line" name="hr00"/>
      <point x="348" y="840" type="line"/>
      <point x="695" y="840" type="line"/>
      <point x="676" y="695"/>
      <point x="574" y="618"/>
      <point x="410" y="618" type="curve" smooth="yes"/>
    </contour>
    <contour>
      <point x="410" y="1176" type="line"/>
      <point x="574" y="1176"/>
      <point x="674" y="1117"/>
      <point x="695" y="968" type="curve"/>
      <point x="348" y="968" type="line"/>
      <point x="348" y="1176" type="line"/>
    </contour>
    <contour>
      <point x="1004" y="968" type="line"/>
      <point x="878" y="968" type="line"/>
      <point x="852" y="1214"/>
      <point x="668" y="1306"/>
      <point x="430" y="1306" type="curve" smooth="yes"/>
      <point x="163" y="1306" type="line"/>
      <point x="163" y="968" type="line"/>
      <point x="17" y="957" type="line"/>
      <point x="17" y="840" type="line"/>
      <point x="163" y="840" type="line"/>
      <point x="163" y="0" type="line"/>
      <point x="348" y="0" type="line"/>
      <point x="348" y="488" type="line"/>
      <point x="430" y="488" type="line"/>
      <point x="665" y="488"/>
      <point x="852" y="601"/>
      <point x="879" y="840" type="curve"/>
      <point x="1004" y="840" type="line"/>
    </contour>
  </outline>
</glyph>
<glyph name="uni20B1" format="1">
  <advance width="1030"/>
  <unicode hex="20B1"/>
  <outline>
    <contour>
      <point x="348" y="851" type="line" name="hr00"/>
      <point x="348" y="967" type="line"/>
      <point x="696" y="967" type="line"/>
      <point x="699" y="946"/>
      <point x="701" y="925"/>
      <point x="701" y="901" type="curve" smooth="yes"/>
      <point x="701" y="884"/>
      <point x="699" y="866"/>
      <point x="696" y="851" type="curve"/>
    </contour>
    <contour>
      <point x="348" y="618" type="line"/>
      <point x="348" y="760" type="line"/>
      <point x="673" y="760" type="line"/>
      <point x="632" y="667"/>
      <point x="542" y="618"/>
      <point x="410" y="618" type="curve" smooth="yes"/>
    </contour>
    <contour>
      <point x="410" y="1176" type="line"/>
      <point x="538" y="1176"/>
      <point x="626" y="1141"/>
      <point x="669" y="1057" type="curve"/>
      <point x="348" y="1057" type="line"/>
      <point x="348" y="1176" type="line"/>
    </contour>
    <contour>
      <point x="1004" y="1057" type="line"/>
      <point x="861" y="1057" type="line"/>
      <point x="802" y="1237"/>
      <point x="637" y="1306"/>
      <point x="430" y="1306" type="curve" smooth="yes"/>
      <point x="163" y="1306" type="line"/>
      <point x="163" y="1056" type="line"/>
      <point x="17" y="1048" type="line"/>
      <point x="17" y="967" type="line"/>
      <point x="163" y="967" type="line"/>
      <point x="163" y="850" type="line"/>
      <point x="17" y="840" type="line"/>
      <point x="17" y="760" type="line"/>
      <point x="163" y="760" type="line"/>
      <point x="163" y="0" type="line"/>
      <point x="348" y="0" type="line"/>
      <point x="348" y="488" type="line"/>
      <point x="430" y="488" type="line"/>
      <point x="638" y="488"/>
      <point x="808" y="576"/>
      <point x="862" y="760" type="curve"/>
      <point x="1004" y="760" type="line"/>
      <point x="1004" y="851" type="line"/>
      <point x="879" y="851" type="line"/>
      <point x="881" y="866"/>
      <point x="881" y="884"/>
      <point x="881" y="901" type="curve" smooth="yes"/>
      <point x="881" y="925"/>
      <point x="880" y="946"/>
      <point x="878" y="967" type="curve"/>
      <point x="1004" y="967" type="line"/>
    </contour>
  </outline>
</glyph>
<glyph name="uni20B5" format="1">
  <advance width="1030"/>
  <unicode hex="20B5"/>
  <outline>
    <contour>
      <point x="574" y="138" type="line" name="hr01"/>
      <point x="411" y="176"/>
      <point x="320" y="368"/>
      <point x="320" y="656" type="curve" smooth="yes"/>
      <point x="320" y="932"/>
      <point x="409" y="1120"/>
      <point x="574" y="1165" type="curve"/>
    </contour>
    <contour>
      <point x="882" y="268" type="line"/>
      <point x="826" y="194"/>
      <point x="767" y="149"/>
      <point x="692" y="134" type="curve"/>
      <point x="692" y="1174" type="line"/>
      <point x="762" y="1165"/>
      <point x="816" y="1123"/>
      <point x="862" y="1062" type="curve"/>
      <point x="975" y="1170" type="line"/>
      <point x="906" y="1255"/>
      <point x="805" y="1320"/>
      <point x="692" y="1330" type="curve"/>
      <point x="692" y="1523" type="line"/>
      <point x="574" y="1523" type="line"/>
      <point x="574" y="1323" type="line" name="hr02"/>
      <point x="300" y="1280"/>
      <point x="122" y="1032"/>
      <point x="122" y="650" type="curve" smooth="yes"/>
      <point x="122" y="251"/>
      <point x="306" y="6"/>
      <point x="574" y="-22" type="curve"/>
      <point x="574" y="-225" type="line"/>
      <point x="692" y="-225" type="line"/>
      <point x="692" y="-19" type="line" name="hr03"/>
      <point x="815" y="-3"/>
      <point x="913" y="64"/>
      <point x="993" y="166" type="curve"/>
    </contour>
  </outline>
</glyph>
<glyph name="trademark" format="1">
  <advance width="1322"/>
  <unicode hex="2122"/>
  <outline>
    <contour>
      <point x="677" y="748" type="line" name="hr01"/>
      <point x="809" y="748" type="line"/>
      <point x="809" y="1013" type="line"/>
      <point x="793" y="1232" type="line"/>
      <point x="802" y="1232" type="line"/>
      <point x="942" y="846" type="line" name="hr02"/>
      <point x="1041" y="846" type="line"/>
      <point x="1181" y="1232" type="line"/>
      <point x="1189" y="1232" type="line"/>
      <point x="1174" y="1013" type="line"/>
      <point x="1174" y="748" type="line"/>
      <point x="1304" y="748" type="line"/>
      <point x="1304" y="1384" type="line"/>
      <point x="1139" y="1384" type="line"/>
      <point x="1049" y="1163" type="line"/>
      <point x="996" y="1006" type="line"/>
      <point x="988" y="1006" type="line"/>
      <point x="936" y="1163" type="line"/>
      <point x="844" y="1384" type="line" name="hr03"/>
      <point x="677" y="1384" type="line"/>
    </contour>
    <contour>
      <point x="205" y="748" type="line"/>
      <point x="341" y="748" type="line"/>
      <point x="341" y="1262" type="line"/>
      <point x="541" y="1262" type="line"/>
      <point x="541" y="1384" type="line"/>
      <point x="6" y="1384" type="line"/>
      <point x="6" y="1262" type="line"/>
      <point x="205" y="1262" type="line"/>
    </contour>
  </outline>
</glyph>
<glyph name="arrowleft" format="1">
  <advance width="1267"/>
  <unicode hex="2190"/>
  <outline>
    <contour>
      <point x="52" y="520" type="line" name="hr00"/>
      <point x="52" y="512" type="line"/>
      <point x="612" y="-32" type="line"/>
      <point x="709" y="75" type="line"/>
      <point x="317" y="437" type="line"/>
      <point x="1185" y="437" type="line"/>
      <point x="1185" y="595" type="line"/>
      <point x="317" y="595" type="line"/>
      <point x="709" y="957" type="line"/>
      <point x="612" y="1064" type="line"/>
    </contour>
  </outline>
</glyph>
<glyph name="product" format="1">
  <advance width="1392"/>
  <unicode hex="220F"/>
  <outline>
    <contour>
      <point x="179" y="-246" type="line" name="hr00"/>
      <point x="373" y="-246" type="line"/>
      <point x="373" y="1135" type="line"/>
      <point x="1018" y="1135" type="line"/>
      <point x="1018" y="-246" type="line"/>
      <point x="1215" y="-246" type="line"/>
      <point x="1215" y="1306" type="line"/>
      <point x="179" y="1306" type="line"/>
    </contour>
  </outline>
</glyph>
<glyph name="summation" format="1">
  <advance width="1043"/>
  <unicode hex="2211"/>
  <outline>
    <contour>
      <point x="46" y="-124" type="line" name="hr00"/>
      <point x="46" y="-246" type="line"/>
      <point x="1035" y="-246" type="line"/>
      <point x="1035" y="-80" type="line"/>
      <point x="289" y="-80" type="line"/>
      <point x="289" y="-72" type="line"/>
      <point x="726" y="531" type="line"/>
      <point x="308" y="1132" type="line"/>
      <point x="308" y="1140" type="line"/>
      <point x="979" y="1140" type="line"/>
      <point x="979" y="1306" type="line"/>
      <point x="69" y="1306" type="line"/>
      <point x="69" y="1184" type="line"/>
      <point x="522" y="529" type="line"/>
    </contour>
  </outline>
</glyph>
<glyph name="infinity" format="1">
  <advance width="1614"/>
  <unicode hex="221E"/>
  <outline>
    <contour>
      <point x="397" y="330" type="curve" smooth="yes" name="hr01"/>
      <point x="564" y="330"/>
      <point x="677" y="453"/>
      <point x="748" y="537" type="curve"/>
      <point x="757" y="537" type="line"/>
      <point x="880" y="380"/>
      <point x="997" y="288"/>
      <point x="1170" y="288" type="curve" smooth="yes" name="hr02"/>
      <point x="1377" y="288"/>
      <point x="1533" y="445"/>
      <point x="1533" y="689" type="curve" smooth="yes"/>
      <point x="1533" y="903"/>
      <point x="1381" y="1057"/>
      <point x="1175" y="1057" type="curve" smooth="yes"/>
      <point x="1003" y="1057"/>
      <point x="876" y="944"/>
      <point x="779" y="814" type="curve"/>
      <point x="771" y="814" type="line"/>
      <point x="697" y="913"/>
      <point x="589" y="1024"/>
      <point x="425" y="1024" type="curve" smooth="yes" name="hr03"/>
      <point x="226" y="1024"/>
      <point x="81" y="887"/>
      <point x="81" y="661" type="curve" smooth="yes"/>
      <point x="81" y="480"/>
      <point x="222" y="330"/>
    </contour>
    <contour>
      <point x="848" y="700" type="curve" name="hr04"/>
      <point x="944" y="836"/>
      <point x="1044" y="910"/>
      <point x="1156" y="910" type="curve" smooth="yes"/>
      <point x="1299" y="910"/>
      <point x="1383" y="818"/>
      <point x="1383" y="683" type="curve" smooth="yes"/>
      <point x="1383" y="569"/>
      <point x="1306" y="470"/>
      <point x="1172" y="470" type="curve" smooth="yes"/>
      <point x="1047" y="470"/>
      <point x="956" y="555"/>
    </contour>
    <contour>
      <point x="416" y="475" type="curve" smooth="yes" name="hr05"/>
      <point x="309" y="475"/>
      <point x="228" y="559"/>
      <point x="228" y="667" type="curve" smooth="yes"/>
      <point x="228" y="775"/>
      <point x="302" y="841"/>
      <point x="410" y="841" type="curve" smooth="yes"/>
      <point x="511" y="841"/>
      <point x="597" y="766"/>
      <point x="678" y="654" type="curve"/>
      <point x="611" y="554"/>
      <point x="523" y="475"/>
    </contour>
  </outline>
</glyph>
<glyph name="integral" format="1">
  <advance width="702"/>
  <unicode hex="222B"/>
  <outline>
    <contour>
      <point x="125" y="-165" type="curve" name="hr01"/>
      <point x="102" y="-309" type="line"/>
      <point x="122" y="-317"/>
      <point x="161" y="-324"/>
      <point x="205" y="-324" type="curve" smooth="yes"/>
      <point x="454" y="-324"/>
      <point x="506" y="-120"/>
      <point x="506" y="152" type="curve" smooth="yes"/>
      <point x="506" y="462"/>
      <point x="423" y="847"/>
      <point x="423" y="1147" type="curve" smooth="yes"/>
      <point x="423" y="1355"/>
      <point x="444" y="1469"/>
      <point x="556" y="1469" type="curve" smooth="yes" name="hr02"/>
      <point x="584" y="1469"/>
      <point x="609" y="1465"/>
      <point x="627" y="1460" type="curve"/>
      <point x="650" y="1604" type="line"/>
      <point x="632" y="1610"/>
      <point x="592" y="1617"/>
      <point x="549" y="1617" type="curve" smooth="yes"/>
      <point x="298" y="1617"/>
      <point x="247" y="1411"/>
      <point x="247" y="1143" type="curve" smooth="yes"/>
      <point x="247" y="833"/>
      <point x="331" y="445"/>
      <point x="331" y="144" type="curve" smooth="yes"/>
      <point x="331" y="-66"/>
      <point x="310" y="-173"/>
      <point x="195" y="-173" type="curve" smooth="yes" name="hr03"/>
      <point x="167" y="-173"/>
      <point x="142" y="-171"/>
    </contour>
  </outline>
</glyph>
<glyph name="filledbox" format="1">
  <advance width="642"/>
  <unicode hex="25A0"/>
  <outline>
    <contour>
      <point x="111" y="755" type="line"/>
      <point x="111" y="324" type="line"/>
      <point x="531" y="324" type="line"/>
      <point x="531" y="755" type="line"/>
    </contour>
  </outline>
</glyph>
<glyph name="whiterightpointingtriangle" format="1">
  <advance width="1177"/>
  <unicode hex="25B7"/>
  <outline>
    <contour>
      <point x="851" y="578" type="line"/>
      <point x="250" y="268" type="line"/>
      <point x="250" y="885" type="line"/>
    </contour>
    <contour>
      <point x="116" y="1119" type="line"/>
      <point x="116" y="34" type="line"/>
      <point x="120" y="34" type="line"/>
      <point x="1142" y="573" type="line"/>
      <point x="1142" y="582" type="line"/>
      <point x="120" y="1119" type="line"/>
    </contour>
  </outline>
</glyph>
<glyph name="musicalnote" format="1">
  <advance width="1045"/>
  <unicode hex="266A"/>
  <outline>
    <contour>
      <point x="386" y="354" type="curve" smooth="yes"/>
      <point x="195" y="354"/>
      <point x="58" y="237"/>
      <point x="58" y="108" type="curve" smooth="yes"/>
      <point x="58" y="3"/>
      <point x="158" y="-50"/>
      <point x="269" y="-50" type="curve" smooth="yes"/>
      <point x="468" y="-50"/>
      <point x="630" y="71"/>
      <point x="630" y="303" type="curve" smooth="yes"/>
      <point x="630" y="1119" type="line"/>
      <point x="791" y="1069"/>
      <point x="881" y="943"/>
      <point x="881" y="815" type="curve" smooth="yes"/>
      <point x="881" y="741"/>
      <point x="874" y="692"/>
      <point x="854" y="627" type="curve"/>
      <point x="932" y="598" type="line"/>
      <point x="965" y="663"/>
      <point x="1003" y="765"/>
      <point x="1003" y="872" type="curve" smooth="yes"/>
      <point x="1003" y="1029"/>
      <point x="951" y="1145"/>
      <point x="766" y="1276" type="curve" smooth="yes"/>
      <point x="663" y="1349"/>
      <point x="643" y="1367"/>
      <point x="621" y="1421" type="curve"/>
      <point x="509" y="1421" type="line"/>
      <point x="509" y="330" type="line"/>
      <point x="490" y="342"/>
      <point x="439" y="354"/>
    </contour>
  </outline>
</glyph>
<glyph name="uni2713" format="1">
  <advance width="1266"/>
  <unicode hex="2713"/>
  <outline>
    <contour>
      <point x="510" y="-18" type="line"/>
      <point x="667" y="541"/>
      <point x="959" y="996"/>
      <point x="1274" y="1289" type="curve"/>
      <point x="1150" y="1402" type="line"/>
      <point x="837" y="1093"/>
      <point x="553" y="600"/>
      <point x="407" y="114" type="curve"/>
      <point x="399" y="114" type="line"/>
      <point x="335" y="294"/>
      <point x="243" y="481"/>
      <point x="132" y="651" type="curve"/>
      <point x="3" y="564" type="line"/>
      <point x="135" y="376"/>
      <point x="232" y="185"/>
      <point x="314" y="-41" type="curve"/>
    </contour>
  </outline>
</glyph>
<glyph name="uni2752" format="1">
  <advance width="785"/>
  <unicode hex="2752"/>
  <outline>
    <contour>
      <point x="192" y="321" type="line"/>
      <point x="192" y="665" type="line"/>
      <point x="523" y="665" type="line"/>
      <point x="523" y="321" type="line"/>
    </contour>
    <contour>
      <point x="111" y="242" type="line"/>
      <point x="571" y="242" type="line"/>
      <point x="674" y="365" type="line"/>
      <point x="674" y="816" type="line"/>
      <point x="234" y="816" type="line"/>
      <point x="111" y="713" type="line"/>
    </contour>
  </outline>
</glyph>
<glyph name="commaaccent" format="1">
  <advance width="416"/>
  <unicode hex="F6C3"/>
  <outline>
    <contour>
      <point x="186" y="-96" type="curve" name="hr00"/>
      <point x="144" y="-180" type="line"/>
      <point x="204" y="-194"/>
      <point x="247" y="-217"/>
      <point x="247" y="-267" type="curve" smooth="yes"/>
      <point x="247" y="-319"/>
      <point x="172" y="-345"/>
      <point x="68" y="-358" type="curve"/>
      <point x="85" y="-447" type="line"/>
      <point x="248" y="-435"/>
      <point x="394" y="-379"/>
      <point x="394" y="-256" type="curve" smooth="yes"/>
      <point x="394" y="-163"/>
      <point x="332" y="-116"/>
    </contour>
    <contour>
      <point x="231" y="1050" type="move" name="_top"/>
    </contour>
  </outline>
</glyph>
<glyph name="Icircumflex.a" format="1">
  <advance width="724"/>
  <outline>
    <contour>
      <point x="96" y="0" type="line"/>
      <point x="624" y="0" type="line"/>
      <point x="624" y="165" type="line"/>
      <point x="458" y="165" type="line"/>
      <point x="458" y="1178" type="line"/>
      <point x="624" y="1178" type="line"/>
      <point x="624" y="1342" type="line"/>
      <point x="96" y="1342" type="line"/>
      <point x="96" y="1178" type="line"/>
      <point x="264" y="1178" type="line"/>
      <point x="264" y="165" type="line"/>
      <point x="96" y="165" type="line"/>
    </contour>
    <contour>
      <point x="226" y="1445" type="line"/>
      <point x="358" y="1581" type="line"/>
      <point x="366" y="1581" type="line"/>
      <point x="498" y="1445" type="line"/>
      <point x="653" y="1445" type="line"/>
      <point x="456" y="1676" type="line"/>
      <point x="268" y="1676" type="line"/>
      <point x="72" y="1445" type="line"/>
    </contour>
  </outline>
</glyph>
<glyph name="Igrave.a" format="1">
  <advance width="724"/>
  <outline>
    <contour>
      <point x="96" y="0" type="line"/>
      <point x="624" y="0" type="line"/>
      <point x="624" y="165" type="line"/>
      <point x="458" y="165" type="line"/>
      <point x="458" y="1178" type="line"/>
      <point x="624" y="1178" type="line"/>
      <point x="624" y="1342" type="line"/>
      <point x="96" y="1342" type="line"/>
      <point x="96" y="1178" type="line"/>
      <point x="264" y="1178" type="line"/>
      <point x="264" y="165" type="line"/>
      <point x="96" y="165" type="line"/>
    </contour>
    <contour>
      <point x="315" y="1445" type="line"/>
      <point x="476" y="1445" type="line"/>
      <point x="297" y="1676" type="line"/>
      <point x="82" y="1676" type="line"/>
    </contour>
  </outline>
</glyph>
<glyph name="Itilde.a" format="1">
  <advance width="724"/>
  <outline>
    <contour>
      <point x="96" y="0" type="line"/>
      <point x="624" y="0" type="line"/>
      <point x="624" y="165" type="line"/>
      <point x="458" y="165" type="line"/>
      <point x="458" y="1178" type="line"/>
      <point x="624" y="1178" type="line"/>
      <point x="624" y="1342" type="line"/>
      <point x="96" y="1342" type="line"/>
      <point x="96" y="1178" type="line"/>
      <point x="264" y="1178" type="line"/>
      <point x="264" y="165" type="line"/>
      <point x="96" y="165" type="line"/>
    </contour>
    <contour>
      <point x="486" y="1453" type="curve" smooth="yes"/>
      <point x="585" y="1453"/>
      <point x="655" y="1548"/>
      <point x="668" y="1685" type="curve"/>
      <point x="563" y="1685" type="line"/>
      <point x="553" y="1618"/>
      <point x="520" y="1581"/>
      <point x="482" y="1581" type="curve" smooth="yes"/>
      <point x="408" y="1581"/>
      <point x="347" y="1685"/>
      <point x="238" y="1685" type="curve" smooth="yes"/>
      <point x="138" y="1685"/>
      <point x="70" y="1591"/>
      <point x="55" y="1453" type="curve"/>
      <point x="161" y="1453" type="line"/>
      <point x="172" y="1523"/>
      <point x="204" y="1557"/>
      <point x="242" y="1557" type="curve" smooth="yes"/>
      <point x="315" y="1557"/>
      <point x="377" y="1453"/>
    </contour>
  </outline>
</glyph>
<glyph name="a.a" format="1">
  <advance width="1144"/>
  <outline>
    <contour>
      <point x="292" y="499" type="curve" smooth="yes"/>
      <point x="292" y="726"/>
      <point x="410" y="864"/>
      <point x="565" y="864" type="curve" smooth="yes"/>
      <point x="646" y="864"/>
      <point x="710" y="837"/>
      <point x="788" y="766" type="curve"/>
      <point x="788" y="265" type="line"/>
      <point x="712" y="177"/>
      <point x="646" y="136"/>
      <point x="555" y="136" type="curve" smooth="yes"/>
      <point x="384" y="136"/>
      <point x="292" y="263"/>
    </contour>
    <contour>
      <point x="93" y="497" type="curve" smooth="yes"/>
      <point x="93" y="158"/>
      <point x="248" y="-25"/>
      <point x="509" y="-25" type="curve" smooth="yes"/>
      <point x="628" y="-25"/>
      <point x="726" y="36"/>
      <point x="801" y="114" type="curve"/>
      <point x="807" y="114" type="line"/>
      <point x="823" y="0" type="line"/>
      <point x="982" y="0" type="line"/>
      <point x="982" y="999" type="line"/>
      <point x="826" y="999" type="line"/>
      <point x="810" y="902" type="line"/>
      <point x="805" y="902" type="line"/>
      <point x="721" y="985"/>
      <point x="644" y="1024"/>
      <point x="530" y="1024" type="curve" smooth="yes"/>
      <point x="296" y="1024"/>
      <point x="93" y="829"/>
    </contour>
    <contour>
      <point x="811" y="0" type="move" name="mark0"/>
    </contour>
  </outline>
</glyph>
<glyph name="anusvara-deva.001" format="1">
  <advance width="540"/>
  <outline>
    <contour>
      <point x="330" y="1592"/>
      <point x="300" y="1563"/>
      <point x="300" y="1494" type="curve" smooth="yes"/>
      <point x="300" y="1427"/>
      <point x="330" y="1398"/>
      <point x="399" y="1398" type="curve" smooth="yes"/>
      <point x="468" y="1398"/>
      <point x="497" y="1427"/>
      <point x="497" y="1494" type="curve" smooth="yes"/>
      <point x="497" y="1563"/>
      <point x="468" y="1592"/>
      <point x="399" y="1592" type="curve" smooth="yes"/>
    </contour>
    <contour>
      <point x="265" y="1167" type="move" name="_top"/>
    </contour>
  </outline>
</glyph>
<glyph name="b-deva" format="1">
  <advance width="604"/>
  <outline>
    <contour>
      <point x="280" y="947"/>
      <point x="77" y="872"/>
      <point x="77" y="565" type="curve" smooth="yes"/>
      <point x="77" y="374"/>
      <point x="161" y="184"/>
      <point x="429" y="184" type="curve" smooth="yes"/>
      <point x="593" y="184"/>
      <point x="739" y="248"/>
      <point x="844" y="393" type="curve"/>
      <point x="814" y="585" type="line"/>
      <point x="727" y="434"/>
      <point x="620" y="334"/>
      <point x="461" y="334" type="curve" smooth="yes"/>
      <point x="324" y="334"/>
      <point x="263" y="395"/>
      <point x="263" y="556" type="curve" smooth="yes"/>
      <point x="263" y="748"/>
      <point x="334" y="790"/>
      <point x="492" y="793" type="curve" smooth="yes"/>
      <point x="590" y="796"/>
      <point x="746" y="758"/>
      <point x="858" y="666" type="curve"/>
      <point x="901" y="812" type="line"/>
      <point x="822" y="894"/>
      <point x="639" y="946"/>
      <point x="489" y="947" type="curve" smooth="yes"/>
    </contour>
    <contour>
      <point x="-18" y="1277" type="line"/>
      <point x="-18" y="1114" type="line"/>
      <point x="616" y="1114" type="line"/>
      <point x="616" y="1277" type="line"/>
    </contour>
    <contour>
      <point x="241" y="759" type="line"/>
      <point x="701" y="296" type="line"/>
      <point x="794" y="392" type="line"/>
      <point x="335" y="855" type="line"/>
    </contour>
  </outline>
</glyph>
<glyph name="bh_r_ya-deva" format="1">
  <advance width="1961"/>
  <outline>
    <contour>
      <point x="1031" y="425" type="line"/>
      <point x="917" y="532" type="line"/>
      <point x="276" y="77" type="line"/>
      <point x="390" y="-60" type="line"/>
    </contour>
    <contour>
      <point x="170" y="1298"/>
      <point x="122" y="1289"/>
      <point x="76" y="1272" type="curve"/>
      <point x="99" y="1114" type="line"/>
      <point x="131" y="1121"/>
      <point x="166" y="1128"/>
      <point x="199" y="1128" type="curve" smooth="yes"/>
      <point x="252" y="1129"/>
      <point x="283" y="1107"/>
      <point x="283" y="1037" type="curve" smooth="yes"/>
      <point x="283" y="549" type="line"/>
      <point x="472" y="549" type="line"/>
      <point x="472" y="1033" type="line" smooth="yes"/>
      <point x="472" y="1162"/>
      <point x="451" y="1298"/>
      <point x="234" y="1298" type="curve" smooth="yes"/>
    </contour>
    <contour>
      <point x="319" y="648" type="line"/>
      <point x="136" y="627" type="line"/>
      <point x="136" y="496" type="line"/>
      <point x="317" y="294" type="line"/>
      <point x="444" y="295"/>
      <point x="471" y="358"/>
      <point x="471" y="433" type="curve" smooth="yes"/>
      <point x="471" y="648" type="line"/>
    </contour>
    <contour>
      <point x="288" y="643" type="line"/>
      <point x="288" y="475" type="line"/>
      <point x="1012" y="475" type="line"/>
      <point x="1012" y="643" type="line"/>
    </contour>
    <contour>
      <point x="683" y="1277" type="line"/>
      <point x="683" y="1114" type="line"/>
      <point x="1253" y="1114" type="line"/>
      <point x="1253" y="1277" type="line"/>
    </contour>
    <component base="ya-deva" xOffset="803"/>
    <contour>
      <point x="1053" y="72" type="move" name="nukta"/>
    </contour>
    <contour>
      <point x="1684" y="1167" type="move" name="top"/>
    </contour>
    <contour>
      <point x="1396" y="1167" type="move" name="topcandra"/>
    </contour>
    <contour>
      <point x="1684" y="27" type="move" name="bottom"/>
    </contour>
  </outline>
</glyph>
<glyph name="ch-deva" format="1">
  <advance width="1293"/>
  <outline>
    <contour>
      <point x="741" y="980"/>
      <point x="657" y="863"/>
      <point x="658" y="730" type="curve" smooth="yes"/>
      <point x="658" y="619"/>
      <point x="718" y="535"/>
      <point x="797" y="473" type="curve"/>
      <point x="897" y="557" type="line"/>
      <point x="854" y="611"/>
      <point x="824" y="655"/>
      <point x="824" y="716" type="curve" smooth="yes"/>
      <point x="824" y="788"/>
      <point x="866" y="833"/>
      <point x="933" y="833" type="curve" smooth="yes"/>
      <point x="1008" y="833"/>
      <point x="1054" y="778"/>
      <point x="1054" y="648" type="curve" smooth="yes"/>
      <point x="1055" y="399"/>
      <point x="825" y="233"/>
      <point x="559" y="233" type="curve" smooth="yes"/>
      <point x="347" y="233"/>
      <point x="281" y="312"/>
      <point x="281" y="419" type="curve" smooth="yes"/>
      <point x="281" y="570"/>
      <point x="412" y="598"/>
      <point x="560" y="601" type="curve"/>
      <point x="557" y="759" type="line"/>
      <point x="541" y="760"/>
      <point x="524" y="760"/>
      <point x="511" y="760" type="curve" smooth="yes"/>
      <point x="287" y="757"/>
      <point x="87" y="649"/>
      <point x="87" y="433" type="curve" smooth="yes"/>
      <point x="87" y="212"/>
      <point x="255" y="64"/>
      <point x="563" y="64" type="curve" smooth="yes"/>
      <point x="915" y="64"/>
      <point x="1228" y="297"/>
      <point x="1228" y="648" type="curve" smooth="yes"/>
      <point x="1228" y="874"/>
      <point x="1102" y="980"/>
      <point x="926" y="980" type="curve" smooth="yes"/>
    </contour>
    <contour>
      <point x="233" y="1183"/>
      <point x="83" y="1115"/>
      <point x="86" y="921" type="curve" smooth="yes"/>
      <point x="91" y="796"/>
      <point x="185" y="717"/>
      <point x="367" y="641" type="curve"/>
      <point x="470" y="690" type="line"/>
      <point x="317" y="771"/>
      <point x="283" y="834"/>
      <point x="283" y="924" type="curve" smooth="yes"/>
      <point x="283" y="1027"/>
      <point x="362" y="1104"/>
      <point x="507" y="1116" type="curve"/>
      <point x="530" y="1206" type="line"/>
    </contour>
    <contour>
      <point x="-10" y="1277" type="line"/>
      <point x="-10" y="1114" type="line"/>
      <point x="1311" y="1114" type="line"/>
      <point x="1311" y="1277" type="line"/>
    </contour>
  </outline>
</glyph>
<glyph name="ch_va-deva" format="1">
  <advance width="1327"/>
  <outline>
    <contour>
      <point x="788" y="998"/>
      <point x="705" y="899"/>
      <point x="706" y="775" type="curve" smooth="yes"/>
      <point x="706" y="677"/>
      <point x="762" y="606"/>
      <point x="837" y="547" type="curve"/>
      <point x="937" y="600" type="line"/>
      <point x="894" y="654"/>
      <point x="878" y="693"/>
      <point x="878" y="740" type="curve" smooth="yes"/>
      <point x="878" y="806"/>
      <point x="915" y="852"/>
      <point x="987" y="852" type="curve" smooth="yes"/>
      <point x="1063" y="852"/>
      <point x="1109" y="795"/>
      <point x="1109" y="695" type="curve" smooth="yes"/>
      <point x="1109" y="492"/>
      <point x="885" y="332"/>
      <point x="580" y="332" type="curve" smooth="yes"/>
      <point x="368" y="332"/>
      <point x="302" y="404"/>
      <point x="302" y="500" type="curve" smooth="yes"/>
      <point x="302" y="645"/>
      <point x="439" y="673"/>
      <point x="581" y="675" type="curve"/>
      <point x="578" y="833" type="line"/>
      <point x="562" y="834"/>
      <point x="545" y="834"/>
      <point x="532" y="834" type="curve" smooth="yes"/>
      <point x="308" y="831"/>
      <point x="108" y="721"/>
      <point x="108" y="500" type="curve" smooth="yes"/>
      <point x="108" y="303"/>
      <point x="276" y="163"/>
      <point x="585" y="163" type="curve" smooth="yes"/>
      <point x="976" y="163"/>
      <point x="1283" y="392"/>
      <point x="1283" y="696" type="curve" smooth="yes"/>
      <point x="1283" y="897"/>
      <point x="1158" y="999"/>
      <point x="979" y="999" type="curve" smooth="yes"/>
    </contour>
    <contour>
      <point x="453" y="66"/>
      <point x="322" y="-55"/>
      <point x="322" y="-253" type="curve" smooth="yes"/>
      <point x="322" y="-448"/>
      <point x="450" y="-581"/>
      <point x="651" y="-581" type="curve" smooth="yes"/>
      <point x="755" y="-581"/>
      <point x="898" y="-545"/>
      <point x="974" y="-408" type="curve"/>
      <point x="923" y="-291" type="line"/>
      <point x="864" y="-378"/>
      <point x="762" y="-427"/>
      <point x="658" y="-427" type="curve" smooth="yes"/>
      <point x="560" y="-427"/>
      <point x="501" y="-383"/>
      <point x="501" y="-266" type="curve" smooth="yes"/>
      <point x="501" y="-126"/>
      <point x="585" y="-94"/>
      <point x="686" y="-93" type="curve" smooth="yes"/>
      <point x="748" y="-91"/>
      <point x="857" y="-102"/>
      <point x="970" y="-150" type="curve"/>
      <point x="970" y="-50" type="line"/>
      <point x="900" y="27"/>
      <point x="781" y="66"/>
      <point x="659" y="66" type="curve" smooth="yes"/>
    </contour>
    <contour>
      <point x="890" y="311" type="line"/>
      <point x="890" y="-657" type="line"/>
      <point x="1069" y="-657" type="line"/>
      <point x="1069" y="311" type="line"/>
    </contour>
    <contour>
      <point x="263" y="1205"/>
      <point x="111" y="1165"/>
      <point x="111" y="975" type="curve" smooth="yes"/>
      <point x="111" y="870"/>
      <point x="193" y="782"/>
      <point x="388" y="700" type="curve"/>
      <point x="490" y="750" type="line"/>
      <point x="342" y="827"/>
      <point x="303" y="893"/>
      <point x="303" y="972" type="curve" smooth="yes"/>
      <point x="303" y="1076"/>
      <point x="366" y="1123"/>
      <point x="522" y="1136" type="curve"/>
      <point x="545" y="1226" type="line"/>
    </contour>
    <contour>
      <point x="-18" y="1277" type="line"/>
      <point x="-18" y="1114" type="line"/>
      <point x="1344" y="1114" type="line"/>
      <point x="1344" y="1277" type="line"/>
    </contour>
    <contour>
      <point x="886" y="1219" type="line"/>
      <point x="886" y="896" type="line"/>
      <point x="1071" y="896" type="line"/>
      <point x="1071" y="1219" type="line"/>
    </contour>
    <contour>
      <point x="979" y="1167" type="move" name="top"/>
    </contour>
    <contour>
      <point x="979" y="-638" type="move" name="bottom"/>
    </contour>
    <contour>
      <point x="676" y="1167" type="move" name="topcandra"/>
    </contour>
  </outline>
</glyph>
<glyph name="d_ba-deva" format="1">
  <advance width="1010"/>
  <outline>
    <contour>
      <point x="-18" y="1277" type="line"/>
      <point x="-18" y="1114" type="line"/>
      <point x="1027" y="1114" type="line"/>
      <point x="1027" y="1277" type="line"/>
    </contour>
    <contour>
      <point x="622" y="1145" type="line"/>
      <point x="622" y="846" type="line"/>
      <point x="742" y="874" type="line"/>
      <point x="661" y="898"/>
      <point x="595" y="906"/>
      <point x="542" y="906" type="curve" smooth="yes"/>
      <point x="199" y="906"/>
      <point x="65" y="746"/>
      <point x="65" y="503" type="curve" smooth="yes"/>
      <point x="65" y="251"/>
      <point x="220" y="76"/>
      <point x="548" y="76" type="curve" smooth="yes"/>
      <point x="656" y="76"/>
      <point x="744" y="89"/>
      <point x="826" y="144" type="curve" smooth="yes"/>
      <point x="887" y="184"/>
      <point x="924" y="262"/>
      <point x="924" y="324" type="curve" smooth="yes"/>
      <point x="924" y="424"/>
      <point x="829" y="497"/>
      <point x="717" y="527" type="curve"/>
      <point x="611" y="444" type="line"/>
      <point x="712" y="233" type="line"/>
      <point x="792" y="315" type="line"/>
      <point x="695" y="251"/>
      <point x="639" y="227"/>
      <point x="533" y="227" type="curve" smooth="yes"/>
      <point x="359" y="227"/>
      <point x="262" y="292"/>
      <point x="262" y="480" type="curve" smooth="yes"/>
      <point x="262" y="688"/>
      <point x="373" y="738"/>
      <point x="588" y="738" type="curve" smooth="yes"/>
      <point x="693" y="738"/>
      <point x="758" y="733"/>
      <point x="811" y="730" type="curve"/>
      <point x="811" y="1145" type="line"/>
    </contour>
    <contour>
      <point x="710" y="-76"/>
      <point x="591" y="-277"/>
      <point x="406" y="-275" type="curve" smooth="yes"/>
      <point x="308" y="-275"/>
      <point x="245" y="-222"/>
      <point x="244" y="-137" type="curve" smooth="yes"/>
      <point x="242" y="-2"/>
      <point x="362" y="67"/>
      <point x="443" y="112" type="curve"/>
      <point x="393" y="231" type="line"/>
      <point x="293" y="181"/>
      <point x="78" y="60"/>
      <point x="77" y="-139" type="curve" smooth="yes"/>
      <point x="75" y="-306"/>
      <point x="190" y="-422"/>
      <point x="385" y="-422" type="curve" smooth="yes"/>
      <point x="773" y="-425"/>
      <point x="858" y="-13"/>
      <point x="851" y="210" type="curve"/>
      <point x="732" y="272" type="line"/>
    </contour>
    <contour>
      <point x="269" y="45" type="line"/>
      <point x="622" y="-308" type="line"/>
      <point x="699" y="-206" type="line"/>
      <point x="347" y="145" type="line"/>
    </contour>
    <contour>
      <point x="748" y="215" type="line"/>
      <point x="935" y="-155" type="line"/>
      <point x="1069" y="-66" type="line"/>
      <point x="846" y="266" type="line"/>
    </contour>
    <contour>
      <point x="716" y="1167" type="move" name="top"/>
    </contour>
    <contour>
      <point x="890" y="-140" type="move" name="bottom"/>
    </contour>
    <contour>
      <point x="710" y="1167" type="move" name="topcandra"/>
    </contour>
  </outline>
</glyph>
<glyph name="d_g_ra-deva" format="1">
  <advance width="1031"/>
  <outline>
    <contour>
      <point x="246" y="-34" type="line"/>
      <point x="105" y="-69" type="line"/>
      <point x="105" y="-176" type="line"/>
      <point x="258" y="-323" type="line"/>
      <point x="385" y="-322"/>
      <point x="403" y="-260"/>
      <point x="403" y="-203" type="curve" smooth="yes"/>
      <point x="403" y="-17" type="line"/>
    </contour>
    <contour>
      <point x="229" y="239" type="line"/>
      <point x="229" y="-89" type="line"/>
      <point x="402" y="-72" type="line"/>
      <point x="402" y="239" type="line"/>
    </contour>
    <contour>
      <point x="653" y="227" type="line"/>
      <point x="653" y="-575" type="line"/>
      <point x="826" y="-575" type="line"/>
      <point x="826" y="227" type="line"/>
    </contour>
    <contour>
      <point x="796" y="-257" type="line"/>
      <point x="708" y="-160" type="line"/>
      <point x="199" y="-532" type="line"/>
      <point x="306" y="-660" type="line"/>
    </contour>
    <component base="da-deva"/>
  </outline>
</glyph>
<glyph name="d_na-deva" format="1">
  <advance width="1031"/>
  <outline>
    <contour>
      <point x="504" y="-82" type="line"/>
      <point x="501" y="-145" type="line"/>
      <point x="869" y="186" type="line"/>
      <point x="797" y="287" type="line"/>
      <point x="212" y="-178" type="line"/>
      <point x="315" y="-322" type="line"/>
      <point x="572" y="-384" type="line"/>
      <point x="669" y="-297"/>
      <point x="635" y="-226"/>
      <point x="571" y="-156" type="curve" smooth="yes"/>
    </contour>
    <contour>
      <point x="626" y="1145" type="line"/>
      <point x="626" y="846" type="line"/>
      <point x="746" y="874" type="line"/>
      <point x="665" y="898"/>
      <point x="599" y="906"/>
      <point x="546" y="906" type="curve" smooth="yes"/>
      <point x="203" y="906"/>
      <point x="69" y="746"/>
      <point x="69" y="503" type="curve" smooth="yes"/>
      <point x="69" y="251"/>
      <point x="224" y="74"/>
      <point x="545" y="74" type="curve" smooth="yes"/>
      <point x="660" y="74"/>
      <point x="764" y="101"/>
      <point x="847" y="156" type="curve" smooth="yes"/>
      <point x="907" y="196"/>
      <point x="945" y="262"/>
      <point x="945" y="324" type="curve" smooth="yes"/>
      <point x="945" y="424"/>
      <point x="850" y="497"/>
      <point x="739" y="527" type="curve"/>
      <point x="631" y="446" type="line"/>
      <point x="733" y="233" type="line"/>
      <point x="796" y="315" type="line"/>
      <point x="699" y="251"/>
      <point x="643" y="227"/>
      <point x="537" y="227" type="curve" smooth="yes"/>
      <point x="363" y="227"/>
      <point x="266" y="292"/>
      <point x="266" y="480" type="curve" smooth="yes"/>
      <point x="266" y="688"/>
      <point x="377" y="738"/>
      <point x="592" y="738" type="curve" smooth="yes"/>
      <point x="697" y="738"/>
      <point x="762" y="733"/>
      <point x="815" y="730" type="curve"/>
      <point x="815" y="1145" type="line"/>
    </contour>
    <contour>
      <point x="742" y="215" type="line"/>
      <point x="927" y="-155" type="line"/>
      <point x="1076" y="-66" type="line"/>
      <point x="854" y="266" type="line"/>
    </contour>
    <contour>
      <point x="-18" y="1277" type="line"/>
      <point x="-18" y="1114" type="line"/>
      <point x="1048" y="1114" type="line"/>
      <point x="1048" y="1277" type="line"/>
    </contour>
    <contour>
      <point x="33" y="72" type="move" name="nukta"/>
    </contour>
    <contour>
      <point x="721" y="1167" type="move" name="top"/>
    </contour>
    <contour>
      <point x="529" y="1167" type="move" name="topcandra"/>
    </contour>
    <contour>
      <point x="560" y="13" type="move" name="bottom"/>
    </contour>
  </outline>
</glyph>
<glyph name="dd_gha-deva" format="1">
  <advance width="1101"/>
  <outline>
    <contour>
      <point x="807" y="137"/>
      <point x="993" y="208"/>
      <point x="993" y="433" type="curve" smooth="yes"/>
      <point x="993" y="641"/>
      <point x="834" y="666"/>
      <point x="653" y="664" type="curve" smooth="yes"/>
      <point x="544" y="664"/>
      <point x="416" y="649"/>
      <point x="342" y="635" type="curve"/>
      <point x="362" y="622" type="line"/>
      <point x="351" y="629"/>
      <point x="329" y="683"/>
      <point x="329" y="734" type="curve" smooth="yes"/>
      <point x="329" y="798"/>
      <point x="357" y="816"/>
      <point x="477" y="816" type="curve" smooth="yes"/>
      <point x="811" y="816" type="line"/>
      <point x="790" y="976" type="line"/>
      <point x="429" y="976" type="line" smooth="yes"/>
      <point x="246" y="976"/>
      <point x="165" y="917"/>
      <point x="165" y="788" type="curve" smooth="yes"/>
      <point x="165" y="678"/>
      <point x="224" y="560"/>
      <point x="291" y="505" type="curve"/>
      <point x="323" y="479"/>
      <point x="345" y="478"/>
      <point x="364" y="480" type="curve" smooth="yes"/>
      <point x="423" y="485"/>
      <point x="564" y="504"/>
      <point x="676" y="504" type="curve" smooth="yes"/>
      <point x="792" y="504"/>
      <point x="819" y="478"/>
      <point x="819" y="413" type="curve" smooth="yes"/>
      <point x="819" y="330"/>
      <point x="751" y="292"/>
      <point x="589" y="292" type="curve" smooth="yes"/>
      <point x="389" y="292"/>
      <point x="293" y="346"/>
      <point x="179" y="461" type="curve"/>
      <point x="85" y="369" type="line"/>
      <point x="228" y="197"/>
      <point x="402" y="137"/>
      <point x="579" y="137" type="curve" smooth="yes"/>
    </contour>
    <contour>
      <point x="620" y="-512"/>
      <point x="736" y="-454"/>
      <point x="807" y="-371" type="curve"/>
      <point x="779" y="-207" type="line"/>
      <point x="713" y="-303"/>
      <point x="598" y="-371"/>
      <point x="480" y="-371" type="curve" smooth="yes"/>
      <point x="404" y="-371"/>
      <point x="364" y="-343"/>
      <point x="364" y="-281" type="curve" smooth="yes"/>
      <point x="364" y="-208"/>
      <point x="420" y="-182"/>
      <point x="531" y="-171" type="curve"/>
      <point x="525" y="-42" type="line"/>
      <point x="274" y="-47"/>
      <point x="195" y="-162"/>
      <point x="195" y="-283" type="curve" smooth="yes"/>
      <point x="195" y="-412"/>
      <point x="291" y="-512"/>
      <point x="469" y="-512" type="curve" smooth="yes"/>
    </contour>
    <contour>
      <point x="450" y="-103" type="line"/>
      <point x="385" y="-70"/>
      <point x="329" y="-40"/>
      <point x="329" y="44" type="curve" smooth="yes"/>
      <point x="329" y="105"/>
      <point x="370" y="139"/>
      <point x="466" y="147" type="curve"/>
      <point x="471" y="249" type="line"/>
      <point x="330" y="241"/>
      <point x="157" y="206"/>
      <point x="157" y="56" type="curve" smooth="yes"/>
      <point x="157" y="-32"/>
      <point x="221" y="-100"/>
      <point x="377" y="-152" type="curve"/>
    </contour>
    <contour>
      <point x="913" y="-634" type="line"/>
      <point x="913" y="274" type="line"/>
      <point x="740" y="274" type="line"/>
      <point x="740" y="-634" type="line"/>
    </contour>
    <contour>
      <point x="1118" y="1114" type="line"/>
      <point x="1118" y="1277" type="line"/>
      <point x="-18" y="1277" type="line"/>
      <point x="-18" y="1114" type="line"/>
    </contour>
    <contour>
      <point x="882" y="816" type="line"/>
      <point x="882" y="1227" type="line"/>
      <point x="700" y="1227" type="line"/>
      <point x="700" y="816" type="line"/>
    </contour>
    <contour>
      <point x="792" y="1167" type="move" name="top"/>
    </contour>
    <contour>
      <point x="838" y="-613" type="move" name="bottom"/>
    </contour>
    <contour>
      <point x="570" y="1167" type="move" name="topcandra"/>
    </contour>
  </outline>
</glyph>
<glyph name="dd_ma-deva" format="1">
  <advance width="1624"/>
  <outline>
    <contour>
      <point x="341" y="931" type="line" smooth="yes"/>
      <point x="157" y="929"/>
      <point x="72" y="852"/>
      <point x="72" y="713" type="curve" smooth="yes"/>
      <point x="72" y="599"/>
      <point x="124" y="478"/>
      <point x="190" y="420" type="curve" smooth="yes"/>
      <point x="215" y="398"/>
      <point x="246" y="382"/>
      <point x="281" y="387" type="curve" smooth="yes"/>
      <point x="337" y="396"/>
      <point x="494" y="414"/>
      <point x="582" y="414" type="curve" smooth="yes"/>
      <point x="674" y="414"/>
      <point x="713" y="386"/>
      <point x="713" y="321" type="curve" smooth="yes"/>
      <point x="712" y="191" type="line"/>
      <point x="898" y="188" type="line"/>
      <point x="898" y="335" type="line" smooth="yes"/>
      <point x="897" y="551"/>
      <point x="745" y="591"/>
      <point x="591" y="590" type="curve" smooth="yes"/>
      <point x="497" y="590"/>
      <point x="348" y="573"/>
      <point x="277" y="560" type="curve"/>
      <point x="260" y="592"/>
      <point x="249" y="626"/>
      <point x="249" y="663" type="curve" smooth="yes"/>
      <point x="249" y="730"/>
      <point x="268" y="762"/>
      <point x="399" y="762" type="curve" smooth="yes"/>
      <point x="716" y="762" type="line"/>
      <point x="696" y="932" type="line"/>
    </contour>
    <contour>
      <point x="750" y="230" type="line"/>
      <point x="567" y="208" type="line"/>
      <point x="567" y="80" type="line"/>
      <point x="747" y="-123" type="line"/>
      <point x="872" y="-122"/>
      <point x="899" y="-56"/>
      <point x="899" y="18" type="curve" smooth="yes"/>
      <point x="899" y="227" type="line"/>
    </contour>
    <contour>
      <point x="720" y="228" type="line"/>
      <point x="720" y="62" type="line"/>
      <point x="1367" y="62" type="line"/>
      <point x="1367" y="228" type="line"/>
    </contour>
    <contour>
      <point x="599" y="1149" type="line"/>
      <point x="599" y="762" type="line"/>
      <point x="785" y="762" type="line"/>
      <point x="785" y="1149" type="line"/>
    </contour>
    <contour>
      <point x="1250" y="1159" type="line"/>
      <point x="1250" y="-264" type="line"/>
      <point x="1439" y="-264" type="line"/>
      <point x="1439" y="1159" type="line"/>
    </contour>
    <contour>
      <point x="-18" y="1277" type="line"/>
      <point x="-18" y="1114" type="line"/>
      <point x="1641" y="1114" type="line"/>
      <point x="1641" y="1277" type="line"/>
    </contour>
    <contour>
      <point x="1345" y="1167" type="move" name="top"/>
    </contour>
    <contour>
      <point x="1344" y="-230" type="move" name="bottom"/>
    </contour>
    <contour>
      <point x="1023" y="1167" type="move" name="topcandra"/>
    </contour>
  </outline>
</glyph>
<glyph name="ddh_na-deva" format="1">
  <advance width="1058"/>
  <outline>
    <contour>
      <point x="841" y="248"/>
      <point x="1042" y="348"/>
      <point x="1042" y="548" type="curve" smooth="yes"/>
      <point x="1042" y="683"/>
      <point x="933" y="749"/>
      <point x="804" y="749" type="curve" smooth="yes"/>
      <point x="628" y="749"/>
      <point x="565" y="652"/>
      <point x="565" y="571" type="curve" smooth="yes"/>
      <point x="565" y="488"/>
      <point x="612" y="425"/>
      <point x="694" y="371" type="curve"/>
      <point x="806" y="400" type="line"/>
      <point x="738" y="447"/>
      <point x="715" y="496"/>
      <point x="716" y="540" type="curve" smooth="yes"/>
      <point x="716" y="583"/>
      <point x="750" y="628"/>
      <point x="823" y="626" type="curve" smooth="yes"/>
      <point x="869" y="624"/>
      <point x="903" y="601"/>
      <point x="903" y="553" type="curve" smooth="yes"/>
      <point x="903" y="456"/>
      <point x="801" y="405"/>
      <point x="653" y="399" type="curve" smooth="yes"/>
      <point x="425" y="388"/>
      <point x="345" y="487"/>
      <point x="345" y="625" type="curve" smooth="yes"/>
      <point x="345" y="789"/>
      <point x="449" y="857"/>
      <point x="657" y="857" type="curve" smooth="yes"/>
      <point x="721" y="857"/>
      <point x="795" y="856"/>
      <point x="857" y="855" type="curve"/>
      <point x="856" y="1210" type="line"/>
      <point x="682" y="1210" type="line"/>
      <point x="682" y="942" type="line"/>
      <point x="716" y="982" type="line"/>
      <point x="668" y="988"/>
      <point x="620" y="991"/>
      <point x="577" y="990" type="curve" smooth="yes"/>
      <point x="276" y="989"/>
      <point x="164" y="825"/>
      <point x="164" y="632" type="curve" smooth="yes"/>
      <point x="164" y="395"/>
      <point x="345" y="248"/>
      <point x="621" y="248" type="curve" smooth="yes"/>
    </contour>
    <contour>
      <point x="1137" y="1114" type="line"/>
      <point x="1137" y="1277" type="line"/>
      <point x="-18" y="1277" type="line"/>
      <point x="-18" y="1114" type="line"/>
    </contour>
    <contour>
      <point x="716" y="336" type="line"/>
      <point x="716" y="-543" type="line"/>
      <point x="895" y="-543" type="line"/>
      <point x="895" y="336" type="line"/>
    </contour>
    <contour>
      <point x="179" y="43" type="line"/>
      <point x="179" y="-109" type="line"/>
      <point x="329" y="-327" type="line"/>
      <point x="439" y="-327"/>
      <point x="459" y="-251"/>
      <point x="459" y="-157" type="curve" smooth="yes"/>
      <point x="459" y="43" type="line"/>
    </contour>
    <contour>
      <point x="291" y="43" type="line"/>
      <point x="291" y="-118" type="line"/>
      <point x="854" y="-118" type="line"/>
      <point x="854" y="43" type="line"/>
    </contour>
  </outline>
</glyph>
<glyph name="dotaccent.cap" format="1">
  <advance width="0"/>
  <outline>
    <contour>
      <point x="0" y="1457" type="curve" smooth="yes" name="hr00"/>
      <point x="72" y="1457"/>
      <point x="127" y="1506"/>
      <point x="127" y="1577" type="curve" smooth="yes"/>
      <point x="127" y="1645"/>
      <point x="72" y="1694"/>
      <point x="0" y="1694" type="curve" smooth="yes"/>
      <point x="-72" y="1694"/>
      <point x="-127" y="1645"/>
      <point x="-127" y="1577" type="curve" smooth="yes"/>
      <point x="-127" y="1506"/>
      <point x="-72" y="1457"/>
    </contour>
    <contour>
      <point x="0" y="1050" type="move" name="_top"/>
    </contour>
  </outline>
</glyph>
<glyph name="eight.pnum" format="1">
  <advance width="1084"/>
  <outline>
    <contour>
      <point x="283" y="363" type="curve" smooth="yes" name="hr01"/>
      <point x="283" y="475"/>
      <point x="353" y="577"/>
      <point x="449" y="644" type="curve"/>
      <point x="633" y="569"/>
      <point x="789" y="501"/>
      <point x="789" y="343" type="curve" smooth="yes"/>
      <point x="789" y="213"/>
      <point x="710" y="115"/>
      <point x="548" y="115" type="curve" smooth="yes"/>
      <point x="394" y="115"/>
      <point x="283" y="224"/>
    </contour>
    <contour>
      <point x="634" y="741" type="curve" name="hr02"/>
      <point x="480" y="800"/>
      <point x="347" y="874"/>
      <point x="347" y="1020" type="curve" smooth="yes"/>
      <point x="347" y="1142"/>
      <point x="419" y="1227"/>
      <point x="550" y="1227" type="curve" smooth="yes"/>
      <point x="688" y="1227"/>
      <point x="760" y="1129"/>
      <point x="760" y="1005" type="curve" smooth="yes"/>
      <point x="760" y="914"/>
      <point x="715" y="816"/>
    </contour>
    <contour>
      <point x="111" y="344" type="curve" smooth="yes" name="hr03"/>
      <point x="111" y="136"/>
      <point x="291" y="-25"/>
      <point x="543" y="-25" type="curve" smooth="yes"/>
      <point x="821" y="-25"/>
      <point x="972" y="139"/>
      <point x="972" y="336" type="curve" smooth="yes"/>
      <point x="972" y="511"/>
      <point x="864" y="615"/>
      <point x="746" y="682" type="curve"/>
      <point x="746" y="691" type="line"/>
      <point x="827" y="752"/>
      <point x="924" y="881"/>
      <point x="924" y="1015" type="curve" smooth="yes" name="hr04"/>
      <point x="924" y="1221"/>
      <point x="786" y="1367"/>
      <point x="555" y="1367" type="curve" smooth="yes"/>
      <point x="320" y="1367"/>
      <point x="171" y="1225"/>
      <point x="171" y="1020" type="curve" smooth="yes"/>
      <point x="171" y="883"/>
      <point x="255" y="777"/>
      <point x="353" y="708" type="curve"/>
      <point x="353" y="700" type="line"/>
      <point x="230" y="635"/>
      <point x="111" y="511"/>
    </contour>
  </outline>
</glyph>
<glyph name="five-deva.np" format="1">
  <advance width="845"/>
  <outline>
    <contour>
      <point x="276" y="986"/>
      <point x="82" y="716"/>
      <point x="81" y="463" type="curve" smooth="yes"/>
      <point x="81" y="277"/>
      <point x="179" y="41"/>
      <point x="504" y="39" type="curve" smooth="yes"/>
      <point x="632" y="38"/>
      <point x="758" y="73"/>
      <point x="829" y="116" type="curve"/>
      <point x="780" y="268" type="line"/>
      <point x="683" y="231"/>
      <point x="593" y="212"/>
      <point x="515" y="213" type="curve" smooth="yes"/>
      <point x="380" y="215"/>
      <point x="273" y="275"/>
      <point x="273" y="466" type="curve" smooth="yes"/>
      <point x="273" y="707"/>
      <point x="473" y="918"/>
      <point x="732" y="1178" type="curve"/>
      <point x="548" y="1229" type="line"/>
    </contour>
    <contour>
      <point x="60" y="1277" type="line"/>
      <point x="60" y="1114" type="line"/>
      <point x="842" y="1114" type="line"/>
      <point x="842" y="1277" type="line"/>
    </contour>
  </outline>
</glyph>
<glyph name="four.numr" format="1">
  <advance width="755"/>
  <outline>
    <contour>
      <point x="232" y="853" type="line" name="hr00"/>
      <point x="350" y="1048" type="line"/>
      <point x="449" y="1212" type="line"/>
      <point x="458" y="1212" type="line"/>
      <point x="449" y="987" type="line"/>
      <point x="449" y="853" type="line"/>
    </contour>
    <contour>
      <point x="700" y="853" type="line"/>
      <point x="581" y="853" type="line"/>
      <point x="581" y="1342" type="line"/>
      <point x="411" y="1342" type="line"/>
      <point x="83" y="825" type="line"/>
      <point x="83" y="750" type="line"/>
      <point x="449" y="750" type="line"/>
      <point x="449" y="544" type="line"/>
      <point x="581" y="544" type="line"/>
      <point x="581" y="750" type="line"/>
      <point x="700" y="750" type="line"/>
    </contour>
  </outline>
</glyph>
<glyph name="four.pnum" format="1">
  <advance width="1078"/>
  <outline>
    <contour>
      <point x="268" y="504" type="line" name="hr01"/>
      <point x="548" y="954" type="line"/>
      <point x="585" y="1020"/>
      <point x="622" y="1086"/>
      <point x="654" y="1151" type="curve" name="hr02"/>
      <point x="663" y="1151" type="line"/>
      <point x="659" y="1079"/>
      <point x="654" y="958"/>
      <point x="654" y="885" type="curve" smooth="yes"/>
      <point x="654" y="504" type="line"/>
    </contour>
    <contour>
      <point x="1007" y="504" type="line"/>
      <point x="834" y="504" type="line"/>
      <point x="834" y="1346" type="line"/>
      <point x="615" y="1346" type="line"/>
      <point x="71" y="480" type="line"/>
      <point x="71" y="351" type="line"/>
      <point x="654" y="351" type="line"/>
      <point x="654" y="0" type="line"/>
      <point x="834" y="0" type="line"/>
      <point x="834" y="351" type="line"/>
      <point x="1007" y="351" type="line"/>
    </contour>
  </outline>
</glyph>
<glyph name="four.tnum" format="1">
  <advance width="1030"/>
  <outline>
    <contour>
      <point x="234" y="341" type="line" name="hr01"/>
      <point x="515" y="771" type="line"/>
      <point x="552" y="839"/>
      <point x="589" y="911"/>
      <point x="622" y="977" type="curve" name="hr02"/>
      <point x="630" y="977" type="line"/>
      <point x="626" y="906"/>
      <point x="619" y="796"/>
      <point x="619" y="723" type="curve" smooth="yes"/>
      <point x="619" y="341" type="line"/>
    </contour>
    <contour>
      <point x="974" y="341" type="line"/>
      <point x="801" y="341" type="line"/>
      <point x="801" y="1177" type="line"/>
      <point x="579" y="1177" type="line"/>
      <point x="36" y="318" type="line"/>
      <point x="36" y="189" type="line"/>
      <point x="619" y="189" type="line"/>
      <point x="619" y="-153" type="line"/>
      <point x="801" y="-153" type="line"/>
      <point x="801" y="189" type="line"/>
      <point x="974" y="189" type="line"/>
    </contour>
  </outline>
</glyph>
<glyph name="g.supa" format="1">
  <advance width="778"/>
  <outline>
    <contour>
      <point x="164" y="409" type="curve"/>
      <point x="113" y="312" type="line"/>
      <point x="185" y="264"/>
      <point x="276" y="236"/>
      <point x="355" y="236" type="curve" smooth="yes"/>
      <point x="555" y="236"/>
      <point x="671" y="342"/>
      <point x="671" y="516" type="curve" smooth="yes"/>
      <point x="671" y="1194" type="line"/>
      <point x="558" y="1194" type="line"/>
      <point x="545" y="1131" type="line"/>
      <point x="539" y="1131" type="line"/>
      <point x="486" y="1185"/>
      <point x="427" y="1210"/>
      <point x="356" y="1210" type="curve" smooth="yes"/>
      <point x="208" y="1210"/>
      <point x="68" y="1081"/>
      <point x="68" y="876" type="curve" smooth="yes"/>
      <point x="68" y="681"/>
      <point x="177" y="551"/>
      <point x="350" y="551" type="curve" smooth="yes"/>
      <point x="420" y="551"/>
      <point x="477" y="584"/>
      <point x="535" y="632" type="curve"/>
      <point x="530" y="548" type="line"/>
      <point x="530" y="524" type="line"/>
      <point x="530" y="426"/>
      <point x="470" y="352"/>
      <point x="356" y="352" type="curve" smooth="yes"/>
      <point x="295" y="352"/>
      <point x="225" y="369"/>
    </contour>
    <contour>
      <point x="382" y="669" type="curve" smooth="yes"/>
      <point x="269" y="669"/>
      <point x="215" y="751"/>
      <point x="215" y="879" type="curve" smooth="yes"/>
      <point x="215" y="1009"/>
      <point x="290" y="1093"/>
      <point x="380" y="1093" type="curve" smooth="yes"/>
      <point x="426" y="1093"/>
      <point x="480" y="1075"/>
      <point x="530" y="1031" type="curve"/>
      <point x="530" y="746" type="line"/>
      <point x="477" y="694"/>
      <point x="433" y="669"/>
    </contour>
  </outline>
</glyph>
<glyph name="g_la-deva.loclMAR" format="1">
  <advance width="1187"/>
  <outline>
    <contour>
      <point x="792" y="1229" type="line"/>
      <point x="792" y="28" type="line"/>
      <point x="981" y="28" type="line"/>
      <point x="981" y="1229" type="line"/>
    </contour>
    <contour>
      <point x="295" y="718" type="line"/>
      <point x="110" y="696" type="line"/>
      <point x="110" y="566" type="line"/>
      <point x="291" y="365" type="line"/>
      <point x="418" y="366"/>
      <point x="445" y="427"/>
      <point x="445" y="503" type="curve" smooth="yes"/>
      <point x="445" y="718" type="line"/>
    </contour>
    <contour>
      <point x="256" y="1180" type="line"/>
      <point x="256" y="479" type="line"/>
      <point x="445" y="645" type="line"/>
      <point x="445" y="1180" type="line"/>
    </contour>
    <contour>
      <point x="-18" y="1277" type="line"/>
      <point x="-18" y="1114" type="line"/>
      <point x="1204" y="1114" type="line"/>
      <point x="1204" y="1277" type="line"/>
    </contour>
    <contour>
      <point x="633" y="183"/>
      <point x="521" y="31"/>
      <point x="521" y="-166" type="curve" smooth="yes"/>
      <point x="521" y="-207"/>
      <point x="525" y="-247"/>
      <point x="539" y="-284" type="curve"/>
      <point x="700" y="-266" type="line"/>
      <point x="695" y="-238"/>
      <point x="693" y="-211"/>
      <point x="693" y="-183" type="curve" smooth="yes"/>
      <point x="693" y="-68"/>
      <point x="745" y="13"/>
      <point x="849" y="13" type="curve" smooth="yes"/>
      <point x="941" y="13"/>
      <point x="998" y="-44"/>
      <point x="998" y="-145" type="curve" smooth="yes"/>
      <point x="998" y="-238"/>
      <point x="971" y="-340"/>
      <point x="798" y="-467" type="curve"/>
      <point x="892" y="-594" type="line"/>
      <point x="1107" y="-462"/>
      <point x="1172" y="-282"/>
      <point x="1172" y="-149" type="curve" smooth="yes"/>
      <point x="1172" y="56"/>
      <point x="1049" y="183"/>
      <point x="843" y="183" type="curve" smooth="yes"/>
    </contour>
    <contour>
      <point x="137" y="181"/>
      <point x="24" y="63"/>
      <point x="24" y="-118" type="curve" smooth="yes"/>
      <point x="24" y="-344"/>
      <point x="156" y="-484"/>
      <point x="333" y="-589" type="curve"/>
      <point x="414" y="-461" type="line"/>
      <point x="261" y="-364"/>
      <point x="207" y="-270"/>
      <point x="207" y="-144" type="curve" smooth="yes"/>
      <point x="207" y="-32"/>
      <point x="278" y="10"/>
      <point x="359" y="10" type="curve" smooth="yes"/>
      <point x="464" y="10"/>
      <point x="537" y="-74"/>
      <point x="606" y="-193" type="curve"/>
      <point x="628" y="-71" type="line"/>
      <point x="558" y="107"/>
      <point x="457" y="181"/>
      <point x="317" y="181" type="curve" smooth="yes"/>
    </contour>
    <contour>
      <point x="887" y="1167" type="move" name="top"/>
    </contour>
    <contour>
      <point x="844" y="-482" type="move" name="bottom"/>
    </contour>
    <contour>
      <point x="623" y="1167" type="move" name="topcandra"/>
    </contour>
  </outline>
</glyph>
<glyph name="ga_na-deva" format="1">
  <advance width="1143"/>
  <outline>
    <contour>
      <point x="907" y="458" type="line"/>
      <point x="793" y="564" type="line"/>
      <point x="229" y="157" type="line"/>
      <point x="299" y="37" type="line"/>
      <point x="521" y="-41" type="line"/>
      <point x="559" y="-9"/>
      <point x="574" y="23"/>
      <point x="574" y="51" type="curve" smooth="yes"/>
      <point x="574" y="77"/>
      <point x="564" y="103"/>
      <point x="549" y="124" type="curve" smooth="yes"/>
      <point x="500" y="194" type="line"/>
      <point x="485" y="136" type="line"/>
    </contour>
    <component base="ga-deva" xOffset="-1"/>
    <contour>
      <point x="867" y="1167" type="move" name="top"/>
    </contour>
    <contour>
      <point x="866" y="27" type="move" name="bottom"/>
    </contour>
    <contour>
      <point x="608" y="1167" type="move" name="topcandra"/>
    </contour>
  </outline>
</glyph>
<glyph name="ga_ra-deva" format="1">
  <advance width="1144"/>
  <outline>
    <contour>
      <point x="900" y="446" type="line"/>
      <point x="805" y="551" type="line"/>
      <point x="202" y="114" type="line"/>
      <point x="316" y="-23" type="line"/>
    </contour>
    <component base="ga-deva"/>
    <contour>
      <point x="870" y="1167" type="move" name="top"/>
    </contour>
    <contour>
      <point x="870" y="27" type="move" name="bottom"/>
    </contour>
    <contour>
      <point x="608" y="1167" type="move" name="topcandra"/>
    </contour>
  </outline>
</glyph>
<glyph name="h_na-deva" format="1">
  <advance width="1117"/>
  <outline>
    <contour>
      <point x="321" y="558"/>
      <point x="75" y="468"/>
      <point x="75" y="197" type="curve" smooth="yes"/>
      <point x="75" y="-70"/>
      <point x="301" y="-332"/>
      <point x="781" y="-420" type="curve"/>
      <point x="824" y="-276" type="line"/>
      <point x="403" y="-187"/>
      <point x="256" y="3"/>
      <point x="256" y="173" type="curve" smooth="yes"/>
      <point x="256" y="322"/>
      <point x="336" y="400"/>
      <point x="562" y="400" type="curve" smooth="yes"/>
      <point x="813" y="400"/>
      <point x="861" y="301"/>
      <point x="861" y="197" type="curve" smooth="yes"/>
      <point x="861" y="126"/>
      <point x="838" y="71"/>
      <point x="794" y="8" type="curve"/>
      <point x="921" y="-84" type="line"/>
      <point x="998" y="6"/>
      <point x="1022" y="116"/>
      <point x="1022" y="205" type="curve" smooth="yes"/>
      <point x="1022" y="398"/>
      <point x="901" y="558"/>
      <point x="561" y="558" type="curve" smooth="yes"/>
    </contour>
    <contour>
      <point x="383" y="148" type="line"/>
      <point x="471" y="22" type="line"/>
      <point x="667" y="-55" type="line"/>
      <point x="746" y="2"/>
      <point x="709" y="68"/>
      <point x="673" y="128" type="curve" smooth="yes"/>
      <point x="651" y="167" type="line"/>
      <point x="917" y="353" type="line"/>
      <point x="836" y="463" type="line"/>
    </contour>
    <contour>
      <point x="675" y="1162" type="line"/>
      <point x="675" y="929" type="line"/>
      <point x="392" y="929" type="line" smooth="yes"/>
      <point x="192" y="929"/>
      <point x="109" y="842"/>
      <point x="107" y="728" type="curve" smooth="yes"/>
      <point x="106" y="630"/>
      <point x="165" y="532"/>
      <point x="266" y="417" type="curve"/>
      <point x="382" y="463" type="line"/>
      <point x="331" y="549"/>
      <point x="298" y="630"/>
      <point x="300" y="682" type="curve" smooth="yes"/>
      <point x="301" y="729"/>
      <point x="329" y="762"/>
      <point x="420" y="762" type="curve" smooth="yes"/>
      <point x="864" y="762" type="line"/>
      <point x="864" y="1162" type="line"/>
    </contour>
    <contour>
      <point x="-18" y="1277" type="line"/>
      <point x="-18" y="1114" type="line"/>
      <point x="1134" y="1114" type="line"/>
      <point x="1134" y="1277" type="line"/>
    </contour>
    <contour>
      <point x="769" y="1167" type="move" name="top"/>
    </contour>
    <contour>
      <point x="633" y="-343" type="move" name="bottom"/>
    </contour>
    <contour>
      <point x="541" y="1167" type="move" name="topcandra"/>
    </contour>
  </outline>
</glyph>
<glyph name="h_ya-deva" format="1">
  <advance width="1574"/>
  <outline>
    <contour>
      <point x="325" y="556"/>
      <point x="77" y="489"/>
      <point x="77" y="220" type="curve" smooth="yes"/>
      <point x="77" y="-17"/>
      <point x="263" y="-255"/>
      <point x="785" y="-376" type="curve"/>
      <point x="825" y="-225" type="line"/>
      <point x="725" y="-202"/>
      <point x="269" y="-94"/>
      <point x="269" y="197" type="curve" smooth="yes"/>
      <point x="269" y="323"/>
      <point x="355" y="390"/>
      <point x="539" y="390" type="curve" smooth="yes"/>
      <point x="647" y="390"/>
      <point x="715" y="362"/>
      <point x="715" y="313" type="curve" smooth="yes"/>
      <point x="715" y="253"/>
      <point x="635" y="200"/>
      <point x="549" y="176" type="curve"/>
      <point x="590" y="7"/>
      <point x="742" y="-107"/>
      <point x="927" y="-107" type="curve" smooth="yes"/>
      <point x="1057" y="-107"/>
      <point x="1177" y="-51"/>
      <point x="1255" y="45" type="curve"/>
      <point x="1256" y="257" type="line"/>
      <point x="1153" y="115"/>
      <point x="1056" y="52"/>
      <point x="925" y="52" type="curve" smooth="yes"/>
      <point x="842" y="52"/>
      <point x="759" y="75"/>
      <point x="699" y="152" type="curve"/>
      <point x="703" y="109" type="line"/>
      <point x="810" y="142"/>
      <point x="898" y="214"/>
      <point x="898" y="328" type="curve" smooth="yes"/>
      <point x="898" y="452"/>
      <point x="782" y="556"/>
      <point x="531" y="556" type="curve" smooth="yes"/>
    </contour>
    <contour>
      <point x="651" y="1142" type="line"/>
      <point x="651" y="929" type="line"/>
      <point x="381" y="929" type="line" smooth="yes"/>
      <point x="200" y="929"/>
      <point x="104" y="851"/>
      <point x="104" y="734" type="curve" smooth="yes"/>
      <point x="103" y="638"/>
      <point x="162" y="528"/>
      <point x="245" y="432" type="curve"/>
      <point x="379" y="477" type="line"/>
      <point x="330" y="545"/>
      <point x="297" y="631"/>
      <point x="298" y="690" type="curve" smooth="yes"/>
      <point x="299" y="744"/>
      <point x="333" y="762"/>
      <point x="439" y="762" type="curve" smooth="yes"/>
      <point x="838" y="762" type="line"/>
      <point x="838" y="1142" type="line"/>
    </contour>
    <contour>
      <point x="1200" y="1141" type="line"/>
      <point x="1200" y="-242" type="line"/>
      <point x="1389" y="-242" type="line"/>
      <point x="1389" y="1141" type="line"/>
    </contour>
    <contour>
      <point x="-18" y="1277" type="line"/>
      <point x="-18" y="1114" type="line"/>
      <point x="1591" y="1114" type="line"/>
      <point x="1591" y="1277" type="line"/>
    </contour>
    <contour>
      <point x="1294" y="1167" type="move" name="top"/>
    </contour>
    <contour>
      <point x="1294" y="-219" type="move" name="bottom"/>
    </contour>
    <contour>
      <point x="937" y="1167" type="move" name="topcandra"/>
    </contour>
  </outline>
</glyph>
<glyph name="ha_matra_vocalicR-deva" format="1">
  <advance width="1010"/>
  <outline>
    <contour>
      <point x="291" y="589"/>
      <point x="78" y="478"/>
      <point x="78" y="231" type="curve" smooth="yes"/>
      <point x="78" y="16"/>
      <point x="238" y="-237"/>
      <point x="782" y="-359" type="curve"/>
      <point x="827" y="-213" type="line"/>
      <point x="492" y="-133"/>
      <point x="266" y="6"/>
      <point x="266" y="198" type="curve" smooth="yes"/>
      <point x="266" y="322"/>
      <point x="356" y="425"/>
      <point x="556" y="425" type="curve" smooth="yes"/>
      <point x="670" y="425"/>
      <point x="704" y="399"/>
      <point x="704" y="376" type="curve" smooth="yes"/>
      <point x="704" y="354"/>
      <point x="685" y="344"/>
      <point x="631" y="314" type="curve" smooth="yes"/>
      <point x="553" y="270"/>
      <point x="488" y="233"/>
      <point x="488" y="132" type="curve" smooth="yes"/>
      <point x="488" y="51"/>
      <point x="544" y="-59"/>
      <point x="732" y="-59" type="curve" smooth="yes"/>
      <point x="795" y="-59"/>
      <point x="857" y="-47"/>
      <point x="916" y="-19" type="curve"/>
      <point x="880" y="123" type="line"/>
      <point x="831" y="102"/>
      <point x="759" y="85"/>
      <point x="709" y="87" type="curve" smooth="yes"/>
      <point x="669" y="88"/>
      <point x="641" y="101"/>
      <point x="641" y="130" type="curve" smooth="yes"/>
      <point x="641" y="159"/>
      <point x="655" y="168"/>
      <point x="737" y="212" type="curve" smooth="yes"/>
      <point x="819" y="256"/>
      <point x="876" y="290"/>
      <point x="876" y="387" type="curve" smooth="yes"/>
      <point x="876" y="499"/>
      <point x="748" y="589"/>
      <point x="541" y="589" type="curve" smooth="yes"/>
    </contour>
    <contour>
      <point x="648" y="1162" type="line"/>
      <point x="648" y="929" type="line"/>
      <point x="387" y="929" type="line" smooth="yes"/>
      <point x="188" y="929"/>
      <point x="104" y="842"/>
      <point x="103" y="728" type="curve" smooth="yes"/>
      <point x="102" y="629"/>
      <point x="162" y="530"/>
      <point x="263" y="414" type="curve"/>
      <point x="377" y="463" type="line"/>
      <point x="326" y="549"/>
      <point x="294" y="630"/>
      <point x="295" y="682" type="curve" smooth="yes"/>
      <point x="297" y="729"/>
      <point x="324" y="762"/>
      <point x="415" y="762" type="curve" smooth="yes"/>
      <point x="837" y="762" type="line"/>
      <point x="837" y="1162" type="line"/>
    </contour>
    <contour>
      <point x="-18" y="1277" type="line"/>
      <point x="-18" y="1114" type="line"/>
      <point x="1027" y="1114" type="line"/>
      <point x="1027" y="1277" type="line"/>
    </contour>
    <contour>
      <point x="743" y="1167" type="move" name="top"/>
    </contour>
    <contour>
      <point x="670" y="-245" type="move" name="bottom"/>
    </contour>
    <contour>
      <point x="534" y="1167" type="move" name="topcandra"/>
    </contour>
  </outline>
</glyph>
